<svg width="339" height="212" viewBox="0 0 339 212" fill="none" xmlns="http://www.w3.org/2000/svg">
<path d="M296.428 60.8489L339 0V212L0 202.04V144.416L5.58762 105.191C5.85286 100.552 7.33823 90.4965 11.1578 87.3893C14.9773 84.2821 22.298 83.2896 25.481 83.1817C25.481 81.6712 27.7886 78.0678 37.0191 75.7374C46.2496 73.407 55.9841 79.7293 59.6976 83.1817L70.44 95.1573C72.6946 92.5679 78.5565 87.3893 83.9675 87.3893C89.3785 87.3893 94.1794 89.9786 95.9035 91.2733C96.0361 88.5761 97.5745 82.2754 102.667 78.6504C107.76 75.0253 114.603 75.198 117.388 75.7374C116.99 72.1771 117.786 64.215 124.152 60.8489C130.518 57.4827 138.21 62.2514 141.26 65.0565C142.056 61.9277 144.92 54.0519 150.013 47.5786C155.106 41.1053 164.867 50.2758 169.111 55.6702C171.896 52.973 178.58 45.7661 183.036 38.516C188.606 29.4534 212.08 38.516 218.446 47.5786C223.539 54.8287 232.504 62.2514 236.35 65.0565C240.064 68.5089 247.093 77.8089 245.501 87.3893C243.91 96.9698 238.737 103.249 236.35 105.191L255.05 113.93L236.35 136.91H270.965L296.428 116.843H276.535L296.428 87.3893H283.696L309.956 60.8489H296.428Z" fill="#476555"/>
</svg>
