<svg width="296" height="188" viewBox="0 0 296 188" fill="none" xmlns="http://www.w3.org/2000/svg">
<path d="M272.902 37.552L296 0V188L0 179.023L7.16279 108.775L11.1023 82.1071C11.3411 77.4456 12.6781 67.3421 16.1163 64.22C19.5544 61.0979 26.1442 60.1006 29.0093 59.9922C29.0093 58.4745 31.0865 54.8537 39.3953 52.5121C47.7042 50.1705 56.4667 56.5231 59.8093 59.9922L69.4791 72.0253C71.5085 69.4235 76.7851 64.22 81.6558 64.22C86.5265 64.22 90.848 66.8218 92.4 68.1227C92.5194 65.4125 93.9042 59.0815 98.4883 55.4391C103.073 51.7966 109.232 51.9701 111.739 52.5121C111.381 48.9347 112.097 40.9343 117.828 37.552C123.558 34.1697 130.482 38.9613 133.228 41.7798C133.944 38.636 136.522 30.7224 141.107 24.218C145.691 17.7136 154.477 26.9281 158.297 32.3485C160.804 29.6383 166.821 22.3967 170.832 15.1118C175.846 6.00565 196.976 15.1118 202.707 24.218C207.291 31.5029 215.361 38.9613 218.823 41.7798C222.166 45.2489 228.493 54.5935 227.06 64.22C225.628 73.8465 220.972 80.1558 218.823 82.1071L202.707 89.5872L218.823 113.979H249.981L272.902 93.815H254.995L272.902 64.22H261.441L285.079 37.552H272.902Z" fill="#476555"/>
</svg>
