<svg width="349" height="212" viewBox="0 0 349 212" fill="none" xmlns="http://www.w3.org/2000/svg">
<path d="M42.9724 60.8489L0 0V212L349 201.643L340.968 131.731L336.55 105.191C336.282 100.552 334.783 90.4965 330.927 87.3893C327.072 84.2821 319.682 83.2896 316.469 83.1817C316.469 81.6712 314.14 78.0678 304.823 75.7374C295.505 73.407 285.679 79.7293 281.931 83.1817L271.087 95.1573C268.812 92.5679 262.895 87.3893 257.433 87.3893C251.971 87.3893 247.125 89.9786 245.384 91.2733C245.25 88.5761 243.697 82.2754 238.557 78.6504C233.416 75.0253 226.509 75.198 223.698 75.7374C224.099 72.1771 223.296 64.215 216.87 60.8489C210.444 57.4827 202.68 62.2514 199.601 65.0565C198.798 61.9277 195.906 54.0519 190.765 47.5786C185.625 41.1053 175.772 50.2758 171.488 55.6702C168.677 52.973 161.93 45.7661 157.432 38.516C151.809 29.4534 128.114 38.516 121.688 47.5786C116.548 54.8287 107.498 62.2514 103.616 65.0565C99.8674 68.5089 92.7722 77.8089 94.3787 87.3893C95.9851 96.9698 101.206 103.249 103.616 105.191L84.7397 113.93L103.616 136.91H68.6756L42.9724 116.843H63.053L42.9724 87.3893H55.824L29.3176 60.8489H42.9724Z" fill="#476555"/>
</svg>
