<svg width="550" height="385" viewBox="0 0 550 385" fill="none" xmlns="http://www.w3.org/2000/svg">
<rect width="550" height="385" fill="#7C5D5D"/>
<g filter="url(#filter0_d_1899_1637)">
<path d="M164.64 182.04C166.24 182.44 167.04 183.44 167.04 185.04V192H119.04V185.04C119.04 183.44 119.84 182.44 121.44 182.04C122.88 181.8 127.92 181.36 136.56 180.72V130.32C136.56 129.04 136.64 126.96 136.8 124.08L124.32 134.52C123.84 135 123.32 135.32 122.76 135.48C122.12 135.64 121.56 135.72 121.08 135.72C120.2 135.72 119.48 135.56 118.92 135.24C118.36 134.92 117.88 134.52 117.48 134.04L112.8 127.68L139.2 105.12H151.44V180.84C158.72 181.4 163.12 181.8 164.64 182.04ZM235.008 148.56C235.008 156.48 234.208 163.08 232.608 168.36C230.848 174.2 228.608 178.8 225.888 182.16C223.008 185.76 219.608 188.48 215.688 190.32C211.928 192.08 207.728 192.96 203.088 192.96C198.448 192.96 194.248 192.08 190.488 190.32C186.808 188.64 183.488 185.92 180.528 182.16C177.648 178.56 175.408 173.96 173.808 168.36C172.208 162.68 171.408 156.08 171.408 148.56C171.408 141.12 172.208 134.56 173.808 128.88C175.408 123.28 177.648 118.68 180.528 115.08C183.488 111.32 186.808 108.6 190.488 106.92C194.248 105.16 198.448 104.28 203.088 104.28C207.728 104.28 211.928 105.16 215.688 106.92C219.608 108.76 223.008 111.48 225.888 115.08C228.608 118.44 230.848 123.04 232.608 128.88C234.208 134.16 235.008 140.72 235.008 148.56ZM219.648 148.56C219.648 141.92 219.208 136.72 218.328 132.96C217.288 128.64 216.048 125.36 214.608 123.12C213.008 120.64 211.248 118.96 209.328 118.08C207.328 117.12 205.248 116.64 203.088 116.64C200.928 116.64 198.888 117.12 196.968 118.08C194.968 119.04 193.208 120.72 191.688 123.12C190.328 125.2 189.128 128.48 188.088 132.96C187.128 137.04 186.648 142.24 186.648 148.56C186.648 154.88 187.128 160.08 188.088 164.16C189.128 168.64 190.328 171.92 191.688 174C193.288 176.48 195.048 178.2 196.968 179.16C199.048 180.2 201.088 180.72 203.088 180.72C205.008 180.72 207.088 180.2 209.328 179.16C211.248 178.28 213.008 176.6 214.608 174.12C216.048 171.88 217.288 168.56 218.328 164.16C219.208 160.4 219.648 155.2 219.648 148.56ZM303.445 148.56C303.445 156.48 302.645 163.08 301.045 168.36C299.285 174.2 297.045 178.8 294.325 182.16C291.445 185.76 288.045 188.48 284.125 190.32C280.365 192.08 276.165 192.96 271.525 192.96C266.885 192.96 262.685 192.08 258.925 190.32C255.245 188.64 251.925 185.92 248.965 182.16C246.085 178.56 243.845 173.96 242.245 168.36C240.645 162.68 239.845 156.08 239.845 148.56C239.845 141.12 240.645 134.56 242.245 128.88C243.845 123.28 246.085 118.68 248.965 115.08C251.925 111.32 255.245 108.6 258.925 106.92C262.685 105.16 266.885 104.28 271.525 104.28C276.165 104.28 280.365 105.16 284.125 106.92C288.045 108.76 291.445 111.48 294.325 115.08C297.045 118.44 299.285 123.04 301.045 128.88C302.645 134.16 303.445 140.72 303.445 148.56ZM288.085 148.56C288.085 141.92 287.645 136.72 286.765 132.96C285.725 128.64 284.485 125.36 283.045 123.12C281.445 120.64 279.685 118.96 277.765 118.08C275.765 117.12 273.685 116.64 271.525 116.64C269.365 116.64 267.325 117.12 265.405 118.08C263.405 119.04 261.645 120.72 260.125 123.12C258.765 125.2 257.565 128.48 256.525 132.96C255.565 137.04 255.085 142.24 255.085 148.56C255.085 154.88 255.565 160.08 256.525 164.16C257.565 168.64 258.765 171.92 260.125 174C261.725 176.48 263.485 178.2 265.405 179.16C267.485 180.2 269.525 180.72 271.525 180.72C273.445 180.72 275.525 180.2 277.765 179.16C279.685 178.28 281.445 176.6 283.045 174.12C284.485 171.88 285.725 168.56 286.765 164.16C287.645 160.4 288.085 155.2 288.085 148.56ZM371.883 148.56C371.883 156.48 371.083 163.08 369.483 168.36C367.723 174.2 365.483 178.8 362.763 182.16C359.883 185.76 356.483 188.48 352.563 190.32C348.803 192.08 344.603 192.96 339.963 192.96C335.323 192.96 331.123 192.08 327.363 190.32C323.683 188.64 320.363 185.92 317.403 182.16C314.523 178.56 312.283 173.96 310.683 168.36C309.083 162.68 308.283 156.08 308.283 148.56C308.283 141.12 309.083 134.56 310.683 128.88C312.283 123.28 314.523 118.68 317.403 115.08C320.363 111.32 323.683 108.6 327.363 106.92C331.123 105.16 335.323 104.28 339.963 104.28C344.603 104.28 348.803 105.16 352.563 106.92C356.483 108.76 359.883 111.48 362.763 115.08C365.483 118.44 367.723 123.04 369.483 128.88C371.083 134.16 371.883 140.72 371.883 148.56ZM356.523 148.56C356.523 141.92 356.083 136.72 355.203 132.96C354.163 128.64 352.923 125.36 351.483 123.12C349.883 120.64 348.123 118.96 346.203 118.08C344.203 117.12 342.123 116.64 339.963 116.64C337.803 116.64 335.763 117.12 333.843 118.08C331.843 119.04 330.083 120.72 328.563 123.12C327.203 125.2 326.003 128.48 324.963 132.96C324.003 137.04 323.523 142.24 323.523 148.56C323.523 154.88 324.003 160.08 324.963 164.16C326.003 168.64 327.203 171.92 328.563 174C330.163 176.48 331.923 178.2 333.843 179.16C335.923 180.2 337.963 180.72 339.963 180.72C341.883 180.72 343.963 180.2 346.203 179.16C348.123 178.28 349.883 176.6 351.483 174.12C352.923 171.88 354.163 168.56 355.203 164.16C356.083 160.4 356.523 155.2 356.523 148.56ZM435.28 146.16V157.2H412V181.92H400V157.2H376.72V146.16H400V121.68H412V146.16H435.28Z" fill="#FF7040"/>
</g>
<path d="M151.376 236.608C152.368 236.608 153.264 236.824 154.064 237.256C154.864 237.672 155.488 238.304 155.936 239.152C156.4 240 156.632 241.032 156.632 242.248V250H154.472V242.56C154.472 241.248 154.144 240.248 153.488 239.56C152.832 238.856 151.936 238.504 150.8 238.504C149.648 238.504 148.728 238.864 148.04 239.584C147.368 240.304 147.032 241.352 147.032 242.728V250H144.848V232.24H147.032V238.72C147.464 238.048 148.056 237.528 148.808 237.16C149.576 236.792 150.432 236.608 151.376 236.608ZM159.384 243.376C159.384 242.032 159.656 240.856 160.2 239.848C160.744 238.824 161.488 238.032 162.432 237.472C163.392 236.912 164.456 236.632 165.624 236.632C166.776 236.632 167.776 236.88 168.624 237.376C169.472 237.872 170.104 238.496 170.52 239.248V236.848H172.728V250H170.52V247.552C170.088 248.32 169.44 248.96 168.576 249.472C167.728 249.968 166.736 250.216 165.6 250.216C164.432 250.216 163.376 249.928 162.432 249.352C161.488 248.776 160.744 247.968 160.2 246.928C159.656 245.888 159.384 244.704 159.384 243.376ZM170.52 243.4C170.52 242.408 170.32 241.544 169.92 240.808C169.52 240.072 168.976 239.512 168.288 239.128C167.616 238.728 166.872 238.528 166.056 238.528C165.24 238.528 164.496 238.72 163.824 239.104C163.152 239.488 162.616 240.048 162.216 240.784C161.816 241.52 161.616 242.384 161.616 243.376C161.616 244.384 161.816 245.264 162.216 246.016C162.616 246.752 163.152 247.32 163.824 247.72C164.496 248.104 165.24 248.296 166.056 248.296C166.872 248.296 167.616 248.104 168.288 247.72C168.976 247.32 169.52 246.752 169.92 246.016C170.32 245.264 170.52 244.392 170.52 243.4ZM175.602 243.4C175.602 242.04 175.874 240.856 176.418 239.848C176.962 238.824 177.714 238.032 178.674 237.472C179.65 236.912 180.762 236.632 182.01 236.632C183.626 236.632 184.954 237.024 185.994 237.808C187.05 238.592 187.746 239.68 188.082 241.072H185.73C185.506 240.272 185.066 239.64 184.41 239.176C183.77 238.712 182.97 238.48 182.01 238.48C180.762 238.48 179.754 238.912 178.986 239.776C178.218 240.624 177.834 241.832 177.834 243.4C177.834 244.984 178.218 246.208 178.986 247.072C179.754 247.936 180.762 248.368 182.01 248.368C182.97 248.368 183.77 248.144 184.41 247.696C185.05 247.248 185.49 246.608 185.73 245.776H188.082C187.73 247.12 187.026 248.2 185.97 249.016C184.914 249.816 183.594 250.216 182.01 250.216C180.762 250.216 179.65 249.936 178.674 249.376C177.714 248.816 176.962 248.024 176.418 247C175.874 245.976 175.602 244.776 175.602 243.4ZM198.34 250L193.18 244.192V250H190.996V232.24H193.18V242.68L198.244 236.848H201.292L195.1 243.4L201.316 250H198.34ZM215.348 242.92C215.348 243.336 215.324 243.776 215.276 244.24H204.764C204.844 245.536 205.284 246.552 206.084 247.288C206.9 248.008 207.884 248.368 209.036 248.368C209.98 248.368 210.764 248.152 211.388 247.72C212.028 247.272 212.476 246.68 212.732 245.944H215.084C214.732 247.208 214.028 248.24 212.972 249.04C211.916 249.824 210.604 250.216 209.036 250.216C207.788 250.216 206.668 249.936 205.676 249.376C204.7 248.816 203.932 248.024 203.372 247C202.812 245.96 202.532 244.76 202.532 243.4C202.532 242.04 202.804 240.848 203.348 239.824C203.892 238.8 204.652 238.016 205.628 237.472C206.62 236.912 207.756 236.632 209.036 236.632C210.284 236.632 211.388 236.904 212.348 237.448C213.308 237.992 214.044 238.744 214.556 239.704C215.084 240.648 215.348 241.72 215.348 242.92ZM213.092 242.464C213.092 241.632 212.908 240.92 212.54 240.328C212.172 239.72 211.668 239.264 211.028 238.96C210.404 238.64 209.708 238.48 208.94 238.48C207.836 238.48 206.892 238.832 206.108 239.536C205.34 240.24 204.9 241.216 204.788 242.464H213.092ZM220.415 238.984C220.799 238.232 221.343 237.648 222.047 237.232C222.767 236.816 223.639 236.608 224.663 236.608V238.864H224.087C221.639 238.864 220.415 240.192 220.415 242.848V250H218.231V236.848H220.415V238.984ZM231.84 250.216C230.832 250.216 229.928 250.048 229.128 249.712C228.328 249.36 227.696 248.88 227.232 248.272C226.768 247.648 226.512 246.936 226.464 246.136H228.72C228.784 246.792 229.088 247.328 229.632 247.744C230.192 248.16 230.92 248.368 231.816 248.368C232.648 248.368 233.304 248.184 233.784 247.816C234.264 247.448 234.504 246.984 234.504 246.424C234.504 245.848 234.248 245.424 233.736 245.152C233.224 244.864 232.432 244.584 231.36 244.312C230.384 244.056 229.584 243.8 228.96 243.544C228.352 243.272 227.824 242.88 227.376 242.368C226.944 241.84 226.728 241.152 226.728 240.304C226.728 239.632 226.928 239.016 227.328 238.456C227.728 237.896 228.296 237.456 229.032 237.136C229.768 236.8 230.608 236.632 231.552 236.632C233.008 236.632 234.184 237 235.08 237.736C235.976 238.472 236.456 239.48 236.52 240.76H234.336C234.288 240.072 234.008 239.52 233.496 239.104C233 238.688 232.328 238.48 231.48 238.48C230.696 238.48 230.072 238.648 229.608 238.984C229.144 239.32 228.912 239.76 228.912 240.304C228.912 240.736 229.048 241.096 229.32 241.384C229.608 241.656 229.96 241.88 230.376 242.056C230.808 242.216 231.4 242.4 232.152 242.608C233.096 242.864 233.864 243.12 234.456 243.376C235.048 243.616 235.552 243.984 235.968 244.48C236.4 244.976 236.624 245.624 236.64 246.424C236.64 247.144 236.44 247.792 236.04 248.368C235.64 248.944 235.072 249.4 234.336 249.736C233.616 250.056 232.784 250.216 231.84 250.216ZM245.305 243.376C245.305 242.032 245.577 240.856 246.121 239.848C246.665 238.824 247.409 238.032 248.353 237.472C249.313 236.912 250.377 236.632 251.545 236.632C252.697 236.632 253.697 236.88 254.545 237.376C255.393 237.872 256.025 238.496 256.441 239.248V236.848H258.649V250H256.441V247.552C256.009 248.32 255.361 248.96 254.497 249.472C253.649 249.968 252.657 250.216 251.521 250.216C250.353 250.216 249.297 249.928 248.353 249.352C247.409 248.776 246.665 247.968 246.121 246.928C245.577 245.888 245.305 244.704 245.305 243.376ZM256.441 243.4C256.441 242.408 256.241 241.544 255.841 240.808C255.441 240.072 254.897 239.512 254.209 239.128C253.537 238.728 252.793 238.528 251.977 238.528C251.161 238.528 250.417 238.72 249.745 239.104C249.073 239.488 248.537 240.048 248.137 240.784C247.737 241.52 247.537 242.384 247.537 243.376C247.537 244.384 247.737 245.264 248.137 246.016C248.537 246.752 249.073 247.32 249.745 247.72C250.417 248.104 251.161 248.296 251.977 248.296C252.793 248.296 253.537 248.104 254.209 247.72C254.897 247.32 255.441 246.752 255.841 246.016C256.241 245.264 256.441 244.392 256.441 243.4ZM268.748 236.608C270.348 236.608 271.644 237.096 272.636 238.072C273.628 239.032 274.124 240.424 274.124 242.248V250H271.964V242.56C271.964 241.248 271.636 240.248 270.98 239.56C270.324 238.856 269.428 238.504 268.292 238.504C267.14 238.504 266.22 238.864 265.532 239.584C264.86 240.304 264.524 241.352 264.524 242.728V250H262.34V236.848H264.524V238.72C264.956 238.048 265.54 237.528 266.276 237.16C267.028 236.792 267.852 236.608 268.748 236.608ZM276.876 243.376C276.876 242.032 277.148 240.856 277.692 239.848C278.236 238.824 278.98 238.032 279.924 237.472C280.884 236.912 281.956 236.632 283.14 236.632C284.164 236.632 285.116 236.872 285.996 237.352C286.876 237.816 287.548 238.432 288.012 239.2V232.24H290.22V250H288.012V247.528C287.58 248.312 286.94 248.96 286.092 249.472C285.244 249.968 284.252 250.216 283.116 250.216C281.948 250.216 280.884 249.928 279.924 249.352C278.98 248.776 278.236 247.968 277.692 246.928C277.148 245.888 276.876 244.704 276.876 243.376ZM288.012 243.4C288.012 242.408 287.812 241.544 287.412 240.808C287.012 240.072 286.468 239.512 285.78 239.128C285.108 238.728 284.364 238.528 283.548 238.528C282.732 238.528 281.988 238.72 281.316 239.104C280.644 239.488 280.108 240.048 279.708 240.784C279.308 241.52 279.108 242.384 279.108 243.376C279.108 244.384 279.308 245.264 279.708 246.016C280.108 246.752 280.644 247.32 281.316 247.72C281.988 248.104 282.732 248.296 283.548 248.296C284.364 248.296 285.108 248.104 285.78 247.72C286.468 247.32 287.012 246.752 287.412 246.016C287.812 245.264 288.012 244.392 288.012 243.4ZM299.493 243.4C299.493 242.04 299.765 240.856 300.309 239.848C300.853 238.824 301.605 238.032 302.565 237.472C303.541 236.912 304.653 236.632 305.901 236.632C307.517 236.632 308.845 237.024 309.885 237.808C310.941 238.592 311.637 239.68 311.973 241.072H309.621C309.397 240.272 308.957 239.64 308.301 239.176C307.661 238.712 306.861 238.48 305.901 238.48C304.653 238.48 303.645 238.912 302.877 239.776C302.109 240.624 301.725 241.832 301.725 243.4C301.725 244.984 302.109 246.208 302.877 247.072C303.645 247.936 304.653 248.368 305.901 248.368C306.861 248.368 307.661 248.144 308.301 247.696C308.941 247.248 309.381 246.608 309.621 245.776H311.973C311.621 247.12 310.917 248.2 309.861 249.016C308.805 249.816 307.485 250.216 305.901 250.216C304.653 250.216 303.541 249.936 302.565 249.376C301.605 248.816 300.853 248.024 300.309 247C299.765 245.976 299.493 244.776 299.493 243.4ZM320.623 250.216C319.391 250.216 318.271 249.936 317.263 249.376C316.271 248.816 315.487 248.024 314.911 247C314.351 245.96 314.071 244.76 314.071 243.4C314.071 242.056 314.359 240.872 314.935 239.848C315.527 238.808 316.327 238.016 317.335 237.472C318.343 236.912 319.471 236.632 320.719 236.632C321.967 236.632 323.095 236.912 324.103 237.472C325.111 238.016 325.903 238.8 326.479 239.824C327.071 240.848 327.367 242.04 327.367 243.4C327.367 244.76 327.063 245.96 326.455 247C325.863 248.024 325.055 248.816 324.031 249.376C323.007 249.936 321.871 250.216 320.623 250.216ZM320.623 248.296C321.407 248.296 322.143 248.112 322.831 247.744C323.519 247.376 324.071 246.824 324.487 246.088C324.919 245.352 325.135 244.456 325.135 243.4C325.135 242.344 324.927 241.448 324.511 240.712C324.095 239.976 323.551 239.432 322.879 239.08C322.207 238.712 321.479 238.528 320.695 238.528C319.895 238.528 319.159 238.712 318.487 239.08C317.831 239.432 317.303 239.976 316.903 240.712C316.503 241.448 316.303 242.344 316.303 243.4C316.303 244.472 316.495 245.376 316.879 246.112C317.279 246.848 317.807 247.4 318.463 247.768C319.119 248.12 319.839 248.296 320.623 248.296ZM341.903 236.848V250H339.719V248.056C339.303 248.728 338.719 249.256 337.967 249.64C337.231 250.008 336.415 250.192 335.519 250.192C334.495 250.192 333.575 249.984 332.759 249.568C331.943 249.136 331.295 248.496 330.815 247.648C330.351 246.8 330.119 245.768 330.119 244.552V236.848H332.279V244.264C332.279 245.56 332.607 246.56 333.263 247.264C333.919 247.952 334.815 248.296 335.951 248.296C337.119 248.296 338.039 247.936 338.711 247.216C339.383 246.496 339.719 245.448 339.719 244.072V236.848H341.903ZM351.998 236.608C353.598 236.608 354.894 237.096 355.886 238.072C356.878 239.032 357.374 240.424 357.374 242.248V250H355.214V242.56C355.214 241.248 354.886 240.248 354.23 239.56C353.574 238.856 352.678 238.504 351.542 238.504C350.39 238.504 349.47 238.864 348.782 239.584C348.11 240.304 347.774 241.352 347.774 242.728V250H345.59V236.848H347.774V238.72C348.206 238.048 348.79 237.528 349.526 237.16C350.278 236.792 351.102 236.608 351.998 236.608ZM363.606 238.648V246.4C363.606 247.04 363.742 247.496 364.014 247.768C364.286 248.024 364.758 248.152 365.43 248.152H367.038V250H365.07C363.854 250 362.942 249.72 362.334 249.16C361.726 248.6 361.422 247.68 361.422 246.4V238.648H359.718V236.848H361.422V233.536H363.606V236.848H367.038V238.648H363.606ZM370.812 234.712C370.396 234.712 370.044 234.568 369.756 234.28C369.468 233.992 369.324 233.64 369.324 233.224C369.324 232.808 369.468 232.456 369.756 232.168C370.044 231.88 370.396 231.736 370.812 231.736C371.212 231.736 371.548 231.88 371.82 232.168C372.108 232.456 372.252 232.808 372.252 233.224C372.252 233.64 372.108 233.992 371.82 234.28C371.548 234.568 371.212 234.712 370.812 234.712ZM371.868 236.848V250H369.684V236.848H371.868ZM381.998 236.608C383.598 236.608 384.894 237.096 385.886 238.072C386.878 239.032 387.374 240.424 387.374 242.248V250H385.214V242.56C385.214 241.248 384.886 240.248 384.23 239.56C383.574 238.856 382.678 238.504 381.542 238.504C380.39 238.504 379.47 238.864 378.782 239.584C378.11 240.304 377.774 241.352 377.774 242.728V250H375.59V236.848H377.774V238.72C378.206 238.048 378.79 237.528 379.526 237.16C380.278 236.792 381.102 236.608 381.998 236.608ZM396.366 236.632C397.502 236.632 398.494 236.88 399.342 237.376C400.206 237.872 400.846 238.496 401.262 239.248V236.848H403.47V250.288C403.47 251.488 403.214 252.552 402.702 253.48C402.19 254.424 401.454 255.16 400.494 255.688C399.55 256.216 398.446 256.48 397.182 256.48C395.454 256.48 394.014 256.072 392.862 255.256C391.71 254.44 391.03 253.328 390.822 251.92H392.982C393.222 252.72 393.718 253.36 394.47 253.84C395.222 254.336 396.126 254.584 397.182 254.584C398.382 254.584 399.358 254.208 400.11 253.456C400.878 252.704 401.262 251.648 401.262 250.288V247.528C400.83 248.296 400.19 248.936 399.342 249.448C398.494 249.96 397.502 250.216 396.366 250.216C395.198 250.216 394.134 249.928 393.174 249.352C392.23 248.776 391.486 247.968 390.942 246.928C390.398 245.888 390.126 244.704 390.126 243.376C390.126 242.032 390.398 240.856 390.942 239.848C391.486 238.824 392.23 238.032 393.174 237.472C394.134 236.912 395.198 236.632 396.366 236.632ZM401.262 243.4C401.262 242.408 401.062 241.544 400.662 240.808C400.262 240.072 399.718 239.512 399.03 239.128C398.358 238.728 397.614 238.528 396.798 238.528C395.982 238.528 395.238 238.72 394.566 239.104C393.894 239.488 393.358 240.048 392.958 240.784C392.558 241.52 392.358 242.384 392.358 243.376C392.358 244.384 392.558 245.264 392.958 246.016C393.358 246.752 393.894 247.32 394.566 247.72C395.238 248.104 395.982 248.296 396.798 248.296C397.614 248.296 398.358 248.104 399.03 247.72C399.718 247.32 400.262 246.752 400.662 246.016C401.062 245.264 401.262 244.392 401.262 243.4Z" fill="black" fill-opacity="0.89"/>
<defs>
<filter id="filter0_d_1899_1637" x="108.8" y="104.28" width="330.48" height="96.6802" filterUnits="userSpaceOnUse" color-interpolation-filters="sRGB">
<feFlood flood-opacity="0" result="BackgroundImageFix"/>
<feColorMatrix in="SourceAlpha" type="matrix" values="0 0 0 0 0 0 0 0 0 0 0 0 0 0 0 0 0 0 127 0" result="hardAlpha"/>
<feOffset dy="4"/>
<feGaussianBlur stdDeviation="2"/>
<feComposite in2="hardAlpha" operator="out"/>
<feColorMatrix type="matrix" values="0 0 0 0 0 0 0 0 0 0 0 0 0 0 0 0 0 0 0.25 0"/>
<feBlend mode="normal" in2="BackgroundImageFix" result="effect1_dropShadow_1899_1637"/>
<feBlend mode="normal" in="SourceGraphic" in2="effect1_dropShadow_1899_1637" result="shape"/>
</filter>
</defs>
</svg>
