<svg width="1440" height="471" viewBox="0 0 1440 471" fill="none" xmlns="http://www.w3.org/2000/svg">
<path d="M786.931 145.371C771.731 167.371 804.264 237.538 822.431 269.871L1166.43 240.871L1156.93 106.371L1127.43 65.8712C1115.93 63.7045 1090.03 60.6712 1078.43 65.8712C1066.83 71.0712 1060.93 90.3712 1059.43 99.3712C1054.43 95.8712 1041.13 88.2712 1027.93 85.8712C1014.73 83.4712 980.431 98.5379 964.931 106.371C952.431 96.0379 923.631 75.3712 908.431 75.3712C893.231 75.3712 884.097 96.0379 881.431 106.371C879.597 96.0379 871.931 75.3712 855.931 75.3712C835.931 75.3712 805.931 117.871 786.931 145.371Z" fill="#587A68"/>
<path d="M1131.93 112.371C1116.73 134.371 1149.26 204.538 1167.43 236.871L1511.43 207.871L1501.93 73.3712L1472.43 32.8712C1460.93 30.7045 1435.03 27.6712 1423.43 32.8712C1411.83 38.0712 1405.93 57.3712 1404.43 66.3712C1399.43 62.8712 1386.13 55.2712 1372.93 52.8712C1359.73 50.4712 1325.43 65.5379 1309.93 73.3712C1297.43 63.0379 1268.63 42.3712 1253.43 42.3712C1238.23 42.3712 1229.1 63.0379 1226.43 73.3712C1224.6 63.0379 1216.93 42.3712 1200.93 42.3712C1180.93 42.3712 1150.93 84.8712 1131.93 112.371Z" fill="#587A68"/>
<path d="M1399 124L1452.5 30V357.5L1018 341.5L1028 233.5L1033.5 192.5C1033.83 185.333 1035.7 169.8 1040.5 165C1045.3 160.2 1054.5 158.667 1058.5 158.5C1058.5 156.167 1061.4 150.6 1073 147C1084.6 143.4 1096.83 153.167 1101.5 158.5L1115 177C1117.83 173 1125.2 165 1132 165C1138.8 165 1144.83 169 1147 171C1147.17 166.833 1149.1 157.1 1155.5 151.5C1161.9 145.9 1170.5 146.167 1174 147C1173.5 141.5 1174.5 129.2 1182.5 124C1190.5 118.8 1200.17 126.167 1204 130.5C1205 125.667 1208.6 113.5 1215 103.5C1221.4 93.5 1233.67 107.667 1239 116C1242.5 111.833 1250.9 100.7 1256.5 89.5C1263.5 75.5 1293 89.5 1301 103.5C1307.4 114.7 1318.67 126.167 1323.5 130.5C1328.17 135.833 1337 150.2 1335 165C1333 179.8 1326.5 189.5 1323.5 192.5L1301 204L1323.5 241.5H1367L1399 210.5H1374L1399 165H1383L1416 124H1399Z" fill="#476555"/>
<path d="M388.561 136.968L442 50V353L8 338.197L17.9885 238.276L23.4822 200.344C23.8151 193.713 25.6796 179.342 30.4741 174.901C35.2686 170.46 44.458 169.041 48.4534 168.887C48.4534 166.728 51.3501 161.578 62.9368 158.247C74.5234 154.917 86.7427 163.953 91.404 168.887L104.888 186.003C107.719 182.302 115.077 174.901 121.869 174.901C128.661 174.901 134.688 178.602 136.852 180.452C137.018 176.597 138.949 167.592 145.342 162.411C151.735 157.23 160.324 157.476 163.82 158.247C163.321 153.159 164.32 141.779 172.31 136.968C180.301 132.157 189.957 138.973 193.786 142.982C194.785 138.51 198.38 127.253 204.773 118.002C211.166 108.75 223.418 121.856 228.745 129.566C232.241 125.711 240.632 115.411 246.225 105.049C253.217 92.0962 282.683 105.049 290.674 118.002C297.067 128.364 308.321 138.973 313.148 142.982C317.81 147.916 326.633 161.208 324.635 174.901C322.637 188.594 316.145 197.568 313.148 200.344L290.674 210.983L313.148 245.678H356.598L388.561 216.997H363.59L388.561 174.901H372.58L405.542 136.968H388.561Z" fill="#476555"/>
<path d="M913 105L966.5 11V338.5L532 322.5L542 214.5L547.5 173.5C547.833 166.333 549.7 150.8 554.5 146C559.3 141.2 568.5 139.667 572.5 139.5C572.5 137.167 575.4 131.6 587 128C598.6 124.4 610.833 134.167 615.5 139.5L629 158C631.833 154 639.2 146 646 146C652.8 146 658.833 150 661 152C661.167 147.833 663.1 138.1 669.5 132.5C675.9 126.9 684.5 127.167 688 128C687.5 122.5 688.5 110.2 696.5 105C704.5 99.8 714.166 107.167 718 111.5C719 106.667 722.6 94.5 729 84.5C735.4 74.5 747.666 88.6667 753 97C756.5 92.8333 764.9 81.7 770.5 70.5C777.5 56.5 807 70.5 815 84.5C821.4 95.7 832.666 107.167 837.5 111.5C842.166 116.833 851 131.2 849 146C847 160.8 840.5 170.5 837.5 173.5L815 185L837.5 222.5H881L913 191.5H888L913 146H897L930 105H913Z" fill="#476555"/>
<path d="M349.405 104.144L409 10V338L-75 321.976L-63.8607 213.811L-57.7342 172.748C-57.3629 165.57 -55.2835 150.013 -49.9367 145.206C-44.5898 140.399 -34.3417 138.863 -29.886 138.696C-29.886 136.359 -26.6556 130.784 -13.7341 127.179C-0.812576 123.573 12.8144 133.355 18.0128 138.696L33.0507 157.224C36.2069 153.218 44.4128 145.206 51.9875 145.206C59.5622 145.206 66.2829 149.212 68.6964 151.215C68.882 147.042 71.0356 137.294 78.1647 131.685C85.2938 126.077 94.8733 126.344 98.7718 127.179C98.2149 121.67 99.3288 109.351 108.24 104.144C117.152 98.9356 127.92 106.313 132.19 110.653C133.304 105.813 137.314 93.6275 144.443 83.6122C151.572 73.5969 165.236 87.7852 171.177 96.1313C175.076 91.9583 184.433 80.8079 190.671 69.5908C198.468 55.5695 231.329 69.5908 240.24 83.6122C247.369 94.8293 259.92 106.313 265.304 110.653C270.502 115.995 280.342 130.384 278.114 145.206C275.886 160.029 268.645 169.744 265.304 172.748L291.481 186.269L265.304 221.823H313.759L349.405 190.776H321.557L349.405 145.206H331.582L368.342 104.144H349.405Z" fill="#476555"/>
<path d="M468.595 105.144L409 11V339L893 322.976L881.861 214.811L875.734 173.748C875.363 166.57 873.284 151.013 867.937 146.206C862.59 141.399 852.342 139.863 847.886 139.696C847.886 137.359 844.656 131.784 831.734 128.179C818.813 124.573 805.186 134.355 799.987 139.696L784.949 158.224C781.793 154.218 773.587 146.206 766.013 146.206C758.438 146.206 751.717 150.212 749.304 152.215C749.118 148.042 746.964 138.294 739.835 132.685C732.706 127.077 723.127 127.344 719.228 128.179C719.785 122.67 718.671 110.351 709.76 105.144C700.848 99.9356 690.08 107.313 685.81 111.653C684.696 106.813 680.686 94.6275 673.557 84.6122C666.428 74.5969 652.764 88.7852 646.823 97.1313C642.924 92.9583 633.567 81.8079 627.329 70.5908C619.532 56.5695 586.671 70.5908 577.76 84.6122C570.631 95.8293 558.08 107.313 552.696 111.653C547.498 116.995 537.658 131.384 539.886 146.206C542.114 161.029 549.355 170.744 552.696 173.748L526.519 187.269L552.696 222.823H504.241L468.595 191.776H496.443L468.595 146.206H486.418L449.658 105.144H468.595Z" fill="#476555"/>
<path d="M1024.73 104.856L966 11V338L1443 322.024L1432.02 214.189L1425.98 173.252C1425.62 166.096 1423.57 150.587 1418.3 145.794C1413.03 141.001 1402.93 139.47 1398.54 139.304C1398.54 136.974 1395.35 131.416 1382.62 127.821C1369.89 124.227 1356.46 133.979 1351.33 139.304L1336.51 157.776C1333.4 153.782 1325.31 145.794 1317.85 145.794C1310.38 145.794 1303.76 149.788 1301.38 151.785C1301.2 147.624 1299.08 137.906 1292.05 132.315C1285.02 126.723 1275.58 126.989 1271.74 127.821C1272.29 122.33 1271.19 110.049 1262.41 104.856C1253.63 99.6644 1243.02 107.02 1238.81 111.347C1237.71 106.521 1233.76 94.3725 1226.73 84.3878C1219.71 74.4031 1206.24 88.5481 1200.38 96.8687C1196.54 92.7084 1187.32 81.5921 1181.17 70.4092C1173.49 56.4305 1141.1 70.4092 1132.32 84.3878C1125.29 95.5707 1112.92 107.02 1107.62 111.347C1102.49 116.672 1092.8 131.016 1094.99 145.794C1097.19 160.571 1104.32 170.256 1107.62 173.252L1132.32 184.734L1107.62 222.177H1059.86L1024.73 191.224H1052.18L1024.73 145.794H1042.3L1006.07 104.856H1024.73Z" fill="#476555"/>
<path d="M1497 365H-19V208H61.5L76 183H118.5L189 208L216.5 158H266.5H316.5L373.145 208L445.439 273.417L548.405 253.197L584.552 227.03H690.803L726.951 273.417H780.624L799.246 208H910.974L983.269 253.197L1070.9 208H1167.29L1228.63 253.197L1291.07 208H1436.75L1497 365Z" fill="#4A3859"/>
</svg>
