<svg width="725" height="212" viewBox="0 0 725 212" fill="none" xmlns="http://www.w3.org/2000/svg">
<path d="M701.902 60.552L725 23V211L429 202.023L436.163 131.775L440.102 105.107C440.341 100.446 441.678 90.3421 445.116 87.22C448.554 84.0979 455.144 83.1006 458.009 82.9922C458.009 81.4745 460.087 77.8537 468.395 75.5121C476.704 73.1705 485.467 79.5231 488.809 82.9922L498.479 95.0253C500.509 92.4235 505.785 87.22 510.656 87.22C515.526 87.22 519.848 89.8218 521.4 91.1227C521.519 88.4125 522.904 82.0815 527.488 78.4391C532.073 74.7966 538.232 74.9701 540.739 75.5121C540.381 71.9347 541.097 63.9343 546.828 60.552C552.558 57.1697 559.482 61.9613 562.228 64.7798C562.944 61.636 565.522 53.7224 570.107 47.218C574.691 40.7136 583.477 49.9281 587.297 55.3485C589.804 52.6383 595.821 45.3967 599.832 38.1118C604.846 29.0057 625.976 38.1118 631.707 47.218C636.291 54.5029 644.361 61.9613 647.823 64.7798C651.166 68.2489 657.493 77.5935 656.06 87.22C654.628 96.8465 649.972 103.156 647.823 105.107L631.707 112.587L647.823 136.979H678.981L701.902 116.815H683.995L701.902 87.22H690.441L714.079 60.552H701.902Z" fill="#476555"/>
<path d="M296.428 60.8489L339 0V212L0 202.04V144.416L5.58762 105.191C5.85286 100.552 7.33823 90.4965 11.1578 87.3893C14.9773 84.2821 22.298 83.2896 25.481 83.1817C25.481 81.6712 27.7886 78.0678 37.0191 75.7374C46.2496 73.407 55.9841 79.7293 59.6976 83.1817L70.44 95.1573C72.6946 92.5679 78.5565 87.3893 83.9675 87.3893C89.3785 87.3893 94.1794 89.9786 95.9035 91.2733C96.0361 88.5761 97.5745 82.2754 102.667 78.6504C107.76 75.0253 114.603 75.198 117.388 75.7374C116.99 72.1771 117.786 64.215 124.152 60.8489C130.518 57.4827 138.21 62.2514 141.26 65.0565C142.056 61.9277 144.92 54.0519 150.013 47.5786C155.106 41.1053 164.867 50.2758 169.111 55.6702C171.896 52.973 178.58 45.7661 183.036 38.516C188.606 29.4534 212.08 38.516 218.446 47.5786C223.539 54.8287 232.504 62.2514 236.35 65.0565C240.064 68.5089 247.093 77.8089 245.501 87.3893C243.91 96.9698 238.737 103.249 236.35 105.191L255.05 113.93L236.35 136.91H270.965L296.428 116.843H276.535L296.428 87.3893H283.696L309.956 60.8489H296.428Z" fill="#476555"/>
<path d="M381.972 60.8489L339 0V212L688 201.643L679.968 131.731L675.55 105.191C675.282 100.552 673.783 90.4965 669.927 87.3893C666.072 84.2821 658.682 83.2896 655.469 83.1817C655.469 81.6712 653.14 78.0678 643.823 75.7374C634.505 73.407 624.679 79.7293 620.931 83.1817L610.087 95.1573C607.812 92.5679 601.895 87.3893 596.433 87.3893C590.971 87.3893 586.125 89.9786 584.384 91.2733C584.25 88.5761 582.697 82.2754 577.557 78.6504C572.416 75.0253 565.509 75.198 562.698 75.7374C563.099 72.1771 562.296 64.215 555.87 60.8489C549.444 57.4827 541.68 62.2514 538.601 65.0565C537.798 61.9277 534.906 54.0519 529.765 47.5786C524.625 41.1053 514.772 50.2758 510.488 55.6702C507.677 52.973 500.93 45.7661 496.432 38.516C490.809 29.4534 467.114 38.516 460.688 47.5786C455.548 54.8287 446.498 62.2514 442.616 65.0565C438.867 68.5089 431.772 77.8089 433.379 87.3893C434.985 96.9698 440.206 103.249 442.616 105.191L423.74 113.93L442.616 136.91H407.676L381.972 116.843H402.053L381.972 87.3893H394.824L368.318 60.8489H381.972Z" fill="#476555"/>
</svg>
