<svg width="428" height="300" viewBox="0 0 428 300" fill="none" xmlns="http://www.w3.org/2000/svg">
<path d="M414.344 42.7664L437 0V149L253 141.721L257.235 92.5847L259.564 73.9313C259.705 70.6707 260.496 63.6037 262.528 61.4198C264.561 59.236 268.457 58.5384 270.151 58.4626C270.151 57.401 271.379 54.8684 276.291 53.2305C281.203 51.5927 286.384 56.0361 288.36 58.4626L294.077 66.8794C295.277 65.0595 298.397 61.4198 301.276 61.4198C304.156 61.4198 306.711 63.2397 307.628 64.1496C307.699 62.2539 308.518 57.8256 311.228 55.2779C313.938 52.7301 317.58 52.8514 319.062 53.2305C318.85 50.7282 319.274 45.1322 322.662 42.7664C326.049 40.4006 330.143 43.7522 331.766 45.7237C332.19 43.5247 333.714 37.9893 336.425 33.4397C339.135 28.8901 344.329 35.3354 346.588 39.1267C348.07 37.231 351.627 32.1658 353.999 27.0702C356.963 20.7008 369.456 27.0702 372.843 33.4397C375.554 38.5353 380.325 43.7522 382.372 45.7237C384.348 48.1501 388.089 54.6864 387.242 61.4198C386.395 68.1533 383.642 72.5664 382.372 73.9313L372.843 79.1634L382.372 96.2244H400.793L414.344 82.1206H403.757L414.344 61.4198H407.568L421.543 42.7664H414.344Z" fill="#476555"/>
<path d="M174.758 42.7664L200 0V149L-5 141.721L-0.281929 92.5847L2.31301 73.9313C2.47028 70.6707 3.35099 63.6037 5.61566 61.4198C7.88034 59.236 12.221 58.5384 14.1082 58.4626C14.1082 57.401 15.4764 54.8684 20.9494 53.2305C26.4224 51.5927 32.1941 56.0361 34.3959 58.4626L40.7653 66.8794C42.1021 65.0595 45.5777 61.4198 48.786 61.4198C51.9943 61.4198 54.8409 63.2397 55.8631 64.1496C55.9418 62.2539 56.8539 57.8256 59.8735 55.2779C62.8931 52.7301 66.9504 52.8514 68.6017 53.2305C68.3658 50.7282 68.8376 45.1322 72.6121 42.7664C76.3865 40.4006 80.9473 43.7522 82.7559 45.7237C83.2277 43.5247 84.9262 37.9893 87.9458 33.4397C90.9654 28.8901 96.7529 35.3354 99.2692 39.1267C100.92 37.231 104.884 32.1658 107.526 27.0702C110.828 20.7008 124.747 27.0702 128.521 33.4397C131.541 38.5353 136.856 43.7522 139.137 45.7237C141.339 48.1501 145.506 54.6864 144.563 61.4198C143.619 68.1533 140.552 72.5664 139.137 73.9313L150.225 80.0733L139.137 96.2244H159.66L174.758 82.1206H162.963L174.758 61.4198H167.209L182.779 42.7664H174.758Z" fill="#476555"/>
<path d="M225.365 42.7664L200 0V149L406 141.721L401.259 92.5847L398.651 73.9313C398.493 70.6707 397.608 63.6037 395.333 61.4198C393.057 59.236 388.695 58.5384 386.799 58.4626C386.799 57.401 385.424 54.8684 379.924 53.2305C374.424 51.5927 368.624 56.0361 366.412 58.4626L360.011 66.8794C358.668 65.0595 355.176 61.4198 351.952 61.4198C348.728 61.4198 345.867 63.2397 344.84 64.1496C344.761 62.2539 343.844 57.8256 340.81 55.2779C337.776 52.7301 333.699 52.8514 332.039 53.2305C332.276 50.7282 331.802 45.1322 328.009 42.7664C324.216 40.4006 319.633 43.7522 317.816 45.7237C317.342 43.5247 315.635 37.9893 312.601 33.4397C309.567 28.8901 303.751 35.3354 301.222 39.1267C299.563 37.231 295.58 32.1658 292.925 27.0702C289.607 20.7008 275.62 27.0702 271.827 33.4397C268.793 38.5353 263.452 43.7522 261.16 45.7237C258.948 48.1501 254.76 54.6864 255.708 61.4198C256.656 68.1533 259.738 72.5664 261.16 73.9313L250.018 80.0733L261.16 96.2244H240.536L225.365 82.1206H237.218L225.365 61.4198H232.951L217.305 42.7664H225.365Z" fill="#476555"/>
<path d="M428 300H-1V93.3359H22.4977L26.7302 81.1679H39.1358L59.7146 93.3359L67.7417 69H82.3366H96.9314L113.466 93.3359L134.568 125.175L164.624 115.334L175.175 102.598H206.189L216.741 125.175H232.408L237.843 93.3359H270.457L291.559 115.334L317.138 93.3359H345.275L363.18 115.334L381.405 93.3359H428V300Z" fill="#4A3859"/>
</svg>
