<?xml version="1.0" encoding="UTF-8"?>
<svg version="1.1" viewBox="0 0 236.9 65.32" xmlns="http://www.w3.org/2000/svg">
<mask x="88" y="5" width="235" height="61" fill="#000000" maskUnits="userSpaceOnUse">
<rect x="88" y="5" width="235" height="61" fill="#fff"/>
<path d="m108.96 31.285c0.078 0.013 0.156 0.0195 0.234 0.0195h0.274c1.132 0 2.2-0.2409 3.203-0.7227 1.015-0.4948 1.901-1.1198 2.656-1.875s1.348-1.595 1.777-2.5195c0.443-0.9245 0.664-1.8229 0.664-2.6953 0-0.625-0.117-1.2175-0.351-1.7774-0.221-0.5599-0.58-1.0481-1.074-1.4648-0.482-0.4167-1.107-0.7487-1.875-0.9961-0.756-0.2474-1.661-0.3711-2.715-0.3711-1.185 0-2.207 0.1107-3.067 0.332-0.846 0.2214-1.582 0.5079-2.207 0.8594-0.612 0.3516-1.132 0.7552-1.562 1.211-0.417 0.4557-0.781 0.9244-1.094 1.4062-0.299 0.4818-0.573 0.9505-0.82 1.4063-0.248 0.4557-0.508 0.8593-0.781 1.2109-0.261 0.3516-0.554 0.638-0.879 0.8594-0.326 0.2213-0.73 0.332-1.211 0.332-0.6513 0-1.1396-0.1628-1.4651-0.4883-0.3255-0.3385-0.4883-0.8073-0.4883-1.4062 0-0.5599 0.1497-1.1654 0.4492-1.8164 0.3125-0.6511 0.7487-1.3021 1.3086-1.9532 0.5726-0.651 1.2696-1.276 2.0896-1.875 0.821-0.6119 1.739-1.1458 2.754-1.6015 1.029-0.4688 2.149-0.8399 3.36-1.1133 1.21-0.2865 2.493-0.4297 3.847-0.4297 1.328 0 2.598 0.1693 3.809 0.5078 1.224 0.3386 2.304 0.8464 3.242 1.5235 0.937 0.664 1.68 1.5039 2.227 2.5195 0.559 1.0156 0.839 2.2005 0.839 3.5547 0 0.9114-0.169 1.7838-0.507 2.6172-0.326 0.8203-0.769 1.595-1.329 2.3242-0.559 0.7161-1.217 1.3802-1.972 1.9922-0.742 0.5989-1.537 1.1328-2.383 1.6015-0.846 0.4688-1.719 0.8659-2.617 1.1914-0.886 0.3256-1.745 0.5599-2.578 0.7032 0.117 0.6119 0.306 1.302 0.566 2.0703 0.273 0.7552 0.599 1.4778 0.977 2.1679 0.39 0.6771 0.82 1.2566 1.289 1.7383 0.468 0.4818 0.963 0.7422 1.484 0.7813 0.104 0.013 0.202 0.0195 0.293 0.0195h0.273c0.951 0 1.797-0.1562 2.54-0.4687 0.742-0.3125 1.36-0.6576 1.855-1.0352 0.586-0.4297 1.094-0.931 1.523-1.5039 0.404-0.4557 0.814-0.6836 1.231-0.6836 0.26 0 0.482 0.0911 0.664 0.2734s0.273 0.4297 0.273 0.7422c0 0.2995-0.097 0.6511-0.293 1.0547-0.182 0.3906-0.501 0.8008-0.957 1.2305-1.341 1.263-2.656 2.1875-3.945 2.7734-1.276 0.5729-2.487 0.8594-3.633 0.8594-0.937 0-1.803-0.2669-2.597-0.8008-0.795-0.5338-1.517-1.2565-2.168-2.168-0.651-0.9114-1.244-1.9726-1.778-3.1835-0.534-1.224-1.009-2.5131-1.425-3.8672-0.235 0.5338-0.476 1.1653-0.723 1.8945-0.248 0.7161-0.514 1.4583-0.801 2.2266-0.286 0.7682-0.586 1.5299-0.898 2.2851-0.313 0.7422-0.658 1.4128-1.035 2.0117-0.378 0.586-0.782 1.0612-1.211 1.4258-0.43 0.3646-0.899 0.5469-1.407 0.5469-0.416 0-0.755-0.0651-1.0153-0.1953-0.2604-0.1302-0.4623-0.293-0.6055-0.4883s-0.2474-0.4102-0.3125-0.6445c-0.0521-0.2344-0.0781-0.4558-0.0781-0.6641 0-0.2995 0.0391-0.6055 0.1172-0.918s0.1888-0.6054 0.332-0.8789l5.7622-10.547c0.494-0.8854 0.989-1.7382 1.484-2.5585 0.508-0.8334 0.996-1.5691 1.465-2.2071 0.482-0.638 0.931-1.1458 1.347-1.5234 0.43-0.3906 0.814-0.586 1.153-0.586 0.091 0 0.202 0.0196 0.332 0.0586 0.13 0.0261 0.247 0.0847 0.351 0.1758 0.105 0.0782 0.196 0.2018 0.274 0.3711 0.078 0.1563 0.117 0.3581 0.117 0.6055s-0.072 0.5924-0.215 1.0351c-0.143 0.4428-0.332 0.9506-0.566 1.5235-0.235 0.5729-0.508 1.2044-0.821 1.8945-0.312 0.6771-0.638 1.3737-0.976 2.0899zm20.137 1.1914c-0.066-0.0131-0.124-0.0196-0.176-0.0196h-0.176c-0.495 0-0.957 0.0977-1.387 0.293-0.429 0.1953-0.827 0.4557-1.191 0.7812-0.352 0.3126-0.671 0.6706-0.957 1.0743-0.274 0.4036-0.521 0.8073-0.742 1.2109-0.222 0.3906-0.411 0.7682-0.567 1.1328-0.143 0.3646-0.254 0.6706-0.332 0.918 0.456-0.2344 0.925-0.5013 1.406-0.8008 0.495-0.2995 0.958-0.5859 1.387-0.8594 0.43-0.2734 0.801-0.5208 1.113-0.7422 0.326-0.2213 0.554-0.371 0.684-0.4492 0.586-0.3646 0.99-0.7031 1.211-1.0156 0.221-0.3255 0.332-0.6055 0.332-0.8398 0-0.1954-0.065-0.3516-0.195-0.4688-0.117-0.1172-0.254-0.1888-0.41-0.2148zm0.703-2.6954c1.08 0 1.888 0.2605 2.422 0.7813 0.533 0.5208 0.8 1.2435 0.8 2.168 0 0.5468-0.143 1.1198-0.429 1.7187-0.287 0.599-0.782 1.211-1.485 1.836-0.703 0.6119-1.647 1.2434-2.832 1.8945-1.172 0.638-2.643 1.2825-4.414 1.9336 0.065 0.3776 0.267 0.6771 0.606 0.8984 0.338 0.2084 0.787 0.3125 1.347 0.3125 0.599 0 1.237-0.0846 1.914-0.2539 0.69-0.1823 1.368-0.4101 2.032-0.6836 0.677-0.2734 1.334-0.5664 1.972-0.8789 0.638-0.3255 1.211-0.6315 1.719-0.918 0.521-0.2864 0.951-0.5338 1.289-0.7421 0.352-0.2084 0.586-0.3386 0.703-0.3907 0.117-0.0781 0.222-0.1237 0.313-0.1367 0.104-0.013 0.195-0.0195 0.273-0.0195 0.156 0 0.287 0.039 0.391 0.1172 0.104 0.0651 0.189 0.1497 0.254 0.2539 0.078 0.0911 0.13 0.1953 0.156 0.3125 0.026 0.1041 0.039 0.1953 0.039 0.2734 0 0.1172-0.013 0.2604-0.039 0.4297-0.026 0.1563-0.124 0.3385-0.293 0.5469-0.065 0.0651-0.286 0.2409-0.664 0.5273-0.365 0.2865-0.84 0.625-1.426 1.0156-0.586 0.3907-1.269 0.8073-2.051 1.25-0.768 0.4297-1.588 0.8269-2.461 1.1915-0.859 0.3645-1.757 0.664-2.695 0.8984-0.937 0.2474-1.862 0.3711-2.773 0.3711-0.782 0-1.478-0.1498-2.09-0.4492-0.599-0.2995-1.113-0.7032-1.543-1.211-0.417-0.5078-0.736-1.0937-0.957-1.7578-0.222-0.6641-0.332-1.3607-0.332-2.0898 0-0.5599 0.11-1.1719 0.332-1.836 0.221-0.6771 0.54-1.3541 0.957-2.0312s0.924-1.3347 1.523-1.9727c0.612-0.651 1.296-1.2239 2.051-1.7187s1.582-0.892 2.481-1.1914c0.911-0.2995 1.881-0.4493 2.91-0.4493zm14.043 0.0196c0.573 0 1.074 0.0716 1.504 0.2148 0.429 0.1433 0.794 0.2995 1.093 0.4688 0.339 0.2083 0.638 0.4362 0.899 0.6836 0.182-0.1172 0.377-0.2279 0.586-0.3321 0.182-0.0911 0.384-0.1692 0.605-0.2343 0.222-0.0782 0.443-0.1172 0.664-0.1172 0.573 0 1.016 0.1172 1.328 0.3515 0.313 0.2344 0.469 0.5144 0.469 0.8399 0 0.1693-0.045 0.3385-0.137 0.5078l-4.57 8.6523 0.371-0.332c1.537-0.8984 2.8-1.6016 3.789-2.1094 0.99-0.5208 1.778-0.9049 2.363-1.1523 0.586-0.2474 1.003-0.3971 1.25-0.4492 0.261-0.0651 0.424-0.0977 0.489-0.0977 0.299 0 0.527 0.1172 0.683 0.3516 0.17 0.2213 0.254 0.5013 0.254 0.8398 0 0.3776-0.11 0.7617-0.332 1.1524-0.208 0.3906-0.534 0.6705-0.976 0.8398-0.586 0.2995-1.27 0.625-2.051 0.9766-0.781 0.3385-1.595 0.7161-2.441 1.1328-0.847 0.4166-1.7 0.8854-2.559 1.4062-0.846 0.5078-1.641 1.0743-2.383 1.6993l-3.789 6.8554c-0.312 0.7422-0.599 1.3477-0.859 1.8164-0.248 0.4688-0.495 0.8399-0.743 1.1133-0.247 0.2734-0.501 0.4622-0.761 0.5664-0.261 0.1042-0.56 0.1563-0.899 0.1563-0.507 0-0.911-0.1758-1.211-0.5274-0.286-0.3515-0.429-0.7747-0.429-1.2695 0-0.5208 0.123-1.1263 0.371-1.8164 0.247-0.6901 0.592-1.4388 1.035-2.2461 0.456-0.7943 1.003-1.6341 1.641-2.5195 0.638-0.8724 1.347-1.7644 2.128-2.6758l2.422-3.086c-0.494 0.4558-0.983 0.8464-1.464 1.1719-0.482 0.3255-0.945 0.5925-1.387 0.8008-0.443 0.1953-0.86 0.3385-1.25 0.4297-0.378 0.0911-0.71 0.1367-0.996 0.1367-0.521 0-1.003-0.1172-1.446-0.3516-0.442-0.2474-0.826-0.5859-1.152-1.0156-0.312-0.4297-0.56-0.9375-0.742-1.5234-0.182-0.586-0.274-1.224-0.274-1.9141 0-1.4323 0.274-2.7279 0.821-3.8867 0.56-1.1589 1.269-2.1419 2.129-2.9492 0.872-0.8203 1.829-1.4518 2.871-1.8946 1.054-0.4427 2.083-0.664 3.086-0.664zm-0.743 3.4375c-0.612 0-1.204 0.1562-1.777 0.4687-0.573 0.2995-1.081 0.7032-1.523 1.211-0.443 0.4948-0.795 1.0677-1.055 1.7187-0.26 0.6511-0.391 1.3216-0.391 2.0117 0 0.2084 0.013 0.4362 0.039 0.6836 0.04 0.2344 0.111 0.4558 0.215 0.6641 0.117 0.2083 0.28 0.3841 0.489 0.5273 0.221 0.1302 0.52 0.1954 0.898 0.1954 0.273 0 0.592-0.1172 0.957-0.3516 0.378-0.2474 0.762-0.5534 1.152-0.918 0.404-0.3776 0.795-0.7877 1.172-1.2304 0.378-0.4558 0.716-0.8985 1.016-1.3282 0.312-0.4297 0.56-0.8138 0.742-1.1523 0.182-0.3516 0.273-0.612 0.273-0.7813 0-0.2864-0.078-0.5338-0.234-0.7422-0.156-0.2213-0.351-0.4036-0.586-0.5468-0.221-0.1433-0.462-0.2474-0.722-0.3125-0.248-0.0782-0.469-0.1172-0.665-0.1172zm14.825-6.1328c0-0.2995 0.052-0.6055 0.156-0.918 0.117-0.3255 0.286-0.6185 0.508-0.8789 0.221-0.2604 0.495-0.4753 0.82-0.6445 0.339-0.1693 0.736-0.2539 1.191-0.2539 0.756 0 1.283 0.1497 1.583 0.4492 0.299 0.2864 0.449 0.651 0.449 1.0937 0 0.2474-0.052 0.5209-0.157 0.8203-0.091 0.2995-0.234 0.5795-0.429 0.8399-0.196 0.2474-0.449 0.4557-0.762 0.625-0.312 0.1693-0.684 0.2539-1.113 0.2539-0.808 0-1.374-0.1237-1.699-0.3711-0.326-0.2604-0.508-0.599-0.547-1.0156zm-2.149 4.3945c0.222-0.3646 0.476-0.625 0.762-0.7812 0.286-0.1563 0.579-0.2344 0.879-0.2344 0.495 0 0.918 0.1627 1.269 0.4883 0.365 0.3125 0.547 0.7161 0.547 1.2109-0.013 0.1172-0.032 0.2344-0.058 0.3516-0.013 0.1171-0.052 0.2343-0.118 0.3515-0.182 0.3386-0.332 0.625-0.449 0.8594s-0.228 0.4557-0.332 0.6641l-0.273 0.5859c-0.091 0.1953-0.202 0.4297-0.332 0.7031-0.156 0.3255-0.332 0.6836-0.528 1.0742-0.195 0.3776-0.384 0.7683-0.566 1.1719-0.169 0.4037-0.319 0.8008-0.449 1.1914-0.117 0.3906-0.176 0.7487-0.176 1.0742 0 0.3516 0.085 0.586 0.254 0.7032 0.182 0.1041 0.436 0.1562 0.762 0.1562 0.364 0 0.742-0.0781 1.132-0.2344 0.404-0.1562 0.808-0.358 1.211-0.6054 0.404-0.2474 0.801-0.5274 1.192-0.8399 0.39-0.3255 0.755-0.651 1.094-0.9765 0.351-0.3256 0.67-0.6381 0.957-0.9375 0.299-0.2995 0.546-0.5664 0.742-0.8008 0.26-0.2474 0.521-0.3711 0.781-0.3711 0.234 0 0.423 0.1042 0.566 0.3125 0.157 0.2083 0.235 0.4752 0.235 0.8008 0 0.2994-0.078 0.6185-0.235 0.957-0.143 0.3385-0.384 0.6576-0.722 0.957-0.664 0.6771-1.341 1.3282-2.031 1.9532-0.691 0.6119-1.4 1.1588-2.129 1.6406-0.717 0.4687-1.439 0.8463-2.168 1.1328-0.73 0.2865-1.465 0.4297-2.207 0.4297-1.055 0-1.888-0.2669-2.5-0.8008-0.599-0.5469-0.899-1.3932-0.899-2.5391 0-0.5989 0.085-1.1849 0.254-1.7578s0.371-1.1263 0.606-1.6601c0.234-0.5469 0.481-1.0677 0.742-1.5625 0.26-0.5078 0.482-0.9896 0.664-1.4453 0.065-0.1693 0.176-0.4297 0.332-0.7813 0.169-0.3516 0.345-0.7096 0.527-1.0742 0.209-0.4297 0.43-0.8854 0.664-1.3672zm12.422 1.5039c0.794 0.4167 1.504 0.8919 2.129 1.4258 0.625 0.5338 1.152 1.1002 1.582 1.6992 0.443 0.5859 0.775 1.1849 0.996 1.7969 0.235 0.612 0.352 1.2109 0.352 1.7969 0 0.7421-0.215 1.4127-0.645 2.0117-0.416 0.5859-0.97 1.0872-1.66 1.5039-0.677 0.4036-1.458 0.7096-2.344 0.9179-0.872 0.2214-1.758 0.3321-2.656 0.3321-0.677 0-1.335-0.0781-1.973-0.2344-0.638-0.1432-1.224-0.3711-1.757-0.6836-0.521-0.3125-0.97-0.7096-1.348-1.1914-0.378-0.4948-0.645-1.0807-0.801-1.7578-0.026-0.1042-0.039-0.1888-0.039-0.2539 0-0.3516 0.124-0.6511 0.371-0.8984 0.248-0.2605 0.521-0.3907 0.82-0.3907 0.144 0 0.3 0.0261 0.469 0.0781 0.183 0.0521 0.319 0.1693 0.41 0.3516 0.17 0.3125 0.404 0.5925 0.703 0.8399 0.313 0.2474 0.658 0.4622 1.036 0.6445 0.377 0.1693 0.774 0.306 1.191 0.4101 0.43 0.0912 0.846 0.1368 1.25 0.1368 0.417 0 0.814-0.0391 1.191-0.1172 0.391-0.0781 0.73-0.2018 1.016-0.3711 0.3-0.1693 0.534-0.3841 0.703-0.6446 0.169-0.2604 0.254-0.5794 0.254-0.957 0-0.664-0.15-1.276-0.449-1.8359-0.3-0.5599-0.69-1.0742-1.172-1.543-0.469-0.4818-1.009-0.9245-1.621-1.3281-0.599-0.4167-1.198-0.8138-1.797-1.1914-0.065-0.0391-0.163-0.1498-0.293-0.332-0.13-0.1954-0.195-0.3907-0.195-0.586 0-0.1562 0.039-0.2799 0.117-0.3711 0.208-0.2734 0.449-0.5534 0.723-0.8398 0.273-0.2865 0.566-0.5469 0.879-0.7813 0.312-0.2474 0.651-0.4427 1.015-0.5859 0.365-0.1563 0.742-0.2344 1.133-0.2344 0.286 0 0.553 0.0391 0.801 0.1172 0.247 0.0781 0.455 0.1823 0.625 0.3125 0.169 0.1172 0.299 0.2539 0.39 0.4102 0.105 0.1432 0.157 0.2799 0.157 0.4101 0 0.1823-0.046 0.3581-0.137 0.5274-0.091 0.1692-0.215 0.332-0.371 0.4882-0.143 0.1563-0.313 0.3125-0.508 0.4688-0.182 0.1562-0.365 0.306-0.547 0.4492zm12.168 0.1367c-0.482 0.9375-0.937 1.8555-1.367 2.7539-0.43 0.8854-0.833 1.7058-1.211 2.461-0.156 0.3125-0.313 0.6771-0.469 1.0937-0.143 0.4037-0.215 0.7617-0.215 1.0742 0 0.1823 0.039 0.3256 0.118 0.4297 0.091 0.1042 0.234 0.1563 0.429 0.1563 0.274 0 0.619-0.0782 1.035-0.2344 0.417-0.1693 0.866-0.3841 1.348-0.6445 0.482-0.2735 0.99-0.5795 1.523-0.918 0.534-0.3516 1.055-0.7096 1.563-1.0742 0.521-0.3776 1.016-0.7487 1.484-1.1133 0.469-0.3776 0.886-0.7227 1.25-1.0352 0.209-0.1432 0.404-0.2148 0.586-0.2148 0.222 0 0.404 0.0977 0.547 0.293s0.215 0.4427 0.215 0.7422c0 0.2994-0.072 0.6054-0.215 0.9179s-0.403 0.6185-0.781 0.918c-0.846 0.7682-1.706 1.4974-2.578 2.1875-0.86 0.6901-1.719 1.3021-2.578 1.8359-0.847 0.5209-1.687 0.9375-2.52 1.25s-1.64 0.4688-2.422 0.4688c-0.521 0-0.957-0.0716-1.308-0.2149-0.352-0.1302-0.638-0.3125-0.86-0.5468-0.208-0.2474-0.358-0.5274-0.449-0.8399-0.091-0.3255-0.137-0.6706-0.137-1.0351 0-0.6511 0.111-1.3282 0.332-2.0313 0.222-0.7031 0.469-1.3346 0.743-1.8945 0.39-0.8073 0.774-1.6081 1.152-2.4024 0.391-0.7942 0.768-1.556 1.133-2.2851h-0.84c-0.729 0-1.231-0.1172-1.504-0.3516s-0.41-0.5013-0.41-0.8008c0-0.1302 0.039-0.2864 0.117-0.4687 0.091-0.1953 0.215-0.3711 0.371-0.5274 0.169-0.1692 0.371-0.3125 0.606-0.4296 0.234-0.1172 0.501-0.1758 0.8-0.1758h2.11l4.121-8.1836c0.26-0.4948 0.579-0.8464 0.957-1.0547 0.391-0.2214 0.794-0.332 1.211-0.332 0.39 0 0.749 0.1041 1.074 0.3125 0.326 0.2083 0.488 0.5533 0.488 1.0351 0 0.2474-0.058 0.5013-0.175 0.7617-0.105 0.2474-0.248 0.5404-0.43 0.8789-0.117 0.2214-0.261 0.4883-0.43 0.8008-0.169 0.2995-0.351 0.625-0.547 0.9766-0.182 0.3385-0.377 0.6966-0.586 1.0742-0.195 0.3776-0.39 0.7422-0.586 1.0938-0.442 0.8333-0.911 1.7122-1.406 2.6367h6.367c0.313 0 0.599 0.0195 0.86 0.0586 0.26 0.026 0.481 0.0911 0.664 0.1953 0.195 0.0911 0.345 0.2213 0.449 0.3906s0.156 0.3971 0.156 0.6836c0 0.1432-0.026 0.2865-0.078 0.4297-0.039 0.1432-0.124 0.2734-0.254 0.3906-0.117 0.1172-0.286 0.2149-0.508 0.293-0.208 0.0781-0.481 0.1302-0.82 0.1562zm12.559-0.664c-0.065-0.0131-0.124-0.0196-0.176-0.0196h-0.176c-0.495 0-0.957 0.0977-1.387 0.293-0.429 0.1953-0.826 0.4557-1.191 0.7812-0.352 0.3126-0.671 0.6706-0.957 1.0743-0.273 0.4036-0.521 0.8073-0.742 1.2109-0.222 0.3906-0.41 0.7682-0.567 1.1328-0.143 0.3646-0.254 0.6706-0.332 0.918 0.456-0.2344 0.925-0.5013 1.407-0.8008 0.494-0.2995 0.957-0.5859 1.386-0.8594 0.43-0.2734 0.801-0.5208 1.114-0.7422 0.325-0.2213 0.553-0.371 0.683-0.4492 0.586-0.3646 0.99-0.7031 1.211-1.0156 0.221-0.3255 0.332-0.6055 0.332-0.8398 0-0.1954-0.065-0.3516-0.195-0.4688-0.117-0.1172-0.254-0.1888-0.41-0.2148zm0.703-2.6954c1.081 0 1.888 0.2605 2.422 0.7813s0.8 1.2435 0.8 2.168c0 0.5468-0.143 1.1198-0.429 1.7187-0.287 0.599-0.781 1.211-1.485 1.836-0.703 0.6119-1.647 1.2434-2.832 1.8945-1.171 0.638-2.643 1.2825-4.414 1.9336 0.065 0.3776 0.267 0.6771 0.606 0.8984 0.338 0.2084 0.788 0.3125 1.347 0.3125 0.599 0 1.237-0.0846 1.914-0.2539 0.691-0.1823 1.368-0.4101 2.032-0.6836 0.677-0.2734 1.334-0.5664 1.972-0.8789 0.638-0.3255 1.211-0.6315 1.719-0.918 0.521-0.2864 0.951-0.5338 1.289-0.7421 0.352-0.2084 0.586-0.3386 0.703-0.3907 0.118-0.0781 0.222-0.1237 0.313-0.1367 0.104-0.013 0.195-0.0195 0.273-0.0195 0.157 0 0.287 0.039 0.391 0.1172 0.104 0.0651 0.189 0.1497 0.254 0.2539 0.078 0.0911 0.13 0.1953 0.156 0.3125 0.026 0.1041 0.039 0.1953 0.039 0.2734 0 0.1172-0.013 0.2604-0.039 0.4297-0.026 0.1563-0.124 0.3385-0.293 0.5469-0.065 0.0651-0.286 0.2409-0.664 0.5273-0.365 0.2865-0.84 0.625-1.426 1.0156-0.586 0.3907-1.269 0.8073-2.051 1.25-0.768 0.4297-1.588 0.8269-2.46 1.1915-0.86 0.3645-1.758 0.664-2.696 0.8984-0.937 0.2474-1.862 0.3711-2.773 0.3711-0.781 0-1.478-0.1498-2.09-0.4492-0.599-0.2995-1.113-0.7032-1.543-1.211-0.417-0.5078-0.736-1.0937-0.957-1.7578s-0.332-1.3607-0.332-2.0898c0-0.5599 0.111-1.1719 0.332-1.836 0.221-0.6771 0.54-1.3541 0.957-2.0312s0.924-1.3347 1.523-1.9727c0.612-0.651 1.296-1.2239 2.051-1.7187s1.582-0.892 2.481-1.1914c0.911-0.2995 1.881-0.4493 2.91-0.4493zm11.797 2.8321c0.508-0.3125 1.028-0.599 1.562-0.8594 0.547-0.2604 1.074-0.4818 1.582-0.6641 0.508-0.1953 0.99-0.345 1.446-0.4492 0.468-0.1172 0.885-0.1758 1.25-0.1758 0.585 0 1.035 0.1433 1.347 0.4297 0.326 0.2735 0.488 0.7422 0.488 1.4063 0 0.1432-6e-3 0.2995-0.019 0.4687-0.013 0.1563-0.039 0.3256-0.078 0.5078-0.065 0.3386-0.261 0.7357-0.586 1.1915-0.326 0.4557-0.71 0.9309-1.152 1.4257-0.43 0.4948-0.899 0.9961-1.407 1.5039-0.495 0.4948-0.957 0.9571-1.386 1.3868-0.417 0.4166-0.769 0.7812-1.055 1.0937-0.274 0.3125-0.41 0.5273-0.41 0.6445 0 0.1042 6e-3 0.1758 0.019 0.2149 0.013 0.039 0.072 0.0586 0.176 0.0586 0.703-0.2995 1.484-0.6576 2.344-1.0742 0.872-0.4297 1.738-0.8659 2.597-1.3086 0.86-0.4427 1.674-0.8724 2.442-1.2891 0.768-0.4297 1.419-0.8008 1.953-1.1133 0.117-0.0651 0.234-0.1172 0.352-0.1562 0.13-0.0521 0.247-0.0782 0.351-0.0782 0.234 0 0.43 0.0782 0.586 0.2344 0.156 0.1563 0.234 0.3646 0.234 0.625 0 0.2995-0.13 0.6445-0.39 1.0352-0.248 0.3776-0.671 0.7747-1.27 1.1914-0.455 0.2864-0.97 0.612-1.543 0.9765-0.56 0.3516-1.152 0.7227-1.777 1.1133-0.612 0.3776-1.237 0.7487-1.875 1.1133-0.625 0.3646-1.231 0.6901-1.816 0.9766-0.586 0.2864-1.14 0.5208-1.661 0.7031-0.507 0.1693-0.95 0.2539-1.328 0.2539-0.898 0-1.575-0.2148-2.031-0.6445-0.443-0.4297-0.664-0.9831-0.664-1.6602 0-0.1042 6e-3 -0.1823 0.019-0.2344 0.092-0.5729 0.261-1.1263 0.508-1.6601 0.248-0.5339 0.528-1.0417 0.84-1.5235 0.313-0.4817 0.638-0.9375 0.977-1.3671 0.338-0.4428 0.644-0.8529 0.918-1.2305 0.286-0.3906 0.52-0.7487 0.703-1.0742 0.182-0.3256 0.273-0.625 0.273-0.8985 0-0.0651-0.013-0.1302-0.039-0.1953s-0.084-0.0976-0.176-0.0976c-0.156 0-0.416 0.0586-0.781 0.1757-0.351 0.1172-0.729 0.2735-1.133 0.4688-0.403 0.1953-0.787 0.4232-1.152 0.6836-0.365 0.2474-0.625 0.5143-0.781 0.8008-0.209 0.3646-0.449 0.8268-0.723 1.3867-0.273 0.5599-0.56 1.1458-0.859 1.7578-0.287 0.612-0.567 1.2174-0.84 1.8164-0.274 0.599-0.508 1.1133-0.703 1.543-0.157 0.3776-0.365 0.7161-0.625 1.0156-0.248 0.2995-0.521 0.5534-0.821 0.7617-0.299 0.2084-0.605 0.3711-0.918 0.4883-0.312 0.1172-0.599 0.1758-0.859 0.1758-0.299 0-0.54-0.0781-0.723-0.2344-0.169-0.1562-0.254-0.4101-0.254-0.7617 0-0.1432 0.02-0.319 0.059-0.5274 0.052-0.2213 0.15-0.4622 0.293-0.7226 0.234-0.4427 0.469-0.9245 0.703-1.4453 0.248-0.5209 0.528-1.1133 0.84-1.7774 0.313-0.6771 0.671-1.4453 1.074-2.3047 0.417-0.8724 0.905-1.875 1.465-3.0078-0.182-0.1562-0.338-0.345-0.469-0.5664-0.117-0.2344-0.175-0.5208-0.175-0.8594 0-0.3124 0.065-0.5794 0.195-0.8007 0.13-0.2344 0.306-0.4232 0.527-0.5664 0.222-0.1433 0.475-0.2474 0.762-0.3125 0.299-0.0782 0.612-0.1172 0.937-0.1172 0.339 0 0.678 0.0325 1.016 0.0976 0.339 0.0521 0.638 0.1368 0.899 0.2539 0.273 0.1172 0.494 0.2605 0.664 0.4297 0.169 0.1693 0.253 0.3646 0.253 0.586 0 0.039-0.013 0.0911-0.039 0.1562s-0.058 0.1367-0.097 0.2149c-0.026 0.0781-0.052 0.1497-0.078 0.2148s-0.039 0.1172-0.039 0.1563c0 0.026 6e-3 0.039 0.019 0.039h0.02zm37.793-14.922c0.208 0.8984 0.416 1.8815 0.625 2.9492 0.208 1.0677 0.41 2.181 0.605 3.3399 0.208 1.1458 0.41 2.3177 0.606 3.5156 0.208 1.1849 0.41 2.3568 0.605 3.5156 0.208 1.1459 0.404 2.2591 0.586 3.3399 0.195 1.0677 0.391 2.0573 0.586 2.9687 1.315-2.5911 2.578-5.0456 3.789-7.3633 1.224-2.3177 2.363-4.3945 3.418-6.2304 1.055-1.849 2.012-3.418 2.871-4.7071 0.859-1.3021 1.602-2.233 2.227-2.7929 0.273-0.2605 0.56-0.4427 0.859-0.5469s0.592-0.1563 0.879-0.1563c0.417 0 0.768 0.1042 1.055 0.3125 0.299 0.2084 0.449 0.4753 0.449 0.8008 0 0.1953-0.033 0.3581-0.098 0.4883s-0.169 0.2734-0.312 0.4297c-0.534 0.612-1.035 1.1784-1.504 1.6992-0.469 0.5078-0.931 1.0482-1.387 1.6211-0.443 0.5599-0.892 1.1914-1.348 1.8945-0.442 0.7032-0.905 1.543-1.386 2.5196-0.586 1.0807-1.172 2.194-1.758 3.3398-0.586 1.1328-1.152 2.2656-1.699 3.3984-0.547 1.1198-1.075 2.2071-1.582 3.2618-0.495 1.0547-0.951 2.0312-1.368 2.9297-0.416 0.8854-0.794 1.6796-1.132 2.3828-0.339 0.6901-0.619 1.2304-0.84 1.6211-0.378 0.8072-0.814 1.4062-1.309 1.7968-0.482 0.3907-0.924 0.5925-1.328 0.6055h-0.137c-0.26-0.013-0.514-0.0651-0.761-0.1562-0.248-0.0912-0.476-0.2279-0.684-0.4102s-0.391-0.4102-0.547-0.6836c-0.143-0.2865-0.241-0.6185-0.293-0.9961-0.208-0.8203-0.397-1.6211-0.566-2.4023-0.156-0.7943-0.306-1.6016-0.449-2.4219-0.144-0.8333-0.293-1.6992-0.45-2.5977-0.143-0.9114-0.299-1.901-0.468-2.9687-0.17-1.0677-0.365-2.2331-0.586-3.4961-0.209-1.263-0.456-2.6628-0.743-4.1992-0.39 1.3021-0.865 2.7343-1.425 4.2968-0.56 1.5495-1.179 3.1185-1.856 4.7071-0.677 1.5755-1.406 3.1054-2.187 4.5898-0.782 1.4714-1.602 2.78-2.461 3.9258-0.86 1.1458-1.745 2.0638-2.657 2.7539-0.898 0.6901-1.803 1.0352-2.714 1.0352-0.157 0-0.339-0.0391-0.547-0.1172-0.209-0.0651-0.41-0.1693-0.606-0.3125-0.182-0.1302-0.338-0.293-0.468-0.4883-0.131-0.1953-0.196-0.4102-0.196-0.6445 0-0.1823 0.033-0.3451 0.098-0.4883 0.078-0.1563 0.182-0.3386 0.312-0.5469 0.17-0.2734 0.437-0.5078 0.801-0.7031 0.365-0.2084 0.781-0.4362 1.25-0.6836 0.482-0.2474 1.003-0.5339 1.563-0.8594 0.56-0.3385 1.119-0.7812 1.679-1.3281 0.313-0.2995 0.684-0.8333 1.114-1.6016 0.429-0.7812 0.892-1.6992 1.386-2.7539 0.508-1.0677 1.029-2.2331 1.563-3.4961 0.547-1.276 1.081-2.5586 1.601-3.8476 0.521-1.2891 1.016-2.5456 1.485-3.7696 0.469-1.2369 0.885-2.3437 1.25-3.3203 0.377-0.9896 0.683-1.8099 0.918-2.4609 0.234-0.6641 0.377-1.0677 0.429-1.2109 0.131-0.3907 0.339-0.6771 0.625-0.8594 0.3-0.1823 0.619-0.28 0.957-0.293-0.013 0-0.026 0.0065-0.039 0.0195h0.118c0.052-0.013 0.097-0.0195 0.136-0.0195 0.287 0 0.567 0.1432 0.84 0.4297 0.287 0.2734 0.488 0.7552 0.606 1.4453zm18.574 15.547c-0.612 0-1.205 0.1562-1.777 0.4687-0.56 0.2995-1.062 0.7032-1.504 1.211-0.43 0.4948-0.775 1.0612-1.036 1.6992-0.26 0.625-0.39 1.2695-0.39 1.9336 0 0.2474 0.019 0.5208 0.058 0.8203 0.04 0.2865 0.118 0.5599 0.235 0.8203 0.13 0.2474 0.312 0.4557 0.547 0.625 0.234 0.1693 0.547 0.2539 0.937 0.2539 0.599 0 1.179-0.1562 1.738-0.4687 0.573-0.3256 1.081-0.7422 1.524-1.25 0.443-0.5209 0.794-1.1068 1.055-1.7578 0.26-0.6511 0.39-1.3086 0.39-1.9727 0-0.2604-0.019-0.5273-0.058-0.8008-0.026-0.2864-0.105-0.5469-0.235-0.7812-0.117-0.2344-0.293-0.4232-0.527-0.5664-0.234-0.1563-0.553-0.2344-0.957-0.2344zm1.015-3.4375c0.495 0 1.023 0.0651 1.583 0.1953 0.572 0.1302 1.1 0.3516 1.582 0.6641 0.481 0.3125 0.878 0.7291 1.191 1.25 0.325 0.5078 0.488 1.1393 0.488 1.8945 0 0.3906-0.052 0.8398-0.156 1.3476-0.104 0.4948-0.26 1.0157-0.469 1.5625 0.13 0.1563 0.28 0.267 0.449 0.3321 0.17 0.0651 0.352 0.0976 0.547 0.0976 0.274 0 0.573-0.0781 0.899-0.2343 0.338-0.1563 0.683-0.3581 1.035-0.6055 0.351-0.2474 0.703-0.5274 1.055-0.8399 0.351-0.3125 0.683-0.625 0.996-0.9375 0.312-0.3125 0.592-0.6054 0.84-0.8789 0.26-0.2864 0.475-0.5273 0.644-0.7226 0.091-0.0912 0.202-0.1367 0.332-0.1367 0.182 0 0.345 0.0976 0.488 0.2929 0.144 0.1823 0.215 0.4427 0.215 0.7813 0 0.3385-0.104 0.7291-0.312 1.1719-0.196 0.4427-0.567 0.9049-1.114 1.3867-0.312 0.3385-0.67 0.7291-1.074 1.1719-0.403 0.4427-0.833 0.8593-1.289 1.25-0.456 0.3906-0.931 0.7226-1.426 0.996-0.494 0.2735-0.989 0.4102-1.484 0.4102-0.339 0-0.671-0.0521-0.996-0.1562-0.313-0.1042-0.632-0.2735-0.957-0.5079-0.469 0.7292-1.003 1.3933-1.602 1.9922-0.599 0.599-1.269 1.1133-2.011 1.543-0.73 0.4297-1.524 0.7617-2.383 0.9961-0.847 0.2474-1.751 0.3711-2.715 0.3711-0.365 0-0.788-0.0716-1.27-0.2149-0.481-0.1432-0.944-0.3776-1.386-0.7031-0.43-0.3385-0.795-0.7747-1.094-1.3086-0.3-0.5338-0.449-1.1849-0.449-1.9531 0-0.5208 0.084-1.1458 0.254-1.875 0.169-0.7292 0.423-1.4779 0.761-2.2461 0.352-0.7813 0.788-1.5495 1.309-2.3047 0.534-0.7682 1.165-1.4518 1.895-2.0508 0.729-0.6119 1.562-1.1002 2.5-1.4648 0.937-0.3776 1.979-0.5664 3.124-0.5664zm8.985 4.6484c0.404-0.8984 0.736-1.6211 0.996-2.168 0.26-0.5598 0.495-0.9895 0.703-1.289 0.221-0.3125 0.436-0.5208 0.645-0.625 0.221-0.1042 0.494-0.1563 0.82-0.1563 0.495 0 0.918 0.1628 1.269 0.4883 0.365 0.3125 0.547 0.7162 0.547 1.211 0 0.1171-0.019 0.2343-0.058 0.3515-0.026 0.1172-0.065 0.2344-0.117 0.3516l-3.321 7.8515c-0.052 0.1042-0.091 0.2214-0.117 0.3516-0.013 0.1172-0.019 0.2148-0.019 0.293 0 0.1692 0.032 0.2995 0.097 0.3906 0.078 0.0781 0.156 0.1172 0.235 0.1172 0.143 0 0.286-0.0326 0.429-0.0977 0.156-0.0651 0.332-0.1757 0.528-0.332 0.208-0.1693 0.455-0.3906 0.742-0.6641 0.299-0.2864 0.664-0.6445 1.094-1.0742 0.403-0.4297 0.82-0.944 1.25-1.543 0.429-0.6119 0.846-1.25 1.25-1.914 0.416-0.6771 0.8-1.3542 1.152-2.0313 0.351-0.6901 0.657-1.3281 0.918-1.914 0.195-0.3907 0.371-0.7031 0.527-0.9375 0.156-0.2474 0.306-0.4362 0.449-0.5664 0.157-0.1302 0.313-0.2149 0.469-0.2539 0.156-0.0521 0.339-0.0782 0.547-0.0782 0.794 0 1.191 0.3451 1.191 1.0352-0.026 0.1042-0.045 0.2213-0.058 0.3516 0 0.1302-0.033 0.2799-0.098 0.4492l-3.047 9.0039c0 0.3255 0.163 0.4883 0.489 0.4883 0.234-0.0261 0.54-0.1433 0.918-0.3516 0.39-0.2214 0.781-0.4948 1.171-0.8203 0.391-0.3386 0.756-0.7227 1.094-1.1524 0.339-0.4427 0.586-0.8984 0.742-1.3671 0.287-0.8594 0.573-1.7253 0.86-2.5977 0.299-0.8724 0.612-1.6602 0.937-2.3633 0.339-0.7161 0.697-1.3021 1.074-1.7578 0.391-0.4687 0.821-0.7227 1.29-0.7617 0.416 0 0.755 0.1367 1.015 0.4101 0.274 0.2605 0.41 0.6055 0.41 1.0352 0 0.5078-0.071 1.0547-0.215 1.6406-0.13 0.586-0.306 1.1719-0.527 1.7578-0.221 0.586-0.488 1.1524-0.801 1.6993-0.299 0.5468-0.612 1.0416-0.937 1.4843 0.091 0.2735 0.28 0.4102 0.566 0.4102 0.508 0 0.983-0.0391 1.426-0.1172 0.456-0.0781 0.892-0.1888 1.309-0.332 0.429-0.1563 0.852-0.3386 1.269-0.5469 0.43-0.2083 0.873-0.4492 1.328-0.7227 0.209-0.1432 0.417-0.2148 0.625-0.2148 0.261 0 0.495 0.0977 0.703 0.293 0.209 0.1953 0.313 0.4492 0.313 0.7617 0 0.2864-0.13 0.5794-0.391 0.8789-0.247 0.2995-0.579 0.5924-0.996 0.8789-0.416 0.2865-0.892 0.5534-1.426 0.8008-0.52 0.2474-1.054 0.4687-1.601 0.664-0.534 0.1823-1.055 0.3321-1.563 0.4493-0.494 0.1041-0.931 0.1562-1.308 0.1562-0.729 0-1.478-0.2083-2.246-0.625-0.912 1.0938-1.862 1.9271-2.852 2.5-0.976 0.5729-1.973 0.8594-2.988 0.8594-0.938 0-1.615-0.2409-2.031-0.7227-0.404-0.4948-0.606-1.2109-0.606-2.1484-0.976 0.9896-1.894 1.7187-2.754 2.1875-0.846 0.4557-1.719 0.6836-2.617 0.6836-0.573 0-1.055-0.0716-1.445-0.2149-0.378-0.1302-0.684-0.319-0.918-0.5664-0.235-0.2474-0.404-0.5338-0.508-0.8593-0.091-0.3386-0.137-0.7032-0.137-1.0938 0-0.638 0.091-1.3086 0.274-2.0117 0.182-0.7162 0.397-1.4063 0.644-2.0703 0.261-0.6641 0.514-1.2761 0.762-1.836 0.26-0.5729 0.469-1.0351 0.625-1.3867zm31.777 6.836c-0.052 0.4036-0.176 0.7877-0.371 1.1523s-0.436 0.6901-0.723 0.9766c-0.286 0.2734-0.612 0.4882-0.976 0.6445-0.365 0.1693-0.742 0.2539-1.133 0.2539-0.586 0-1.055-0.1888-1.406-0.5664-0.352-0.3906-0.527-0.8659-0.527-1.4258 0-0.4297 0.091-0.8398 0.273-1.2305 0.182-0.3906 0.423-0.7356 0.723-1.0351 0.312-0.3125 0.664-0.5599 1.054-0.7422 0.391-0.1823 0.795-0.2734 1.211-0.2734 0.586 0 1.048 0.1823 1.387 0.5468 0.338 0.3646 0.508 0.8269 0.508 1.3868v0.1562c0 0.0391-7e-3 0.0912-0.02 0.1563zm9.199-20.723c-0.716 1.3672-1.367 2.5977-1.953 3.6914-0.586 1.0807-1.159 2.1354-1.718 3.1641-0.56 1.0286-1.133 2.0898-1.719 3.1836-0.586 1.0807-1.237 2.3046-1.953 3.6718-0.196 0.3776-0.476 0.6641-0.84 0.8594-0.365 0.1823-0.703 0.2734-1.016 0.2734-0.26 0-0.475-0.052-0.644-0.1562-0.157-0.1172-0.235-0.293-0.235-0.5273 0-0.1563 0.033-0.306 0.098-0.4493 0.391-0.9114 0.755-1.7513 1.094-2.5195 0.338-0.7812 0.657-1.5299 0.957-2.2461 0.312-0.7161 0.612-1.4127 0.898-2.0898 0.287-0.6771 0.58-1.3672 0.879-2.0703 0.313-0.7162 0.638-1.4649 0.977-2.2461 0.338-0.7813 0.703-1.6276 1.093-2.5391 0.105-0.2344 0.248-0.4427 0.43-0.625 0.195-0.1823 0.417-0.332 0.664-0.4492 0.248-0.1302 0.508-0.2214 0.781-0.2735 0.274-0.0651 0.547-0.0976 0.821-0.0976 0.416 0 0.768 0.0781 1.054 0.2344 0.3 0.1562 0.45 0.4036 0.45 0.7422 0 0.1432-0.039 0.2994-0.118 0.4687z"/>
</mask>
<mask x="90" y="0" width="235" height="61" fill="#000000" maskUnits="userSpaceOnUse">
<rect x="90" width="235" height="61" fill="#fff"/>
<path d="m110.96 26.285c0.078 0.013 0.156 0.0195 0.234 0.0195h0.274c1.132 0 2.2-0.2409 3.203-0.7227 1.015-0.4948 1.901-1.1198 2.656-1.875s1.348-1.595 1.777-2.5195c0.443-0.9245 0.664-1.8229 0.664-2.6953 0-0.625-0.117-1.2175-0.351-1.7774-0.221-0.5599-0.58-1.0481-1.074-1.4648-0.482-0.4167-1.107-0.7487-1.875-0.9961-0.756-0.2474-1.661-0.3711-2.715-0.3711-1.185 0-2.207 0.1107-3.067 0.332-0.846 0.2214-1.582 0.5079-2.207 0.8594-0.612 0.3516-1.132 0.7552-1.562 1.211-0.417 0.4557-0.781 0.9244-1.094 1.4062-0.299 0.4818-0.573 0.9505-0.82 1.4063-0.248 0.4557-0.508 0.8593-0.781 1.2109-0.261 0.3516-0.554 0.638-0.879 0.8594-0.326 0.2213-0.73 0.332-1.211 0.332-0.651 0-1.14-0.1628-1.465-0.4883-0.326-0.3385-0.488-0.8073-0.488-1.4062 0-0.5599 0.149-1.1654 0.449-1.8164 0.312-0.6511 0.749-1.3021 1.308-1.9532 0.573-0.651 1.27-1.276 2.09-1.875 0.821-0.6119 1.739-1.1458 2.754-1.6015 1.029-0.4688 2.149-0.8399 3.36-1.1133 1.21-0.2865 2.493-0.4297 3.847-0.4297 1.328 0 2.598 0.1693 3.809 0.5078 1.224 0.3386 2.304 0.8464 3.242 1.5235 0.937 0.664 1.68 1.5039 2.227 2.5195 0.559 1.0156 0.839 2.2005 0.839 3.5547 0 0.9114-0.169 1.7838-0.507 2.6172-0.326 0.8203-0.769 1.595-1.329 2.3242-0.559 0.7161-1.217 1.3802-1.972 1.9922-0.742 0.5989-1.537 1.1328-2.383 1.6015-0.846 0.4688-1.719 0.8659-2.617 1.1914-0.886 0.3256-1.745 0.5599-2.578 0.7032 0.117 0.6119 0.306 1.302 0.566 2.0703 0.273 0.7552 0.599 1.4778 0.977 2.1679 0.39 0.6771 0.82 1.2566 1.289 1.7383 0.468 0.4818 0.963 0.7422 1.484 0.7813 0.104 0.013 0.202 0.0195 0.293 0.0195h0.273c0.951 0 1.797-0.1562 2.54-0.4687 0.742-0.3125 1.36-0.6576 1.855-1.0352 0.586-0.4297 1.094-0.931 1.523-1.5039 0.404-0.4557 0.814-0.6836 1.231-0.6836 0.26 0 0.482 0.0911 0.664 0.2734s0.273 0.4297 0.273 0.7422c0 0.2995-0.097 0.6511-0.293 1.0547-0.182 0.3906-0.501 0.8008-0.957 1.2305-1.341 1.263-2.656 2.1875-3.945 2.7734-1.276 0.5729-2.487 0.8594-3.633 0.8594-0.937 0-1.803-0.2669-2.597-0.8008-0.795-0.5338-1.517-1.2565-2.168-2.168-0.651-0.9114-1.244-1.9726-1.778-3.1835-0.534-1.224-1.009-2.5131-1.425-3.8672-0.235 0.5338-0.476 1.1653-0.723 1.8945-0.248 0.7161-0.514 1.4583-0.801 2.2266-0.286 0.7682-0.586 1.5299-0.898 2.2851-0.313 0.7422-0.658 1.4128-1.035 2.0117-0.378 0.586-0.782 1.0612-1.211 1.4258-0.43 0.3646-0.899 0.5469-1.407 0.5469-0.416 0-0.755-0.0651-1.015-0.1953-0.261-0.1302-0.463-0.293-0.606-0.4883s-0.247-0.4102-0.312-0.6445c-0.052-0.2344-0.078-0.4558-0.078-0.6641 0-0.2995 0.039-0.6055 0.117-0.918s0.189-0.6054 0.332-0.8789l5.762-10.547c0.494-0.8854 0.989-1.7382 1.484-2.5585 0.508-0.8334 0.996-1.5691 1.465-2.2071 0.482-0.638 0.931-1.1458 1.347-1.5234 0.43-0.3906 0.814-0.586 1.153-0.586 0.091 0 0.202 0.0196 0.332 0.0586 0.13 0.0261 0.247 0.0847 0.351 0.1758 0.105 0.0782 0.196 0.2018 0.274 0.3711 0.078 0.1563 0.117 0.3581 0.117 0.6055s-0.072 0.5924-0.215 1.0351c-0.143 0.4428-0.332 0.9506-0.566 1.5235-0.235 0.5729-0.508 1.2044-0.821 1.8945-0.312 0.6771-0.638 1.3737-0.976 2.0899zm20.137 1.1914c-0.066-0.0131-0.124-0.0196-0.176-0.0196h-0.176c-0.495 0-0.957 0.0977-1.387 0.293-0.429 0.1953-0.827 0.4557-1.191 0.7812-0.352 0.3126-0.671 0.6706-0.957 1.0743-0.274 0.4036-0.521 0.8073-0.742 1.2109-0.222 0.3906-0.411 0.7682-0.567 1.1328-0.143 0.3646-0.254 0.6706-0.332 0.918 0.456-0.2344 0.925-0.5013 1.406-0.8008 0.495-0.2995 0.958-0.5859 1.387-0.8594 0.43-0.2734 0.801-0.5208 1.113-0.7422 0.326-0.2213 0.554-0.371 0.684-0.4492 0.586-0.3646 0.99-0.7031 1.211-1.0156 0.221-0.3255 0.332-0.6055 0.332-0.8398 0-0.1954-0.065-0.3516-0.195-0.4688-0.117-0.1172-0.254-0.1888-0.41-0.2148zm0.703-2.6954c1.08 0 1.888 0.2605 2.422 0.7813 0.533 0.5208 0.8 1.2435 0.8 2.168 0 0.5468-0.143 1.1198-0.429 1.7187-0.287 0.599-0.782 1.211-1.485 1.836-0.703 0.6119-1.647 1.2434-2.832 1.8945-1.172 0.638-2.643 1.2825-4.414 1.9336 0.065 0.3776 0.267 0.6771 0.606 0.8984 0.338 0.2084 0.787 0.3125 1.347 0.3125 0.599 0 1.237-0.0846 1.914-0.2539 0.69-0.1823 1.368-0.4101 2.032-0.6836 0.677-0.2734 1.334-0.5664 1.972-0.8789 0.638-0.3255 1.211-0.6315 1.719-0.918 0.521-0.2864 0.951-0.5338 1.289-0.7421 0.352-0.2084 0.586-0.3386 0.703-0.3907 0.117-0.0781 0.222-0.1237 0.313-0.1367 0.104-0.013 0.195-0.0195 0.273-0.0195 0.156 0 0.287 0.039 0.391 0.1172 0.104 0.0651 0.189 0.1497 0.254 0.2539 0.078 0.0911 0.13 0.1953 0.156 0.3125 0.026 0.1041 0.039 0.1953 0.039 0.2734 0 0.1172-0.013 0.2604-0.039 0.4297-0.026 0.1563-0.124 0.3385-0.293 0.5469-0.065 0.0651-0.286 0.2409-0.664 0.5273-0.365 0.2865-0.84 0.625-1.426 1.0156-0.586 0.3907-1.269 0.8073-2.051 1.25-0.768 0.4297-1.588 0.8269-2.461 1.1915-0.859 0.3645-1.757 0.664-2.695 0.8984-0.937 0.2474-1.862 0.3711-2.773 0.3711-0.782 0-1.478-0.1498-2.09-0.4492-0.599-0.2995-1.113-0.7032-1.543-1.211-0.417-0.5078-0.736-1.0937-0.957-1.7578-0.222-0.6641-0.332-1.3607-0.332-2.0898 0-0.5599 0.11-1.1719 0.332-1.836 0.221-0.6771 0.54-1.3541 0.957-2.0312s0.924-1.3347 1.523-1.9727c0.612-0.651 1.296-1.2239 2.051-1.7187s1.582-0.892 2.481-1.1914c0.911-0.2995 1.881-0.4493 2.91-0.4493zm14.043 0.0196c0.573 0 1.074 0.0716 1.504 0.2148 0.429 0.1433 0.794 0.2995 1.093 0.4688 0.339 0.2083 0.638 0.4362 0.899 0.6836 0.182-0.1172 0.377-0.2279 0.586-0.3321 0.182-0.0911 0.384-0.1692 0.605-0.2343 0.222-0.0782 0.443-0.1172 0.664-0.1172 0.573 0 1.016 0.1172 1.328 0.3515 0.313 0.2344 0.469 0.5144 0.469 0.8399 0 0.1693-0.045 0.3385-0.137 0.5078l-4.57 8.6523 0.371-0.332c1.537-0.8984 2.8-1.6016 3.789-2.1094 0.99-0.5208 1.778-0.9049 2.363-1.1523 0.586-0.2474 1.003-0.3971 1.25-0.4492 0.261-0.0651 0.424-0.0977 0.489-0.0977 0.299 0 0.527 0.1172 0.683 0.3516 0.17 0.2213 0.254 0.5013 0.254 0.8398 0 0.3776-0.11 0.7617-0.332 1.1524-0.208 0.3906-0.534 0.6705-0.976 0.8398-0.586 0.2995-1.27 0.625-2.051 0.9766-0.781 0.3385-1.595 0.7161-2.441 1.1328-0.847 0.4166-1.7 0.8854-2.559 1.4062-0.846 0.5078-1.641 1.0743-2.383 1.6993l-3.789 6.8554c-0.312 0.7422-0.599 1.3477-0.859 1.8164-0.248 0.4688-0.495 0.8399-0.743 1.1133-0.247 0.2734-0.501 0.4622-0.761 0.5664-0.261 0.1042-0.56 0.1563-0.899 0.1563-0.507 0-0.911-0.1758-1.211-0.5274-0.286-0.3515-0.429-0.7747-0.429-1.2695 0-0.5208 0.123-1.1263 0.371-1.8164 0.247-0.6901 0.592-1.4388 1.035-2.2461 0.456-0.7943 1.003-1.6341 1.641-2.5195 0.638-0.8724 1.347-1.7644 2.128-2.6758l2.422-3.086c-0.494 0.4558-0.983 0.8464-1.464 1.1719-0.482 0.3255-0.945 0.5925-1.387 0.8008-0.443 0.1953-0.86 0.3385-1.25 0.4297-0.378 0.0911-0.71 0.1367-0.996 0.1367-0.521 0-1.003-0.1172-1.446-0.3516-0.442-0.2474-0.826-0.5859-1.152-1.0156-0.312-0.4297-0.56-0.9375-0.742-1.5234-0.182-0.586-0.274-1.224-0.274-1.9141 0-1.4323 0.274-2.7279 0.821-3.8867 0.56-1.1589 1.269-2.1419 2.129-2.9492 0.872-0.8203 1.829-1.4518 2.871-1.8946 1.054-0.4427 2.083-0.664 3.086-0.664zm-0.743 3.4375c-0.612 0-1.204 0.1562-1.777 0.4687-0.573 0.2995-1.081 0.7032-1.523 1.211-0.443 0.4948-0.795 1.0677-1.055 1.7187-0.26 0.6511-0.391 1.3216-0.391 2.0117 0 0.2084 0.013 0.4362 0.039 0.6836 0.04 0.2344 0.111 0.4558 0.215 0.6641 0.117 0.2083 0.28 0.3841 0.489 0.5273 0.221 0.1302 0.52 0.1954 0.898 0.1954 0.273 0 0.592-0.1172 0.957-0.3516 0.378-0.2474 0.762-0.5534 1.152-0.918 0.404-0.3776 0.795-0.7877 1.172-1.2304 0.378-0.4558 0.716-0.8985 1.016-1.3282 0.312-0.4297 0.56-0.8138 0.742-1.1523 0.182-0.3516 0.273-0.612 0.273-0.7813 0-0.2864-0.078-0.5338-0.234-0.7422-0.156-0.2213-0.351-0.4036-0.586-0.5468-0.221-0.1433-0.462-0.2474-0.722-0.3125-0.248-0.0782-0.469-0.1172-0.665-0.1172zm14.825-6.1328c0-0.2995 0.052-0.6055 0.156-0.918 0.117-0.3255 0.286-0.6185 0.508-0.8789 0.221-0.2604 0.495-0.4753 0.82-0.6445 0.339-0.1693 0.736-0.2539 1.191-0.2539 0.756 0 1.283 0.1497 1.583 0.4492 0.299 0.2864 0.449 0.651 0.449 1.0937 0 0.2474-0.052 0.5209-0.157 0.8203-0.091 0.2995-0.234 0.5795-0.429 0.8399-0.196 0.2474-0.449 0.4557-0.762 0.625-0.312 0.1693-0.684 0.2539-1.113 0.2539-0.808 0-1.374-0.1237-1.699-0.3711-0.326-0.2604-0.508-0.599-0.547-1.0156zm-2.149 4.3945c0.222-0.3646 0.476-0.625 0.762-0.7812 0.286-0.1563 0.579-0.2344 0.879-0.2344 0.495 0 0.918 0.1627 1.269 0.4883 0.365 0.3125 0.547 0.7161 0.547 1.2109-0.013 0.1172-0.032 0.2344-0.058 0.3516-0.013 0.1171-0.052 0.2343-0.118 0.3515-0.182 0.3386-0.332 0.625-0.449 0.8594s-0.228 0.4557-0.332 0.6641l-0.273 0.5859c-0.091 0.1953-0.202 0.4297-0.332 0.7031-0.156 0.3255-0.332 0.6836-0.528 1.0742-0.195 0.3776-0.384 0.7683-0.566 1.1719-0.169 0.4037-0.319 0.8008-0.449 1.1914-0.117 0.3906-0.176 0.7487-0.176 1.0742 0 0.3516 0.085 0.586 0.254 0.7032 0.182 0.1041 0.436 0.1562 0.762 0.1562 0.364 0 0.742-0.0781 1.132-0.2344 0.404-0.1562 0.808-0.358 1.211-0.6054 0.404-0.2474 0.801-0.5274 1.192-0.8399 0.39-0.3255 0.755-0.651 1.094-0.9765 0.351-0.3256 0.67-0.6381 0.957-0.9375 0.299-0.2995 0.546-0.5664 0.742-0.8008 0.26-0.2474 0.521-0.3711 0.781-0.3711 0.234 0 0.423 0.1042 0.566 0.3125 0.157 0.2083 0.235 0.4752 0.235 0.8008 0 0.2994-0.078 0.6185-0.235 0.957-0.143 0.3385-0.384 0.6576-0.722 0.957-0.664 0.6771-1.341 1.3282-2.031 1.9532-0.691 0.6119-1.4 1.1588-2.129 1.6406-0.717 0.4687-1.439 0.8463-2.168 1.1328-0.73 0.2865-1.465 0.4297-2.207 0.4297-1.055 0-1.888-0.2669-2.5-0.8008-0.599-0.5469-0.899-1.3932-0.899-2.5391 0-0.5989 0.085-1.1849 0.254-1.7578s0.371-1.1263 0.606-1.6601c0.234-0.5469 0.481-1.0677 0.742-1.5625 0.26-0.5078 0.482-0.9896 0.664-1.4453 0.065-0.1693 0.176-0.4297 0.332-0.7813 0.169-0.3516 0.345-0.7096 0.527-1.0742 0.209-0.4297 0.43-0.8854 0.664-1.3672zm12.422 1.5039c0.794 0.4167 1.504 0.8919 2.129 1.4258 0.625 0.5338 1.152 1.1002 1.582 1.6992 0.443 0.5859 0.775 1.1849 0.996 1.7969 0.235 0.612 0.352 1.2109 0.352 1.7969 0 0.7421-0.215 1.4127-0.645 2.0117-0.416 0.5859-0.97 1.0872-1.66 1.5039-0.677 0.4036-1.458 0.7096-2.344 0.9179-0.872 0.2214-1.758 0.3321-2.656 0.3321-0.677 0-1.335-0.0781-1.973-0.2344-0.638-0.1432-1.224-0.3711-1.757-0.6836-0.521-0.3125-0.97-0.7096-1.348-1.1914-0.378-0.4948-0.645-1.0807-0.801-1.7578-0.026-0.1042-0.039-0.1888-0.039-0.2539 0-0.3516 0.124-0.6511 0.371-0.8984 0.248-0.2605 0.521-0.3907 0.82-0.3907 0.144 0 0.3 0.0261 0.469 0.0781 0.183 0.0521 0.319 0.1693 0.41 0.3516 0.17 0.3125 0.404 0.5925 0.703 0.8399 0.313 0.2474 0.658 0.4622 1.036 0.6445 0.377 0.1693 0.774 0.306 1.191 0.4101 0.43 0.0912 0.846 0.1368 1.25 0.1368 0.417 0 0.814-0.0391 1.191-0.1172 0.391-0.0781 0.73-0.2018 1.016-0.3711 0.3-0.1693 0.534-0.3841 0.703-0.6446 0.169-0.2604 0.254-0.5794 0.254-0.957 0-0.664-0.15-1.276-0.449-1.8359-0.3-0.5599-0.69-1.0742-1.172-1.543-0.469-0.4818-1.009-0.9245-1.621-1.3281-0.599-0.4167-1.198-0.8138-1.797-1.1914-0.065-0.0391-0.163-0.1498-0.293-0.332-0.13-0.1954-0.195-0.3907-0.195-0.586 0-0.1562 0.039-0.2799 0.117-0.3711 0.208-0.2734 0.449-0.5534 0.723-0.8398 0.273-0.2865 0.566-0.5469 0.879-0.7813 0.312-0.2474 0.651-0.4427 1.015-0.5859 0.365-0.1563 0.742-0.2344 1.133-0.2344 0.286 0 0.553 0.0391 0.801 0.1172 0.247 0.0781 0.455 0.1823 0.625 0.3125 0.169 0.1172 0.299 0.2539 0.39 0.4102 0.105 0.1432 0.157 0.2799 0.157 0.4101 0 0.1823-0.046 0.3581-0.137 0.5274-0.091 0.1692-0.215 0.332-0.371 0.4882-0.143 0.1563-0.313 0.3125-0.508 0.4688-0.182 0.1562-0.365 0.306-0.547 0.4492zm12.168 0.1367c-0.482 0.9375-0.937 1.8555-1.367 2.7539-0.43 0.8854-0.833 1.7058-1.211 2.461-0.156 0.3125-0.313 0.6771-0.469 1.0937-0.143 0.4037-0.215 0.7617-0.215 1.0742 0 0.1823 0.039 0.3256 0.118 0.4297 0.091 0.1042 0.234 0.1563 0.429 0.1563 0.274 0 0.619-0.0782 1.035-0.2344 0.417-0.1693 0.866-0.3841 1.348-0.6445 0.482-0.2735 0.99-0.5795 1.523-0.918 0.534-0.3516 1.055-0.7096 1.563-1.0742 0.521-0.3776 1.016-0.7487 1.484-1.1133 0.469-0.3776 0.886-0.7227 1.25-1.0352 0.209-0.1432 0.404-0.2148 0.586-0.2148 0.222 0 0.404 0.0977 0.547 0.293s0.215 0.4427 0.215 0.7422c0 0.2994-0.072 0.6054-0.215 0.9179s-0.403 0.6185-0.781 0.918c-0.846 0.7682-1.706 1.4974-2.578 2.1875-0.86 0.6901-1.719 1.3021-2.578 1.8359-0.847 0.5209-1.687 0.9375-2.52 1.25s-1.64 0.4688-2.422 0.4688c-0.521 0-0.957-0.0716-1.308-0.2149-0.352-0.1302-0.638-0.3125-0.86-0.5468-0.208-0.2474-0.358-0.5274-0.449-0.8399-0.091-0.3255-0.137-0.6706-0.137-1.0351 0-0.6511 0.111-1.3282 0.332-2.0313 0.222-0.7031 0.469-1.3346 0.743-1.8945 0.39-0.8073 0.774-1.6081 1.152-2.4024 0.391-0.7942 0.768-1.556 1.133-2.2851h-0.84c-0.729 0-1.231-0.1172-1.504-0.3516s-0.41-0.5013-0.41-0.8008c0-0.1302 0.039-0.2864 0.117-0.4687 0.091-0.1953 0.215-0.3711 0.371-0.5274 0.169-0.1692 0.371-0.3125 0.606-0.4296 0.234-0.1172 0.501-0.1758 0.8-0.1758h2.11l4.121-8.1836c0.26-0.4948 0.579-0.8464 0.957-1.0547 0.391-0.2214 0.794-0.332 1.211-0.332 0.39 0 0.749 0.1041 1.074 0.3125 0.326 0.2083 0.488 0.5533 0.488 1.0351 0 0.2474-0.058 0.5013-0.175 0.7617-0.105 0.2474-0.248 0.5404-0.43 0.8789-0.117 0.2214-0.261 0.4883-0.43 0.8008-0.169 0.2995-0.351 0.625-0.547 0.9766-0.182 0.3385-0.377 0.6966-0.586 1.0742-0.195 0.3776-0.39 0.7422-0.586 1.0938-0.442 0.8333-0.911 1.7122-1.406 2.6367h6.367c0.313 0 0.599 0.0195 0.86 0.0586 0.26 0.026 0.481 0.0911 0.664 0.1953 0.195 0.0911 0.345 0.2213 0.449 0.3906s0.156 0.3971 0.156 0.6836c0 0.1432-0.026 0.2865-0.078 0.4297-0.039 0.1432-0.124 0.2734-0.254 0.3906-0.117 0.1172-0.286 0.2149-0.508 0.293-0.208 0.0781-0.481 0.1302-0.82 0.1562zm12.559-0.664c-0.065-0.0131-0.124-0.0196-0.176-0.0196h-0.176c-0.495 0-0.957 0.0977-1.387 0.293-0.429 0.1953-0.826 0.4557-1.191 0.7812-0.352 0.3126-0.671 0.6706-0.957 1.0743-0.273 0.4036-0.521 0.8073-0.742 1.2109-0.222 0.3906-0.41 0.7682-0.567 1.1328-0.143 0.3646-0.254 0.6706-0.332 0.918 0.456-0.2344 0.925-0.5013 1.407-0.8008 0.494-0.2995 0.957-0.5859 1.386-0.8594 0.43-0.2734 0.801-0.5208 1.114-0.7422 0.325-0.2213 0.553-0.371 0.683-0.4492 0.586-0.3646 0.99-0.7031 1.211-1.0156 0.221-0.3255 0.332-0.6055 0.332-0.8398 0-0.1954-0.065-0.3516-0.195-0.4688-0.117-0.1172-0.254-0.1888-0.41-0.2148zm0.703-2.6954c1.081 0 1.888 0.2605 2.422 0.7813s0.8 1.2435 0.8 2.168c0 0.5468-0.143 1.1198-0.429 1.7187-0.287 0.599-0.781 1.211-1.485 1.836-0.703 0.6119-1.647 1.2434-2.832 1.8945-1.171 0.638-2.643 1.2825-4.414 1.9336 0.065 0.3776 0.267 0.6771 0.606 0.8984 0.338 0.2084 0.788 0.3125 1.347 0.3125 0.599 0 1.237-0.0846 1.914-0.2539 0.691-0.1823 1.368-0.4101 2.032-0.6836 0.677-0.2734 1.334-0.5664 1.972-0.8789 0.638-0.3255 1.211-0.6315 1.719-0.918 0.521-0.2864 0.951-0.5338 1.289-0.7421 0.352-0.2084 0.586-0.3386 0.703-0.3907 0.118-0.0781 0.222-0.1237 0.313-0.1367 0.104-0.013 0.195-0.0195 0.273-0.0195 0.157 0 0.287 0.039 0.391 0.1172 0.104 0.0651 0.189 0.1497 0.254 0.2539 0.078 0.0911 0.13 0.1953 0.156 0.3125 0.026 0.1041 0.039 0.1953 0.039 0.2734 0 0.1172-0.013 0.2604-0.039 0.4297-0.026 0.1563-0.124 0.3385-0.293 0.5469-0.065 0.0651-0.286 0.2409-0.664 0.5273-0.365 0.2865-0.84 0.625-1.426 1.0156-0.586 0.3907-1.269 0.8073-2.051 1.25-0.768 0.4297-1.588 0.8269-2.46 1.1915-0.86 0.3645-1.758 0.664-2.696 0.8984-0.937 0.2474-1.862 0.3711-2.773 0.3711-0.781 0-1.478-0.1498-2.09-0.4492-0.599-0.2995-1.113-0.7032-1.543-1.211-0.417-0.5078-0.736-1.0937-0.957-1.7578s-0.332-1.3607-0.332-2.0898c0-0.5599 0.111-1.1719 0.332-1.836 0.221-0.6771 0.54-1.3541 0.957-2.0312s0.924-1.3347 1.523-1.9727c0.612-0.651 1.296-1.2239 2.051-1.7187s1.582-0.892 2.481-1.1914c0.911-0.2995 1.881-0.4493 2.91-0.4493zm11.797 2.8321c0.508-0.3125 1.028-0.599 1.562-0.8594 0.547-0.2604 1.074-0.4818 1.582-0.6641 0.508-0.1953 0.99-0.345 1.446-0.4492 0.468-0.1172 0.885-0.1758 1.25-0.1758 0.585 0 1.035 0.1433 1.347 0.4297 0.326 0.2735 0.488 0.7422 0.488 1.4063 0 0.1432-6e-3 0.2995-0.019 0.4687-0.013 0.1563-0.039 0.3256-0.078 0.5078-0.065 0.3386-0.261 0.7357-0.586 1.1915-0.326 0.4557-0.71 0.9309-1.152 1.4257-0.43 0.4948-0.899 0.9961-1.407 1.5039-0.495 0.4948-0.957 0.9571-1.386 1.3868-0.417 0.4166-0.769 0.7812-1.055 1.0937-0.274 0.3125-0.41 0.5273-0.41 0.6445 0 0.1042 6e-3 0.1758 0.019 0.2149 0.013 0.039 0.072 0.0586 0.176 0.0586 0.703-0.2995 1.484-0.6576 2.344-1.0742 0.872-0.4297 1.738-0.8659 2.597-1.3086 0.86-0.4427 1.674-0.8724 2.442-1.2891 0.768-0.4297 1.419-0.8008 1.953-1.1133 0.117-0.0651 0.234-0.1172 0.352-0.1562 0.13-0.0521 0.247-0.0782 0.351-0.0782 0.234 0 0.43 0.0782 0.586 0.2344 0.156 0.1563 0.234 0.3646 0.234 0.625 0 0.2995-0.13 0.6445-0.39 1.0352-0.248 0.3776-0.671 0.7747-1.27 1.1914-0.455 0.2864-0.97 0.612-1.543 0.9765-0.56 0.3516-1.152 0.7227-1.777 1.1133-0.612 0.3776-1.237 0.7487-1.875 1.1133-0.625 0.3646-1.231 0.6901-1.816 0.9766-0.586 0.2864-1.14 0.5208-1.661 0.7031-0.507 0.1693-0.95 0.2539-1.328 0.2539-0.898 0-1.575-0.2148-2.031-0.6445-0.443-0.4297-0.664-0.9831-0.664-1.6602 0-0.1042 6e-3 -0.1823 0.019-0.2344 0.092-0.5729 0.261-1.1263 0.508-1.6601 0.248-0.5339 0.528-1.0417 0.84-1.5235 0.313-0.4817 0.638-0.9375 0.977-1.3671 0.338-0.4428 0.644-0.8529 0.918-1.2305 0.286-0.3906 0.52-0.7487 0.703-1.0742 0.182-0.3256 0.273-0.625 0.273-0.8985 0-0.0651-0.013-0.1302-0.039-0.1953s-0.084-0.0976-0.176-0.0976c-0.156 0-0.416 0.0586-0.781 0.1757-0.351 0.1172-0.729 0.2735-1.133 0.4688-0.403 0.1953-0.787 0.4232-1.152 0.6836-0.365 0.2474-0.625 0.5143-0.781 0.8008-0.209 0.3646-0.449 0.8268-0.723 1.3867-0.273 0.5599-0.56 1.1458-0.859 1.7578-0.287 0.612-0.567 1.2174-0.84 1.8164-0.274 0.599-0.508 1.1133-0.703 1.543-0.157 0.3776-0.365 0.7161-0.625 1.0156-0.248 0.2995-0.521 0.5534-0.821 0.7617-0.299 0.2084-0.605 0.3711-0.918 0.4883-0.312 0.1172-0.599 0.1758-0.859 0.1758-0.299 0-0.54-0.0781-0.723-0.2344-0.169-0.1562-0.254-0.4101-0.254-0.7617 0-0.1432 0.02-0.319 0.059-0.5274 0.052-0.2213 0.15-0.4622 0.293-0.7226 0.234-0.4427 0.469-0.9245 0.703-1.4453 0.248-0.5209 0.528-1.1133 0.84-1.7774 0.313-0.6771 0.671-1.4453 1.074-2.3047 0.417-0.8724 0.905-1.875 1.465-3.0078-0.182-0.1562-0.338-0.345-0.469-0.5664-0.117-0.2344-0.175-0.5208-0.175-0.8594 0-0.3124 0.065-0.5794 0.195-0.8007 0.13-0.2344 0.306-0.4232 0.527-0.5664 0.222-0.1433 0.475-0.2474 0.762-0.3125 0.299-0.0782 0.612-0.1172 0.937-0.1172 0.339 0 0.678 0.0325 1.016 0.0976 0.339 0.0521 0.638 0.1368 0.899 0.2539 0.273 0.1172 0.494 0.2605 0.664 0.4297 0.169 0.1693 0.253 0.3646 0.253 0.586 0 0.039-0.013 0.0911-0.039 0.1562s-0.058 0.1367-0.097 0.2149c-0.026 0.0781-0.052 0.1497-0.078 0.2148s-0.039 0.1172-0.039 0.1563c0 0.026 6e-3 0.039 0.019 0.039h0.02zm37.793-14.922c0.208 0.8984 0.416 1.8815 0.625 2.9492 0.208 1.0677 0.41 2.181 0.605 3.3399 0.208 1.1458 0.41 2.3177 0.606 3.5156 0.208 1.1849 0.41 2.3568 0.605 3.5156 0.208 1.1459 0.404 2.2591 0.586 3.3399 0.195 1.0677 0.391 2.0573 0.586 2.9687 1.315-2.5911 2.578-5.0456 3.789-7.3633 1.224-2.3177 2.363-4.3945 3.418-6.2304 1.055-1.849 2.012-3.418 2.871-4.7071 0.859-1.3021 1.602-2.233 2.227-2.7929 0.273-0.2605 0.56-0.4427 0.859-0.5469s0.592-0.1563 0.879-0.1563c0.417 0 0.768 0.1042 1.055 0.3125 0.299 0.2084 0.449 0.4753 0.449 0.8008 0 0.1953-0.033 0.3581-0.098 0.4883s-0.169 0.2734-0.312 0.4297c-0.534 0.612-1.035 1.1784-1.504 1.6992-0.469 0.5078-0.931 1.0482-1.387 1.6211-0.443 0.5599-0.892 1.1914-1.348 1.8945-0.442 0.7032-0.905 1.543-1.386 2.5196-0.586 1.0807-1.172 2.194-1.758 3.3398-0.586 1.1328-1.152 2.2656-1.699 3.3984-0.547 1.1198-1.075 2.2071-1.582 3.2618-0.495 1.0547-0.951 2.0312-1.368 2.9297-0.416 0.8854-0.794 1.6796-1.132 2.3828-0.339 0.6901-0.619 1.2304-0.84 1.6211-0.378 0.8072-0.814 1.4062-1.309 1.7968-0.482 0.3907-0.924 0.5925-1.328 0.6055h-0.137c-0.26-0.013-0.514-0.0651-0.761-0.1562-0.248-0.0912-0.476-0.2279-0.684-0.4102s-0.391-0.4102-0.547-0.6836c-0.143-0.2865-0.241-0.6185-0.293-0.9961-0.208-0.8203-0.397-1.6211-0.566-2.4023-0.156-0.7943-0.306-1.6016-0.449-2.4219-0.144-0.8333-0.293-1.6992-0.45-2.5977-0.143-0.9114-0.299-1.901-0.468-2.9687-0.17-1.0677-0.365-2.2331-0.586-3.4961-0.209-1.263-0.456-2.6628-0.743-4.1992-0.39 1.3021-0.865 2.7343-1.425 4.2968-0.56 1.5495-1.179 3.1185-1.856 4.7071-0.677 1.5755-1.406 3.1054-2.187 4.5898-0.782 1.4714-1.602 2.78-2.461 3.9258-0.86 1.1458-1.745 2.0638-2.657 2.7539-0.898 0.6901-1.803 1.0352-2.714 1.0352-0.157 0-0.339-0.0391-0.547-0.1172-0.209-0.0651-0.41-0.1693-0.606-0.3125-0.182-0.1302-0.338-0.293-0.468-0.4883-0.131-0.1953-0.196-0.4102-0.196-0.6445 0-0.1823 0.033-0.3451 0.098-0.4883 0.078-0.1563 0.182-0.3386 0.312-0.5469 0.17-0.2734 0.437-0.5078 0.801-0.7031 0.365-0.2084 0.781-0.4362 1.25-0.6836 0.482-0.2474 1.003-0.5339 1.563-0.8594 0.56-0.3385 1.119-0.7812 1.679-1.3281 0.313-0.2995 0.684-0.8333 1.114-1.6016 0.429-0.7812 0.892-1.6992 1.386-2.7539 0.508-1.0677 1.029-2.2331 1.563-3.4961 0.547-1.276 1.081-2.5586 1.601-3.8476 0.521-1.2891 1.016-2.5456 1.485-3.7696 0.469-1.2369 0.885-2.3437 1.25-3.3203 0.377-0.9896 0.683-1.8099 0.918-2.4609 0.234-0.6641 0.377-1.0677 0.429-1.2109 0.131-0.3907 0.339-0.6771 0.625-0.8594 0.3-0.1823 0.619-0.28 0.957-0.293-0.013 0-0.026 0.0065-0.039 0.0195h0.118c0.052-0.013 0.097-0.0195 0.136-0.0195 0.287 0 0.567 0.1432 0.84 0.4297 0.287 0.2734 0.488 0.7552 0.606 1.4453zm18.574 15.547c-0.612 0-1.205 0.1562-1.777 0.4687-0.56 0.2995-1.062 0.7032-1.504 1.211-0.43 0.4948-0.775 1.0612-1.036 1.6992-0.26 0.625-0.39 1.2695-0.39 1.9336 0 0.2474 0.019 0.5208 0.058 0.8203 0.04 0.2865 0.118 0.5599 0.235 0.8203 0.13 0.2474 0.312 0.4557 0.547 0.625 0.234 0.1693 0.547 0.2539 0.937 0.2539 0.599 0 1.179-0.1562 1.738-0.4687 0.573-0.3256 1.081-0.7422 1.524-1.25 0.443-0.5209 0.794-1.1068 1.055-1.7578 0.26-0.6511 0.39-1.3086 0.39-1.9727 0-0.2604-0.019-0.5273-0.058-0.8008-0.026-0.2864-0.105-0.5469-0.235-0.7812-0.117-0.2344-0.293-0.4232-0.527-0.5664-0.234-0.1563-0.553-0.2344-0.957-0.2344zm1.015-3.4375c0.495 0 1.023 0.0651 1.583 0.1953 0.572 0.1302 1.1 0.3516 1.582 0.6641 0.481 0.3125 0.878 0.7291 1.191 1.25 0.325 0.5078 0.488 1.1393 0.488 1.8945 0 0.3906-0.052 0.8398-0.156 1.3476-0.104 0.4948-0.26 1.0157-0.469 1.5625 0.13 0.1563 0.28 0.267 0.449 0.3321 0.17 0.0651 0.352 0.0976 0.547 0.0976 0.274 0 0.573-0.0781 0.899-0.2343 0.338-0.1563 0.683-0.3581 1.035-0.6055 0.351-0.2474 0.703-0.5274 1.055-0.8399 0.351-0.3125 0.683-0.625 0.996-0.9375 0.312-0.3125 0.592-0.6054 0.84-0.8789 0.26-0.2864 0.475-0.5273 0.644-0.7226 0.091-0.0912 0.202-0.1367 0.332-0.1367 0.182 0 0.345 0.0976 0.488 0.2929 0.144 0.1823 0.215 0.4427 0.215 0.7813 0 0.3385-0.104 0.7291-0.312 1.1719-0.196 0.4427-0.567 0.9049-1.114 1.3867-0.312 0.3385-0.67 0.7291-1.074 1.1719-0.403 0.4427-0.833 0.8593-1.289 1.25-0.456 0.3906-0.931 0.7226-1.426 0.996-0.494 0.2735-0.989 0.4102-1.484 0.4102-0.339 0-0.671-0.0521-0.996-0.1562-0.313-0.1042-0.632-0.2735-0.957-0.5079-0.469 0.7292-1.003 1.3933-1.602 1.9922-0.599 0.599-1.269 1.1133-2.011 1.543-0.73 0.4297-1.524 0.7617-2.383 0.9961-0.847 0.2474-1.751 0.3711-2.715 0.3711-0.365 0-0.788-0.0716-1.27-0.2149-0.481-0.1432-0.944-0.3776-1.386-0.7031-0.43-0.3385-0.795-0.7747-1.094-1.3086-0.3-0.5338-0.449-1.1849-0.449-1.9531 0-0.5208 0.084-1.1458 0.254-1.875 0.169-0.7292 0.423-1.4779 0.761-2.2461 0.352-0.7813 0.788-1.5495 1.309-2.3047 0.534-0.7682 1.165-1.4518 1.895-2.0508 0.729-0.6119 1.562-1.1002 2.5-1.4648 0.937-0.3776 1.979-0.5664 3.124-0.5664zm8.985 4.6484c0.404-0.8984 0.736-1.6211 0.996-2.168 0.26-0.5598 0.495-0.9895 0.703-1.289 0.221-0.3125 0.436-0.5208 0.645-0.625 0.221-0.1042 0.494-0.1563 0.82-0.1563 0.495 0 0.918 0.1628 1.269 0.4883 0.365 0.3125 0.547 0.7162 0.547 1.211 0 0.1171-0.019 0.2343-0.058 0.3515-0.026 0.1172-0.065 0.2344-0.117 0.3516l-3.321 7.8515c-0.052 0.1042-0.091 0.2214-0.117 0.3516-0.013 0.1172-0.019 0.2148-0.019 0.293 0 0.1692 0.032 0.2995 0.097 0.3906 0.078 0.0781 0.156 0.1172 0.235 0.1172 0.143 0 0.286-0.0326 0.429-0.0977 0.156-0.0651 0.332-0.1757 0.528-0.332 0.208-0.1693 0.455-0.3906 0.742-0.6641 0.299-0.2864 0.664-0.6445 1.094-1.0742 0.403-0.4297 0.82-0.944 1.25-1.543 0.429-0.6119 0.846-1.25 1.25-1.914 0.416-0.6771 0.8-1.3542 1.152-2.0313 0.351-0.6901 0.657-1.3281 0.918-1.914 0.195-0.3907 0.371-0.7031 0.527-0.9375 0.156-0.2474 0.306-0.4362 0.449-0.5664 0.157-0.1302 0.313-0.2149 0.469-0.2539 0.156-0.0521 0.339-0.0782 0.547-0.0782 0.794 0 1.191 0.3451 1.191 1.0352-0.026 0.1042-0.045 0.2213-0.058 0.3516 0 0.1302-0.033 0.2799-0.098 0.4492l-3.047 9.0039c0 0.3255 0.163 0.4883 0.489 0.4883 0.234-0.0261 0.54-0.1433 0.918-0.3516 0.39-0.2214 0.781-0.4948 1.171-0.8203 0.391-0.3386 0.756-0.7227 1.094-1.1524 0.339-0.4427 0.586-0.8984 0.742-1.3671 0.287-0.8594 0.573-1.7253 0.86-2.5977 0.299-0.8724 0.612-1.6602 0.937-2.3633 0.339-0.7161 0.697-1.3021 1.074-1.7578 0.391-0.4687 0.821-0.7227 1.29-0.7617 0.416 0 0.755 0.1367 1.015 0.4101 0.274 0.2605 0.41 0.6055 0.41 1.0352 0 0.5078-0.071 1.0547-0.215 1.6406-0.13 0.586-0.306 1.1719-0.527 1.7578-0.221 0.586-0.488 1.1524-0.801 1.6993-0.299 0.5468-0.612 1.0416-0.937 1.4843 0.091 0.2735 0.28 0.4102 0.566 0.4102 0.508 0 0.983-0.0391 1.426-0.1172 0.456-0.0781 0.892-0.1888 1.309-0.332 0.429-0.1563 0.852-0.3386 1.269-0.5469 0.43-0.2083 0.873-0.4492 1.328-0.7227 0.209-0.1432 0.417-0.2148 0.625-0.2148 0.261 0 0.495 0.0977 0.703 0.293 0.209 0.1953 0.313 0.4492 0.313 0.7617 0 0.2864-0.13 0.5794-0.391 0.8789-0.247 0.2995-0.579 0.5924-0.996 0.8789-0.416 0.2865-0.892 0.5534-1.426 0.8008-0.52 0.2474-1.054 0.4687-1.601 0.664-0.534 0.1823-1.055 0.3321-1.563 0.4493-0.494 0.1041-0.931 0.1562-1.308 0.1562-0.729 0-1.478-0.2083-2.246-0.625-0.912 1.0938-1.862 1.9271-2.852 2.5-0.976 0.5729-1.973 0.8594-2.988 0.8594-0.938 0-1.615-0.2409-2.031-0.7227-0.404-0.4948-0.606-1.2109-0.606-2.1484-0.976 0.9896-1.894 1.7187-2.754 2.1875-0.846 0.4557-1.719 0.6836-2.617 0.6836-0.573 0-1.055-0.0716-1.445-0.2149-0.378-0.1302-0.684-0.319-0.918-0.5664-0.235-0.2474-0.404-0.5338-0.508-0.8593-0.091-0.3386-0.137-0.7032-0.137-1.0938 0-0.638 0.091-1.3086 0.274-2.0117 0.182-0.7162 0.397-1.4063 0.644-2.0703 0.261-0.6641 0.514-1.2761 0.762-1.836 0.26-0.5729 0.469-1.0351 0.625-1.3867zm31.777 6.836c-0.052 0.4036-0.176 0.7877-0.371 1.1523s-0.436 0.6901-0.723 0.9766c-0.286 0.2734-0.612 0.4882-0.976 0.6445-0.365 0.1693-0.742 0.2539-1.133 0.2539-0.586 0-1.055-0.1888-1.406-0.5664-0.352-0.3906-0.527-0.8659-0.527-1.4258 0-0.4297 0.091-0.8398 0.273-1.2305 0.182-0.3906 0.423-0.7356 0.723-1.0351 0.312-0.3125 0.664-0.5599 1.054-0.7422 0.391-0.1823 0.795-0.2734 1.211-0.2734 0.586 0 1.048 0.1823 1.387 0.5468 0.338 0.3646 0.508 0.8269 0.508 1.3868v0.1562c0 0.0391-7e-3 0.0912-0.02 0.1563zm9.199-20.723c-0.716 1.3672-1.367 2.5977-1.953 3.6914-0.586 1.0807-1.159 2.1354-1.718 3.1641-0.56 1.0286-1.133 2.0898-1.719 3.1836-0.586 1.0807-1.237 2.3046-1.953 3.6718-0.196 0.3776-0.476 0.6641-0.84 0.8594-0.365 0.1823-0.703 0.2734-1.016 0.2734-0.26 0-0.475-0.052-0.644-0.1562-0.157-0.1172-0.235-0.293-0.235-0.5273 0-0.1563 0.033-0.306 0.098-0.4493 0.391-0.9114 0.755-1.7513 1.094-2.5195 0.338-0.7812 0.657-1.5299 0.957-2.2461 0.312-0.7161 0.612-1.4127 0.898-2.0898 0.287-0.6771 0.58-1.3672 0.879-2.0703 0.313-0.7162 0.638-1.4649 0.977-2.2461 0.338-0.7813 0.703-1.6276 1.093-2.5391 0.105-0.2344 0.248-0.4427 0.43-0.625 0.195-0.1823 0.417-0.332 0.664-0.4492 0.248-0.1302 0.508-0.2214 0.781-0.2735 0.274-0.0651 0.547-0.0976 0.821-0.0976 0.416 0 0.768 0.0781 1.054 0.2344 0.3 0.1562 0.45 0.4036 0.45 0.7422 0 0.1432-0.039 0.2994-0.118 0.4687z"/>
</mask>
<path d="m172.7 5.2415c-1.518 0-2.9211 0.2784-4.1641 0.71094-1.7566 0.61097-3.1596 1.559-4.2441 2.5449l-2e-3 -2e-3c-0.0274 0.02457-0.0528 0.05139-0.0801 0.07617-0.0475 0.04393-0.0983 0.08683-0.14453 0.13086l2e-3 2e-3c-0.50649 0.47226-0.98624 0.97614-1.4316 1.4961-0.28383-0.38547-0.60602-0.76643-0.96484-1.1387l2e-3 -2e-3c-1.419-1.4867-4.1402-3.5254-8.0742-3.5254-0.0412 0-0.0804 0.0015-0.12109 2e-3 -0.0314-2.89e-4 -0.0623-2e-3 -0.0937-2e-3 -0.13075 0-0.25718 7e-3 -0.38477 0.01172v-0.0039c-0.0699 0.0027-0.13937 0.0078-0.20898 0.01172-0.0351 2e-3 -0.0706 0.0035-0.10547 0.0059-1.9829 0.12839-3.8402 0.74051-5.457 1.7246-0.057 0.03456-0.11393 0.06978-0.16993 0.10547-2.612 1.662-4.0462 4.0451-4.7422 6.1348-0.086 0.23936-0.19063 0.52812-0.37305 1.0449-0.2036 0.56396-0.47443 1.2912-0.83008 2.2246-9e-3 0.0224-0.0183 0.04381-0.0273 0.06641-0.357 0.9578-0.76842 2.0499-1.2324 3.2754-0.44133 1.1536-0.91001 2.342-1.4043 3.5664-0.495 1.2245-1.0015 2.4424-1.5215 3.6543-6e-3 0.0153-0.0135 0.0296-0.0195 0.0449-0.15066 0.35608-0.29372 0.6803-0.43945 1.0137-0.85259-0.79933-1.7951-1.4288-2.7891-1.8945-0.60669-1.2255-1.4973-2.465-2.8086-3.5664l-2e-3 2e-3c-2.6848-2.2827-5.7357-2.7734-7.7773-2.7734-1.398 0-2.6538 0.21911-3.6758 0.47461v2e-3c-0.18349 0.04409-0.3668 0.08781-0.54688 0.13672-0.60543-0.17402-1.1898-0.29671-1.7363-0.38086v2e-3c-0.83289-0.13954-1.6792-0.21484-2.5371-0.21484-1.1242 0-2.2777 0.13649-3.4336 0.43555-1.3014-0.56652-2.5929-0.86818-3.7637-1.0156-0.51344-2.4847-1.9098-5.2175-4.8535-7.1016-1.953-1.2499-4.1858-1.8887-6.4648-1.8887-2.2357 0-4.2885 0.60353-6.041 1.5762-3e-3 0.0014-5e-3 0.0025-8e-3 0.0039-0.0306 0.01699-0.0614 0.03357-0.0918 0.05078l2e-3 2e-3c-2.4701 1.3937-3.9849 3.4009-4.877 5.0957-0.028 0.053-0.057 0.10666-0.084 0.16016l-1.3457 2.6699c-0.0691-0.02313-0.13919-0.04888-0.20704-0.07031-0.15213-0.04806-0.3037-0.09131-0.45507-0.13281-0.49924-0.88308-1.1292-1.718-1.8945-2.4785l4e-3 -0.0039c-3.191-3.1906-7.1513-3.377-8.6543-3.377-1.695 0-3.6821 0.31738-5.6641 1.3086-0.047 0.0237-0.0946 0.04787-0.14062 0.07227-1.388 0.7217-2.7072 1.7246-3.8262 3.041-0.44705 0.52595-0.84498 1.0837-1.1973 1.666-0.2007-0.0083-0.39881-0.01367-0.57813-0.01367-0.25162 0-0.49953 0.0099-0.74609 0.02539-1.656-0.54325-3.2462-0.70898-4.6055-0.70898-2.506 0-4.848 0.55826-6.957 1.4434-0.013 0.0058-0.027 0.01178-0.041 0.01758-0.11371 0.04833-0.22357 0.10201-0.33594 0.15234-1.6597-0.90659-3.3534-1.3398-4.8438-1.5195-0.32372-1.4396-0.83912-2.8771-1.5957-4.2695-1.2604-2.3406-3.0115-4.3313-5.1777-5.8828l2e-3 -2e-3c-1.983-1.4323-4.157-2.4221-6.4043-3.0469-2.135-0.597-4.315-0.87695-6.502-0.87695-2.062 0-4.1214 0.21745-6.1504 0.69727v2e-3c-1.7618 0.40418-3.488 0.96774-5.1504 1.7207-3e-3 0.0015-6e-3 0.0043-0.01 0.0059-0.0141 0.0064-0.0289 0.01116-0.043 0.01758-1.5755 0.7111-3.0881 1.5785-4.5039 2.625-0.0176 0.01285-0.0352 0.02616-0.0527 0.03906-0.01 0.0073-0.0196 0.01422-0.0293 0.02148-1.2821 0.94378-2.5147 2.028-3.6191 3.2832-0.0251 0.02849-0.0495 0.05717-0.0742 0.08594-1.0275 1.1947-1.9866 2.5723-2.7422 4.1465-0.0236 0.0492-0.0456 0.09884-0.0684 0.14844-0.7397 1.608-1.3652 3.6492-1.3652 5.9961 0 2.4412 0.707 5.6626 3.2793 8.3379 0.0453 0.0471 0.0925 0.0925 0.13868 0.13867 0.12246 0.12247 0.24651 0.23546 0.37109 0.34961l-1.4902 2.7266c-0.028 0.0512-0.055 0.10259-0.082 0.15429-0.5267 1.0055-0.91378 2.0456-1.1758 3.0938-0.2616 1.0462-0.41602 2.1676-0.41602 3.3438 0 1.0385 0.12951 1.9927 0.31641 2.834l9.75-2.168-0.0117 4e-3 -9.7383 2.1641c0.0379 0.1701 0.0803 0.33796 0.12695 0.50586 0.3874 1.3944 1.0212 2.708 1.8828 3.8828 1.2544 1.7107 2.8004 2.8192 4.1973 3.5176 2.116 1.0581 4.1433 1.252 5.4883 1.252 2.6864 0 5.0551-0.88196 6.9512-2.2109 2.1485 1.1941 4.5589 1.8398 7.0918 1.8398 1.6794 0 3.2783-0.25112 4.7793-0.66797 1.6351 0.55701 3.2755 0.78515 4.8301 0.78515 0.53691 0 1.0707-0.0245 1.5996-0.0664 0.11892 2.3848 0.93343 4.8499 2.6602 6.9688 0.046 0.0565 0.0936 0.11247 0.14062 0.16797 2.403 2.8209 5.7143 4.043 8.8223 4.043 1.354 0 2.9543-0.2077 4.6133-0.8711 2.046-0.8187 3.5019-2.0808 4.4629-3.1426 0.92842-1.0258 1.5885-2.0864 2.0664-2.9688l2e-3 2e-3c0.0182-0.0327 0.0347-0.0668 0.0527-0.0996 0.0151-0.0281 0.0342-0.0602 0.0488-0.0879h-2e-3c0.36575-0.67459 0.70095-1.3772 1.0059-2.0742l1.3496-2.4394c1.4336 0.41262 2.837 0.56835 4.0957 0.56835 1.7685 0 3.472-0.29819 5.0742-0.83593 0.37745 0.11838 0.75884 0.22214 1.1406 0.3125v2e-3c0.0312 8e-3 0.0625 0.014 0.0937 0.0215 0.0319 7e-3 0.0637 0.0163 0.0957 0.0234v-2e-3c1.3784 0.32189 2.7717 0.47851 4.1621 0.47851 1.6713 0 3.3258-0.20238 4.9473-0.5996v2e-3c0.0234-6e-3 0.0469-0.012 0.0703-0.0176 0.0326-8e-3 0.0651-0.0152 0.0977-0.0234v-2e-3c0.15685-0.0383 0.31348-0.0786 0.4707-0.12109 1.7163 0.61191 3.3287 0.76172 4.5703 0.76171 2.135 0 4.1326-0.42986 5.9336-1.1055 0.10039-0.0377 0.19919-0.0782 0.29883-0.11719 2.0013 0.87843 4.0433 1.2226 5.9551 1.2226 1.7813 0 3.5203-0.23954 5.1992-0.67187v2e-3c0.0367-9e-3 0.0728-0.02 0.10937-0.0293 1.4022 0.5188 2.77 0.69921 3.9297 0.69921 1.744 0 3.2371-0.3873 4.3711-0.8125 0.19028-0.0714 0.37674-0.14826 0.56055-0.22656 1.4567 0.42405 2.8318 0.55078 3.9356 0.55078 1.798 0 3.3522-0.38837 4.4902-0.76757 0.047-0.0157 0.0956-0.0324 0.14258-0.0488l-0.98242-2.8027h2e-3l0.98047 2.8027c0.952-0.3332 1.87-0.72705 2.748-1.1562 0.80057-0.39177 1.5963-0.82172 2.3848-1.2793 0.14242-0.0813 0.28237-0.16407 0.42383-0.24609 0.7189 1.0164 1.6139 1.9482 2.6875 2.7324l-2e-3 2e-3c0.89758 0.65841 1.9581 1.2466 3.1719 1.6699 0.89783 0.32353 2.2457 0.69532 3.8945 0.69532 3.5742 0 6.5426-1.3838 8.75-3.0645l2e-3 2e-3c0.56836-0.43048 1.1045-0.89039 1.6172-1.3672 0.14434 0.13951 0.29448 0.27673 0.44922 0.41211 1.082 0.9468 2.3586 1.7328 3.8106 2.2676 1.186 0.437 2.4358 0.69566 3.7188 0.75976 0.166 8e-3 0.334 0.0137 0.5 0.0137h0.13672c0.108 0 0.21526-2e-3 0.32226-6e-3 2.2065-0.0712 4.0209-0.76062 5.3906-1.5293 0.63434 0.29897 1.3007 0.56053 2.0039 0.76953 1.084 0.3222 2.5022 0.6289 4.1191 0.6289 1.7685 0 3.5654-0.22453 5.3457-0.72656v2e-3c0.058-0.0158 0.11592-0.0325 0.17383-0.0488v-2e-3c0.96501-0.27225 1.9144-0.61376 2.8379-1.0332 0.69806 0.40924 1.4021 0.73055 2.0879 0.97852l-2e-3 4e-3c0.0334 0.0122 0.0663 0.0213 0.0996 0.0332 0.0278 0.01 0.0562 0.0217 0.084 0.0312l2e-3 -2e-3c1.7542 0.61227 3.4128 0.76367 4.7031 0.76367 1.4141 0 2.7785-0.19682 4.0762-0.55664 1.4761 0.43453 2.8605 0.55664 3.9316 0.55664 2.9788 0 5.693-0.85886 8.0156-2.2148 0.2992-0.1736 0.59031-0.35563 0.875-0.54297 0.94418-0.0524 1.8143-0.18965 2.5645-0.34765 0.063-0.0133 0.1245-0.0266 0.1875-0.041 0.0798-0.0184 0.15875-0.0394 0.23828-0.0586 2.391 2.1584 5.3172 3.0293 7.9824 3.0293 1.7848 0 3.4983-0.38029 5.0703-1.0664l2e-3 4e-3c0.0574-0.0246 0.11289-0.0527 0.16992-0.0781 0.0335-0.0152 0.0682-0.0275 0.10156-0.043v-2e-3c1.3531-0.61602 2.5911-1.4501 3.6699-2.4805 0.056-0.0535 0.11297-0.10731 0.16797-0.16211 0.994-0.9942 1.8158-2.1137 2.4648-3.3242 0.69279-1.2941 1.1718-2.6986 1.4102-4.1719 0.0718-0.40252 0.16602-1.0572 0.16602-1.8594v-0.16c0-0.2812-0.0117-0.56585-0.0312-0.85156 0.26422-0.38838 0.5068-0.79034 0.72461-1.207h2e-3c0.699-1.3351 1.3268-2.517 1.8848-3.5469 8e-3 -0.0147 0.0154-0.0283 0.0234-0.043 0.576-1.0754 1.1385-2.1169 1.6875-3.125 0.562-1.0337 1.1386-2.0943 1.7266-3.1797 8e-3 -0.0146 0.0154-0.0283 0.0234-0.043 0.604-1.1267 1.271-2.3851 1.998-3.7734 0.077-0.148 0.1507-0.29957 0.2207-0.45117 0.509-1.1031 1.0371-2.701 1.0371-4.6582 0-1.6792-0.38464-3.6822-1.5566-5.6172-1.1301-1.867-2.6566-3.1136-4.1055-3.9004l2e-3 -0.0039c-2.107-1.1493-4.2068-1.4551-5.8438-1.4551-0.9958 0-1.9702 0.11268-2.9121 0.32031-1.1011 0.22995-2.1612 0.60213-3.1602 1.1074-1.0838 0.53579-2.1019 1.229-3.0156 2.082l4.4707 4.7891-4e-3 -2e-3 -4.4668-4.7871c-0.084 0.0784-0.16704 0.15704-0.24804 0.23828-1.046 1.0456-1.892 2.273-2.498 3.6348-0.018 0.0406-0.0357 0.08225-0.0527 0.12305-0.386 0.9011-0.74513 1.7348-1.0781 2.502-0.335 0.7741-0.65584 1.515-0.96484 2.2227-0.012 0.0269-0.0242 0.05308-0.0352 0.08008-0.23119 0.54196-0.4547 1.0706-0.67773 1.5977-2.2033-1.8588-4.8623-2.6582-7.3496-2.6582-0.278 0-0.55408 0.01216-0.83008 0.03516-0.74373 0.06198-1.4437 0.19072-2.1016 0.37109-1.4484-0.46474-2.7538-0.5625-3.6309-0.5625-0.90069 0-2.0235 0.0996-3.25 0.45117-0.23483 0.06531-0.46305 0.13762-0.6836 0.21484-1.2664-0.4423-2.5967-0.66602-3.9375-0.66602-0.91712 0-2.0681 0.09717-3.3203 0.45117 0.60148-1.5559 0.74219-2.9887 0.74219-4.0254 0-3.9459-2.0391-7.0541-4.5703-8.8867l2e-3 -2e-3c-0.0329-0.02394-0.0666-0.04487-0.0996-0.06836-0.0238-0.01686-0.0464-0.0361-0.0703-0.05273l-2e-3 2e-3c-2.2356-1.5654-4.6713-2.1055-6.7637-2.1055zm-34.74 37.471h2e-3l0.20703 0.36133v4e-3zm-0.0137 0.0234 0.22265 0.41406v4e-3zm0.10156 1.332h2e-3l-0.42383 1.127z" fill="#b90000"/>
<path d="m174.89 0.003374c-1.518 0-2.9211 0.2784-4.1641 0.71094-1.7566 0.61097-3.1596 1.559-4.2441 2.5449l-2e-3 -2e-3c-0.0274 0.02457-0.0528 0.05139-0.0801 0.07617-0.0475 0.04393-0.0983 0.08683-0.14453 0.13086l2e-3 2e-3c-0.50649 0.47226-0.98624 0.97614-1.4316 1.4961-0.28383-0.38547-0.60602-0.76643-0.96484-1.1387l2e-3 -2e-3c-1.419-1.4867-4.1402-3.5254-8.0742-3.5254-0.0412 0-0.0804 0.0015-0.12109 2e-3 -0.0314-2.89e-4 -0.0623-2e-3 -0.0937-2e-3 -0.13075 0-0.25718 7e-3 -0.38477 0.01172v-0.0039c-0.0699 0.0027-0.13937 0.0078-0.20898 0.01172-0.0351 2e-3 -0.0706 0.0035-0.10547 0.0059-1.9829 0.12839-3.8402 0.74051-5.457 1.7246-0.057 0.03456-0.11393 0.06978-0.16993 0.10547-2.612 1.662-4.0462 4.0451-4.7422 6.1348-0.086 0.23936-0.19063 0.52812-0.37305 1.0449-0.2036 0.56397-0.47443 1.2912-0.83008 2.2246-9e-3 0.0224-0.0183 0.04381-0.0273 0.06641-0.357 0.9578-0.76842 2.0499-1.2324 3.2754-0.44133 1.1536-0.91001 2.342-1.4043 3.5664-0.495 1.2245-1.0015 2.4424-1.5215 3.6543-6e-3 0.0153-0.0135 0.0296-0.0195 0.0449-0.15066 0.35608-0.29372 0.6803-0.43945 1.0137-0.85259-0.79933-1.7951-1.4288-2.7891-1.8945-0.60669-1.2255-1.4973-2.465-2.8086-3.5664l-2e-3 2e-3c-2.6848-2.2827-5.7357-2.7734-7.7773-2.7734-1.398 0-2.6538 0.21911-3.6758 0.47461v2e-3c-0.18349 0.04409-0.3668 0.08781-0.54688 0.13672-0.60543-0.17402-1.1898-0.29671-1.7363-0.38086v2e-3c-0.83289-0.13954-1.6792-0.21484-2.5371-0.21484-1.1242 0-2.2777 0.13649-3.4336 0.43555-1.3014-0.56652-2.5929-0.86818-3.7637-1.0156-0.51344-2.4847-1.9098-5.2175-4.8535-7.1016-1.953-1.2499-4.1858-1.8887-6.4648-1.8887-2.2357 0-4.2885 0.60353-6.041 1.5762-3e-3 0.0014-5e-3 0.0025-8e-3 0.0039-0.0306 0.01699-0.0614 0.03357-0.0918 0.05078l2e-3 2e-3c-2.4701 1.3937-3.9849 3.4009-4.877 5.0957-0.028 0.053-0.057 0.10666-0.084 0.16016l-1.3457 2.6699c-0.0691-0.02313-0.13919-0.04888-0.20704-0.07031-0.15213-0.04806-0.3037-0.09131-0.45507-0.13281-0.49924-0.88308-1.1292-1.718-1.8945-2.4785l4e-3 -0.0039c-3.191-3.1906-7.1513-3.377-8.6543-3.377-1.695 0-3.6821 0.31738-5.6641 1.3086-0.047 0.0237-0.0946 0.04787-0.14062 0.07227-1.388 0.7217-2.7072 1.7246-3.8262 3.041-0.44705 0.52595-0.84498 1.0837-1.1973 1.666-0.2007-0.0083-0.39881-0.01367-0.57813-0.01367-0.25162 0-0.49953 0.0099-0.74609 0.02539-1.656-0.54325-3.2462-0.70898-4.6055-0.70898-2.506 0-4.848 0.55826-6.957 1.4434-0.013 0.0058-0.027 0.01178-0.041 0.01758-0.11371 0.04833-0.22357 0.10201-0.33594 0.15234-1.6597-0.90659-3.3534-1.3398-4.8438-1.5195-0.32372-1.4396-0.83912-2.8771-1.5957-4.2695-1.2604-2.3406-3.0115-4.3313-5.1777-5.8828l2e-3 -2e-3c-1.983-1.4323-4.157-2.4221-6.4043-3.0469-2.135-0.597-4.315-0.87695-6.502-0.87695-2.062 0-4.1214 0.21745-6.1504 0.69727v2e-3c-1.7618 0.40418-3.488 0.96774-5.1504 1.7207-3e-3 0.0015-6e-3 0.0043-0.01 0.0059-0.0141 0.0064-0.0289 0.01116-0.043 0.01758-1.5755 0.7111-3.0881 1.5785-4.5039 2.625-0.0176 0.01285-0.0352 0.02616-0.0527 0.03906-0.01 0.0073-0.0196 0.01422-0.0293 0.02148-1.2821 0.94378-2.5147 2.028-3.6191 3.2832-0.0251 0.02849-0.0495 0.05717-0.0742 0.08594-1.0275 1.1947-1.9866 2.5723-2.7422 4.1465-0.0236 0.0492-0.0456 0.09884-0.0684 0.14844-0.7397 1.608-1.3652 3.6492-1.3652 5.9961 0 2.4412 0.707 5.6626 3.2793 8.3379 0.0453 0.0471 0.0925 0.0925 0.13868 0.13867 0.12246 0.12247 0.24651 0.23546 0.37109 0.34961l-1.4902 2.7266c-0.028 0.0512-0.055 0.10259-0.082 0.15429-0.5267 1.0055-0.91378 2.0456-1.1758 3.0938-0.2616 1.0462-0.41602 2.1676-0.41602 3.3438 0 1.0385 0.12951 1.9927 0.31641 2.834l9.75-2.168-0.0117 4e-3 -9.7383 2.1641c0.0379 0.1701 0.0803 0.33796 0.12695 0.50586 0.3874 1.3944 1.0212 2.708 1.8828 3.8828 1.2544 1.7107 2.8004 2.8192 4.1973 3.5176 2.116 1.0581 4.1433 1.252 5.4883 1.252 2.6864 0 5.0551-0.88196 6.9512-2.2109 2.1485 1.1941 4.5589 1.8398 7.0918 1.8398 1.6794 0 3.2783-0.25112 4.7793-0.66797 1.6351 0.55701 3.2755 0.78515 4.8301 0.78515 0.53691 0 1.0707-0.0245 1.5996-0.0664 0.11892 2.3848 0.93343 4.8499 2.6602 6.9688 0.046 0.0565 0.0936 0.11247 0.14062 0.16797 2.403 2.8209 5.7143 4.043 8.8223 4.043 1.354 0 2.9543-0.2077 4.6133-0.8711 2.046-0.8187 3.5019-2.0808 4.4629-3.1426 0.92842-1.0258 1.5885-2.0864 2.0664-2.9688l2e-3 2e-3c0.0182-0.0327 0.0347-0.0668 0.0527-0.0996 0.0151-0.0281 0.0342-0.0602 0.0488-0.0879h-2e-3c0.36575-0.67459 0.70095-1.3772 1.0059-2.0742l1.3496-2.4394c1.4336 0.41262 2.837 0.56835 4.0957 0.56835 1.7685 0 3.472-0.29819 5.0742-0.83593 0.37745 0.11838 0.75884 0.22214 1.1406 0.3125v2e-3c0.0312 8e-3 0.0625 0.014 0.0937 0.0215 0.0319 7e-3 0.0637 0.0163 0.0957 0.0234v-2e-3c1.3784 0.32189 2.7717 0.47851 4.1621 0.47851 1.6713 0 3.3258-0.20238 4.9473-0.5996v2e-3c0.0234-6e-3 0.0469-0.012 0.0703-0.0176 0.0326-8e-3 0.0651-0.0152 0.0977-0.0234v-2e-3c0.15685-0.0383 0.31348-0.0786 0.4707-0.12109 1.7163 0.61191 3.3287 0.76172 4.5703 0.76171 2.135 0 4.1326-0.42986 5.9336-1.1055 0.10039-0.0377 0.19919-0.0782 0.29883-0.11719 2.0013 0.87843 4.0433 1.2226 5.9551 1.2226 1.7813 0 3.5203-0.23954 5.1992-0.67187v2e-3c0.0367-9e-3 0.0728-0.02 0.10937-0.0293 1.4022 0.5188 2.77 0.69921 3.9297 0.69921 1.744 0 3.2371-0.3873 4.3711-0.8125 0.19028-0.0714 0.37674-0.14826 0.56055-0.22656 1.4567 0.42405 2.8318 0.55078 3.9356 0.55078 1.798 0 3.3522-0.38837 4.4902-0.76757 0.047-0.0157 0.0956-0.0324 0.14258-0.0488l-0.98242-2.8027h2e-3l0.98047 2.8027c0.952-0.3332 1.87-0.72705 2.748-1.1562 0.80057-0.39177 1.5963-0.82172 2.3848-1.2793 0.14242-0.0813 0.28237-0.16407 0.42383-0.24609 0.7189 1.0164 1.6139 1.9482 2.6875 2.7324l-2e-3 2e-3c0.89758 0.65841 1.9581 1.2466 3.1719 1.6699 0.89783 0.32353 2.2457 0.69532 3.8945 0.69532 3.5742 0 6.5426-1.3838 8.75-3.0645l2e-3 2e-3c0.56836-0.43048 1.1045-0.89039 1.6172-1.3672 0.14434 0.13951 0.29448 0.27673 0.44922 0.41211 1.082 0.9468 2.3586 1.7328 3.8106 2.2676 1.186 0.437 2.4358 0.69566 3.7188 0.75976 0.166 8e-3 0.334 0.0137 0.5 0.0137h0.13672c0.108 0 0.21526-2e-3 0.32226-6e-3 2.2065-0.0712 4.0209-0.76062 5.3906-1.5293 0.63434 0.29897 1.3007 0.56053 2.0039 0.76953 1.084 0.3222 2.5022 0.6289 4.1191 0.6289 1.7685 0 3.5654-0.22453 5.3457-0.72656v2e-3c0.058-0.0158 0.11592-0.0325 0.17383-0.0488v-2e-3c0.96501-0.27225 1.9144-0.61376 2.8379-1.0332 0.69806 0.40924 1.4021 0.73055 2.0879 0.97852l-2e-3 4e-3c0.0334 0.0122 0.0663 0.0213 0.0996 0.0332 0.0278 0.01 0.0562 0.0217 0.084 0.0312l2e-3 -2e-3c1.7542 0.61227 3.4128 0.76367 4.7031 0.76367 1.4141 0 2.7785-0.19682 4.0762-0.55664 1.4761 0.43453 2.8605 0.55664 3.9316 0.55664 2.9788 0 5.693-0.85886 8.0156-2.2148 0.2992-0.1736 0.59031-0.35563 0.875-0.54297 0.94418-0.0524 1.8143-0.18965 2.5645-0.34765 0.063-0.0133 0.1245-0.0266 0.1875-0.041 0.0798-0.0184 0.15875-0.0394 0.23828-0.0586 2.391 2.1584 5.3172 3.0293 7.9824 3.0293 1.7848 0 3.4983-0.38029 5.0703-1.0664l2e-3 4e-3c0.0574-0.0246 0.11289-0.0527 0.16992-0.0781 0.0335-0.0152 0.0682-0.0275 0.10156-0.043v-2e-3c1.3531-0.61602 2.5911-1.4501 3.6699-2.4805 0.056-0.0535 0.11297-0.10731 0.16797-0.16211 0.994-0.9942 1.8158-2.1137 2.4648-3.3242 0.69279-1.2941 1.1718-2.6986 1.4102-4.1719 0.0718-0.40252 0.16602-1.0572 0.16602-1.8594v-0.16c0-0.2812-0.0117-0.56585-0.0312-0.85156 0.26422-0.38838 0.5068-0.79034 0.72461-1.207h2e-3c0.699-1.3351 1.3268-2.517 1.8848-3.5469 8e-3 -0.0147 0.0154-0.0283 0.0234-0.043 0.576-1.0754 1.1385-2.1169 1.6875-3.125 0.562-1.0337 1.1386-2.0943 1.7266-3.1797 8e-3 -0.0146 0.0154-0.0283 0.0234-0.043 0.604-1.1267 1.271-2.3851 1.998-3.7734 0.077-0.148 0.1507-0.29957 0.2207-0.45117 0.509-1.1031 1.0371-2.701 1.0371-4.6582 0-1.6792-0.38464-3.6822-1.5566-5.6172-1.1301-1.867-2.6566-3.1136-4.1055-3.9004l2e-3 -0.0039c-2.107-1.1493-4.2068-1.4551-5.8438-1.4551-0.9958 0-1.9702 0.11268-2.9121 0.32031-1.1011 0.22995-2.1612 0.60213-3.1602 1.1074-1.0838 0.53579-2.1019 1.229-3.0156 2.082l4.4707 4.7891-4e-3 -2e-3 -4.4668-4.7871c-0.084 0.0784-0.16704 0.15704-0.24804 0.23828-1.046 1.0456-1.892 2.273-2.498 3.6348-0.018 0.0406-0.0357 0.08225-0.0527 0.12305-0.386 0.9011-0.74513 1.7348-1.0781 2.502-0.335 0.7741-0.65584 1.515-0.96484 2.2227-0.012 0.0269-0.0242 0.05308-0.0352 0.08008-0.23119 0.54196-0.4547 1.0706-0.67773 1.5977-2.2033-1.8588-4.8623-2.6582-7.3496-2.6582-0.278 0-0.55408 0.01216-0.83008 0.03516-0.74373 0.06198-1.4437 0.19072-2.1016 0.37109-1.4484-0.46474-2.7538-0.5625-3.6309-0.5625-0.90069 0-2.0235 0.0996-3.25 0.45117-0.23483 0.06531-0.46305 0.13762-0.6836 0.21484-1.2664-0.4423-2.5967-0.66602-3.9375-0.66602-0.91712 0-2.0681 0.09717-3.3203 0.45117 0.60148-1.5559 0.74219-2.9887 0.74219-4.0254 0-3.9459-2.0391-7.0541-4.5703-8.8867l2e-3 -2e-3c-0.0329-0.02394-0.0666-0.04487-0.0996-0.06836-0.0238-0.01686-0.0464-0.0361-0.0703-0.05273l-2e-3 2e-3c-2.2356-1.5654-4.6713-2.1055-6.7637-2.1055zm-34.74 37.471h2e-3l0.20703 0.36133v4e-3zm-0.0137 0.0234 0.22265 0.41406v4e-3zm0.10156 1.332h2e-3l-0.42383 1.127z" fill="#e34b37"/>
<path d="m22.978 25.978c0.078 0.013 0.156 0.0195 0.234 0.0195h0.274c1.132 0 2.2-0.2409 3.203-0.7227 1.015-0.4948 1.901-1.1198 2.656-1.875s1.348-1.595 1.777-2.5195c0.443-0.9245 0.664-1.8229 0.664-2.6953 0-0.625-0.117-1.2175-0.351-1.7774-0.221-0.5599-0.58-1.0481-1.074-1.4648-0.482-0.4167-1.107-0.7487-1.875-0.9961-0.756-0.2474-1.661-0.3711-2.715-0.3711-1.185 0-2.207 0.1107-3.067 0.332-0.846 0.2214-1.582 0.5079-2.207 0.8594-0.612 0.3516-1.132 0.7552-1.562 1.211-0.417 0.4557-0.781 0.9244-1.094 1.4062-0.299 0.4818-0.573 0.9505-0.82 1.4063-0.248 0.4557-0.508 0.8593-0.781 1.2109-0.261 0.3516-0.554 0.638-0.879 0.8594-0.326 0.2213-0.73 0.332-1.211 0.332-0.651 0-1.14-0.1628-1.465-0.4883-0.326-0.3385-0.488-0.8073-0.488-1.4062 0-0.5599 0.149-1.1654 0.449-1.8164 0.312-0.6511 0.749-1.3021 1.308-1.9532 0.573-0.651 1.27-1.276 2.09-1.875 0.821-0.6119 1.739-1.1458 2.754-1.6015 1.029-0.4688 2.149-0.8399 3.36-1.1133 1.21-0.2865 2.493-0.4297 3.847-0.4297 1.328 0 2.598 0.1693 3.809 0.5078 1.224 0.3386 2.304 0.8464 3.242 1.5235 0.937 0.664 1.68 1.5039 2.227 2.5195 0.559 1.0156 0.839 2.2005 0.839 3.5547 0 0.9114-0.169 1.7838-0.507 2.6172-0.326 0.8203-0.769 1.595-1.329 2.3242-0.559 0.7161-1.217 1.3802-1.972 1.9922-0.742 0.5989-1.537 1.1328-2.383 1.6015-0.846 0.4688-1.719 0.8659-2.617 1.1914-0.886 0.3256-1.745 0.5599-2.578 0.7032 0.117 0.6119 0.306 1.302 0.566 2.0703 0.273 0.7552 0.599 1.4778 0.977 2.1679 0.39 0.6771 0.82 1.2566 1.289 1.7383 0.468 0.4818 0.963 0.7422 1.484 0.7813 0.104 0.013 0.202 0.0195 0.293 0.0195h0.273c0.951 0 1.797-0.1562 2.54-0.4687 0.742-0.3125 1.36-0.6576 1.855-1.0352 0.586-0.4297 1.094-0.931 1.523-1.5039 0.404-0.4557 0.814-0.6836 1.231-0.6836 0.26 0 0.482 0.0911 0.664 0.2734s0.273 0.4297 0.273 0.7422c0 0.2995-0.097 0.6511-0.293 1.0547-0.182 0.3906-0.501 0.8008-0.957 1.2305-1.341 1.263-2.656 2.1875-3.945 2.7734-1.276 0.5729-2.487 0.8594-3.633 0.8594-0.937 0-1.803-0.2669-2.597-0.8008-0.795-0.5338-1.517-1.2565-2.168-2.168-0.651-0.9114-1.244-1.9726-1.778-3.1835-0.534-1.224-1.009-2.5131-1.425-3.8672-0.235 0.5338-0.476 1.1653-0.723 1.8945-0.248 0.7161-0.514 1.4583-0.801 2.2266-0.286 0.7682-0.586 1.5299-0.898 2.2851-0.313 0.7422-0.658 1.4128-1.035 2.0117-0.378 0.586-0.782 1.0612-1.211 1.4258-0.43 0.3646-0.899 0.5469-1.407 0.5469-0.416 0-0.755-0.0651-1.015-0.1953-0.261-0.1302-0.463-0.293-0.606-0.4883s-0.247-0.4102-0.312-0.6445c-0.052-0.2344-0.078-0.4558-0.078-0.6641 0-0.2995 0.039-0.6055 0.117-0.918s0.189-0.6054 0.332-0.8789l5.762-10.547c0.494-0.8854 0.989-1.7382 1.484-2.5585 0.508-0.8334 0.996-1.5691 1.465-2.2071 0.482-0.638 0.931-1.1458 1.347-1.5234 0.43-0.3906 0.814-0.586 1.153-0.586 0.091 0 0.202 0.0196 0.332 0.0586 0.13 0.0261 0.247 0.0847 0.351 0.1758 0.105 0.0782 0.196 0.2018 0.274 0.3711 0.078 0.1563 0.117 0.3581 0.117 0.6055s-0.072 0.5924-0.215 1.0351c-0.143 0.4428-0.332 0.9506-0.566 1.5235-0.235 0.5729-0.508 1.2044-0.821 1.8945-0.312 0.6771-0.638 1.3737-0.976 2.0899zm20.137 1.1914c-0.066-0.0131-0.124-0.0196-0.176-0.0196h-0.176c-0.495 0-0.957 0.0977-1.387 0.293-0.429 0.1953-0.827 0.4557-1.191 0.7812-0.352 0.3126-0.671 0.6706-0.957 1.0743-0.274 0.4036-0.521 0.8073-0.742 1.2109-0.222 0.3906-0.411 0.7682-0.567 1.1328-0.143 0.3646-0.254 0.6706-0.332 0.918 0.456-0.2344 0.925-0.5013 1.406-0.8008 0.495-0.2995 0.958-0.5859 1.387-0.8594 0.43-0.2734 0.801-0.5208 1.113-0.7422 0.326-0.2213 0.554-0.371 0.684-0.4492 0.586-0.3646 0.99-0.7031 1.211-1.0156 0.221-0.3255 0.332-0.6055 0.332-0.8398 0-0.1954-0.065-0.3516-0.195-0.4688-0.117-0.1172-0.254-0.1888-0.41-0.2148zm0.703-2.6954c1.08 0 1.888 0.2605 2.422 0.7813 0.533 0.5208 0.8 1.2435 0.8 2.168 0 0.5468-0.143 1.1198-0.429 1.7187-0.287 0.599-0.782 1.211-1.485 1.836-0.703 0.6119-1.647 1.2434-2.832 1.8945-1.172 0.638-2.643 1.2825-4.414 1.9336 0.065 0.3776 0.267 0.6771 0.606 0.8984 0.338 0.2084 0.787 0.3125 1.347 0.3125 0.599 0 1.237-0.0846 1.914-0.2539 0.69-0.1823 1.368-0.4101 2.032-0.6836 0.677-0.2734 1.334-0.5664 1.972-0.8789 0.638-0.3255 1.211-0.6315 1.719-0.918 0.521-0.2864 0.951-0.5338 1.289-0.7421 0.352-0.2084 0.586-0.3386 0.703-0.3907 0.117-0.0781 0.222-0.1237 0.313-0.1367 0.104-0.013 0.195-0.0195 0.273-0.0195 0.156 0 0.287 0.039 0.391 0.1172 0.104 0.0651 0.189 0.1497 0.254 0.2539 0.078 0.0911 0.13 0.1953 0.156 0.3125 0.026 0.1041 0.039 0.1953 0.039 0.2734 0 0.1172-0.013 0.2604-0.039 0.4297-0.026 0.1563-0.124 0.3385-0.293 0.5469-0.065 0.0651-0.286 0.2409-0.664 0.5273-0.365 0.2865-0.84 0.625-1.426 1.0156-0.586 0.3907-1.269 0.8073-2.051 1.25-0.768 0.4297-1.588 0.8269-2.461 1.1915-0.859 0.3645-1.757 0.664-2.695 0.8984-0.937 0.2474-1.862 0.3711-2.773 0.3711-0.782 0-1.478-0.1498-2.09-0.4492-0.599-0.2995-1.113-0.7032-1.543-1.211-0.417-0.5078-0.736-1.0937-0.957-1.7578-0.222-0.6641-0.332-1.3607-0.332-2.0898 0-0.5599 0.11-1.1719 0.332-1.836 0.221-0.6771 0.54-1.3541 0.957-2.0312s0.924-1.3347 1.523-1.9727c0.612-0.651 1.296-1.2239 2.051-1.7187s1.582-0.892 2.481-1.1914c0.911-0.2995 1.881-0.4493 2.91-0.4493zm14.043 0.0196c0.573 0 1.074 0.0716 1.504 0.2148 0.429 0.1433 0.794 0.2995 1.093 0.4688 0.339 0.2083 0.638 0.4362 0.899 0.6836 0.182-0.1172 0.377-0.2279 0.586-0.3321 0.182-0.0911 0.384-0.1692 0.605-0.2343 0.222-0.0782 0.443-0.1172 0.664-0.1172 0.573 0 1.016 0.1172 1.328 0.3515 0.313 0.2344 0.469 0.5144 0.469 0.8399 0 0.1693-0.045 0.3385-0.137 0.5078l-4.57 8.6523 0.371-0.332c1.537-0.8984 2.8-1.6016 3.789-2.1094 0.99-0.5208 1.778-0.9049 2.363-1.1523 0.586-0.2474 1.003-0.3971 1.25-0.4492 0.261-0.0651 0.424-0.0977 0.489-0.0977 0.299 0 0.527 0.1172 0.683 0.3516 0.17 0.2213 0.254 0.5013 0.254 0.8398 0 0.3776-0.11 0.7617-0.332 1.1524-0.208 0.3906-0.534 0.6705-0.976 0.8398-0.586 0.2995-1.27 0.625-2.051 0.9766-0.781 0.3385-1.595 0.7161-2.441 1.1328-0.847 0.4166-1.7 0.8854-2.559 1.4062-0.846 0.5078-1.641 1.0743-2.383 1.6993l-3.789 6.8554c-0.312 0.7422-0.599 1.3477-0.859 1.8164-0.248 0.4688-0.495 0.8399-0.743 1.1133-0.247 0.2734-0.501 0.4622-0.761 0.5664-0.261 0.1042-0.56 0.1563-0.899 0.1563-0.507 0-0.911-0.1758-1.211-0.5274-0.286-0.3515-0.429-0.7747-0.429-1.2695 0-0.5208 0.123-1.1263 0.371-1.8164 0.247-0.6901 0.592-1.4388 1.035-2.2461 0.456-0.7943 1.003-1.6341 1.641-2.5195 0.638-0.8724 1.347-1.7644 2.128-2.6758l2.422-3.086c-0.494 0.4558-0.983 0.8464-1.464 1.1719-0.482 0.3255-0.945 0.5925-1.387 0.8008-0.443 0.1953-0.86 0.3385-1.25 0.4297-0.378 0.0911-0.71 0.1367-0.996 0.1367-0.521 0-1.003-0.1172-1.446-0.3516-0.442-0.2474-0.826-0.5859-1.152-1.0156-0.312-0.4297-0.56-0.9375-0.742-1.5234-0.182-0.586-0.274-1.224-0.274-1.9141 0-1.4323 0.274-2.7279 0.821-3.8867 0.56-1.1589 1.269-2.1419 2.129-2.9492 0.872-0.8203 1.829-1.4518 2.871-1.8946 1.054-0.4427 2.083-0.664 3.086-0.664zm-0.743 3.4375c-0.612 0-1.204 0.1562-1.777 0.4687-0.573 0.2995-1.081 0.7032-1.523 1.211-0.443 0.4948-0.795 1.0677-1.055 1.7187-0.26 0.6511-0.391 1.3216-0.391 2.0117 0 0.2084 0.013 0.4362 0.039 0.6836 0.04 0.2344 0.111 0.4558 0.215 0.6641 0.117 0.2083 0.28 0.3841 0.489 0.5273 0.221 0.1302 0.52 0.1954 0.898 0.1954 0.273 0 0.592-0.1172 0.957-0.3516 0.378-0.2474 0.762-0.5534 1.152-0.918 0.404-0.3776 0.795-0.7877 1.172-1.2304 0.378-0.4558 0.716-0.8985 1.016-1.3282 0.312-0.4297 0.56-0.8138 0.742-1.1523 0.182-0.3516 0.273-0.612 0.273-0.7813 0-0.2864-0.078-0.5338-0.234-0.7422-0.156-0.2213-0.351-0.4036-0.586-0.5468-0.221-0.1433-0.462-0.2474-0.722-0.3125-0.248-0.0782-0.469-0.1172-0.665-0.1172zm14.825-6.1328c0-0.2995 0.052-0.6055 0.156-0.918 0.117-0.3255 0.286-0.6185 0.508-0.8789 0.221-0.2604 0.495-0.4753 0.82-0.6445 0.339-0.1693 0.736-0.2539 1.191-0.2539 0.756 0 1.283 0.1497 1.583 0.4492 0.299 0.2864 0.449 0.651 0.449 1.0937 0 0.2474-0.052 0.5209-0.157 0.8203-0.091 0.2995-0.234 0.5795-0.429 0.8399-0.196 0.2474-0.449 0.4557-0.762 0.625-0.312 0.1693-0.684 0.2539-1.113 0.2539-0.808 0-1.374-0.1237-1.699-0.3711-0.326-0.2604-0.508-0.599-0.547-1.0156zm-2.149 4.3945c0.222-0.3646 0.476-0.625 0.762-0.7812 0.286-0.1563 0.579-0.2344 0.879-0.2344 0.495 0 0.918 0.1627 1.269 0.4883 0.365 0.3125 0.547 0.7161 0.547 1.2109-0.013 0.1172-0.032 0.2344-0.058 0.3516-0.013 0.1171-0.052 0.2343-0.118 0.3515-0.182 0.3386-0.332 0.625-0.449 0.8594s-0.228 0.4557-0.332 0.6641l-0.273 0.5859c-0.091 0.1953-0.202 0.4297-0.332 0.7031-0.156 0.3255-0.332 0.6836-0.528 1.0742-0.195 0.3776-0.384 0.7683-0.566 1.1719-0.169 0.4037-0.319 0.8008-0.449 1.1914-0.117 0.3906-0.176 0.7487-0.176 1.0742 0 0.3516 0.085 0.586 0.254 0.7032 0.182 0.1041 0.436 0.1562 0.762 0.1562 0.364 0 0.742-0.0781 1.132-0.2344 0.404-0.1562 0.808-0.358 1.211-0.6054 0.404-0.2474 0.801-0.5274 1.192-0.8399 0.39-0.3255 0.755-0.651 1.094-0.9765 0.351-0.3256 0.67-0.6381 0.957-0.9375 0.299-0.2995 0.546-0.5664 0.742-0.8008 0.26-0.2474 0.521-0.3711 0.781-0.3711 0.234 0 0.423 0.1042 0.566 0.3125 0.157 0.2083 0.235 0.4752 0.235 0.8008 0 0.2994-0.078 0.6185-0.235 0.957-0.143 0.3385-0.384 0.6576-0.722 0.957-0.664 0.6771-1.341 1.3282-2.031 1.9532-0.691 0.6119-1.4 1.1588-2.129 1.6406-0.717 0.4687-1.439 0.8463-2.168 1.1328-0.73 0.2865-1.465 0.4297-2.207 0.4297-1.055 0-1.888-0.2669-2.5-0.8008-0.599-0.5469-0.899-1.3932-0.899-2.5391 0-0.5989 0.085-1.1849 0.254-1.7578s0.371-1.1263 0.606-1.6601c0.234-0.5469 0.481-1.0677 0.742-1.5625 0.26-0.5078 0.482-0.9896 0.664-1.4453 0.065-0.1693 0.176-0.4297 0.332-0.7813 0.169-0.3516 0.345-0.7096 0.527-1.0742 0.209-0.4297 0.43-0.8854 0.664-1.3672zm12.422 1.5039c0.794 0.4167 1.504 0.8919 2.129 1.4258 0.625 0.5338 1.152 1.1002 1.582 1.6992 0.443 0.5859 0.775 1.1849 0.996 1.7969 0.235 0.612 0.352 1.2109 0.352 1.7969 0 0.7421-0.215 1.4127-0.645 2.0117-0.416 0.5859-0.97 1.0872-1.66 1.5039-0.677 0.4036-1.458 0.7096-2.344 0.9179-0.872 0.2214-1.758 0.3321-2.656 0.3321-0.677 0-1.335-0.0781-1.973-0.2344-0.638-0.1432-1.224-0.3711-1.757-0.6836-0.521-0.3125-0.97-0.7096-1.348-1.1914-0.378-0.4948-0.645-1.0807-0.801-1.7578-0.026-0.1042-0.039-0.1888-0.039-0.2539 0-0.3516 0.124-0.6511 0.371-0.8984 0.248-0.2605 0.521-0.3907 0.82-0.3907 0.144 0 0.3 0.0261 0.469 0.0781 0.183 0.0521 0.319 0.1693 0.41 0.3516 0.17 0.3125 0.404 0.5925 0.703 0.8399 0.313 0.2474 0.658 0.4622 1.036 0.6445 0.377 0.1693 0.774 0.306 1.191 0.4101 0.43 0.0912 0.846 0.1368 1.25 0.1368 0.417 0 0.814-0.0391 1.191-0.1172 0.391-0.0781 0.73-0.2018 1.016-0.3711 0.3-0.1693 0.534-0.3841 0.703-0.6446 0.169-0.2604 0.254-0.5794 0.254-0.957 0-0.664-0.15-1.276-0.449-1.8359-0.3-0.5599-0.69-1.0742-1.172-1.543-0.469-0.4818-1.009-0.9245-1.621-1.3281-0.599-0.4167-1.198-0.8138-1.797-1.1914-0.065-0.0391-0.163-0.1498-0.293-0.332-0.13-0.1954-0.195-0.3907-0.195-0.586 0-0.1562 0.039-0.2799 0.117-0.3711 0.208-0.2734 0.449-0.5534 0.723-0.8398 0.273-0.2865 0.566-0.5469 0.879-0.7813 0.312-0.2474 0.651-0.4427 1.015-0.5859 0.365-0.1563 0.742-0.2344 1.133-0.2344 0.286 0 0.553 0.0391 0.801 0.1172 0.247 0.0781 0.455 0.1823 0.625 0.3125 0.169 0.1172 0.299 0.2539 0.39 0.4102 0.105 0.1432 0.157 0.2799 0.157 0.4101 0 0.1823-0.046 0.3581-0.137 0.5274-0.091 0.1692-0.215 0.332-0.371 0.4882-0.143 0.1563-0.313 0.3125-0.508 0.4688-0.182 0.1562-0.365 0.306-0.547 0.4492zm12.168 0.1367c-0.482 0.9375-0.937 1.8555-1.367 2.7539-0.43 0.8854-0.833 1.7058-1.211 2.461-0.156 0.3125-0.313 0.6771-0.469 1.0937-0.143 0.4037-0.215 0.7617-0.215 1.0742 0 0.1823 0.039 0.3256 0.118 0.4297 0.091 0.1042 0.234 0.1563 0.429 0.1563 0.274 0 0.619-0.0782 1.035-0.2344 0.417-0.1693 0.866-0.3841 1.348-0.6445 0.482-0.2735 0.99-0.5795 1.523-0.918 0.534-0.3516 1.055-0.7096 1.563-1.0742 0.521-0.3776 1.016-0.7487 1.484-1.1133 0.469-0.3776 0.886-0.7227 1.25-1.0352 0.209-0.1432 0.404-0.2148 0.586-0.2148 0.222 0 0.404 0.0977 0.547 0.293s0.215 0.4427 0.215 0.7422c0 0.2994-0.072 0.6054-0.215 0.9179s-0.403 0.6185-0.781 0.918c-0.846 0.7682-1.706 1.4974-2.578 2.1875-0.86 0.6901-1.719 1.3021-2.578 1.8359-0.847 0.5209-1.687 0.9375-2.52 1.25s-1.64 0.4688-2.422 0.4688c-0.521 0-0.957-0.0716-1.308-0.2149-0.352-0.1302-0.638-0.3125-0.86-0.5468-0.208-0.2474-0.358-0.5274-0.449-0.8399-0.091-0.3255-0.137-0.6706-0.137-1.0351 0-0.6511 0.111-1.3282 0.332-2.0313 0.222-0.7031 0.469-1.3346 0.743-1.8945 0.39-0.8073 0.774-1.6081 1.152-2.4024 0.391-0.7942 0.768-1.556 1.133-2.2851h-0.84c-0.729 0-1.231-0.1172-1.504-0.3516s-0.41-0.5013-0.41-0.8008c0-0.1302 0.039-0.2864 0.117-0.4687 0.091-0.1953 0.215-0.3711 0.371-0.5274 0.169-0.1692 0.371-0.3125 0.606-0.4296 0.234-0.1172 0.501-0.1758 0.8-0.1758h2.11l4.121-8.1836c0.26-0.4948 0.579-0.8464 0.957-1.0547 0.391-0.2214 0.794-0.332 1.211-0.332 0.39 0 0.749 0.1041 1.074 0.3125 0.326 0.2083 0.488 0.5533 0.488 1.0351 0 0.2474-0.058 0.5013-0.175 0.7617-0.105 0.2474-0.248 0.5404-0.43 0.8789-0.117 0.2214-0.261 0.4883-0.43 0.8008-0.169 0.2995-0.351 0.625-0.547 0.9766-0.182 0.3385-0.377 0.6966-0.586 1.0742-0.195 0.3776-0.39 0.7422-0.586 1.0938-0.442 0.8333-0.911 1.7122-1.406 2.6367h6.367c0.313 0 0.599 0.0195 0.86 0.0586 0.26 0.026 0.481 0.0911 0.664 0.1953 0.195 0.0911 0.345 0.2213 0.449 0.3906s0.156 0.3971 0.156 0.6836c0 0.1432-0.026 0.2865-0.078 0.4297-0.039 0.1432-0.124 0.2734-0.254 0.3906-0.117 0.1172-0.286 0.2149-0.508 0.293-0.208 0.0781-0.481 0.1302-0.82 0.1562zm12.559-0.664c-0.065-0.0131-0.124-0.0196-0.176-0.0196h-0.176c-0.495 0-0.957 0.0977-1.387 0.293-0.429 0.1953-0.826 0.4557-1.191 0.7812-0.352 0.3126-0.671 0.6706-0.957 1.0743-0.273 0.4036-0.521 0.8073-0.742 1.2109-0.222 0.3906-0.41 0.7682-0.567 1.1328-0.143 0.3646-0.254 0.6706-0.332 0.918 0.456-0.2344 0.925-0.5013 1.407-0.8008 0.494-0.2995 0.957-0.5859 1.386-0.8594 0.43-0.2734 0.801-0.5208 1.114-0.7422 0.325-0.2213 0.553-0.371 0.683-0.4492 0.586-0.3646 0.99-0.7031 1.211-1.0156 0.221-0.3255 0.332-0.6055 0.332-0.8398 0-0.1954-0.065-0.3516-0.195-0.4688-0.117-0.1172-0.254-0.1888-0.41-0.2148zm0.703-2.6954c1.081 0 1.888 0.2605 2.422 0.7813s0.8 1.2435 0.8 2.168c0 0.5468-0.143 1.1198-0.429 1.7187-0.287 0.599-0.781 1.211-1.485 1.836-0.703 0.6119-1.647 1.2434-2.832 1.8945-1.171 0.638-2.643 1.2825-4.414 1.9336 0.065 0.3776 0.267 0.6771 0.606 0.8984 0.338 0.2084 0.788 0.3125 1.347 0.3125 0.599 0 1.237-0.0846 1.914-0.2539 0.691-0.1823 1.368-0.4101 2.032-0.6836 0.677-0.2734 1.334-0.5664 1.972-0.8789 0.638-0.3255 1.211-0.6315 1.719-0.918 0.521-0.2864 0.951-0.5338 1.289-0.7421 0.352-0.2084 0.586-0.3386 0.703-0.3907 0.118-0.0781 0.222-0.1237 0.313-0.1367 0.104-0.013 0.195-0.0195 0.273-0.0195 0.157 0 0.287 0.039 0.391 0.1172 0.104 0.0651 0.189 0.1497 0.254 0.2539 0.078 0.0911 0.13 0.1953 0.156 0.3125 0.026 0.1041 0.039 0.1953 0.039 0.2734 0 0.1172-0.013 0.2604-0.039 0.4297-0.026 0.1563-0.124 0.3385-0.293 0.5469-0.065 0.0651-0.286 0.2409-0.664 0.5273-0.365 0.2865-0.84 0.625-1.426 1.0156-0.586 0.3907-1.269 0.8073-2.051 1.25-0.768 0.4297-1.588 0.8269-2.46 1.1915-0.86 0.3645-1.758 0.664-2.696 0.8984-0.937 0.2474-1.862 0.3711-2.773 0.3711-0.781 0-1.478-0.1498-2.09-0.4492-0.599-0.2995-1.113-0.7032-1.543-1.211-0.417-0.5078-0.736-1.0937-0.957-1.7578s-0.332-1.3607-0.332-2.0898c0-0.5599 0.111-1.1719 0.332-1.836 0.221-0.6771 0.54-1.3541 0.957-2.0312s0.924-1.3347 1.523-1.9727c0.612-0.651 1.296-1.2239 2.051-1.7187s1.582-0.892 2.481-1.1914c0.911-0.2995 1.881-0.4493 2.91-0.4493zm11.797 2.8321c0.508-0.3125 1.028-0.599 1.562-0.8594 0.547-0.2604 1.074-0.4818 1.582-0.6641 0.508-0.1953 0.99-0.345 1.446-0.4492 0.468-0.1172 0.885-0.1758 1.25-0.1758 0.585 0 1.035 0.1433 1.347 0.4297 0.326 0.2735 0.488 0.7422 0.488 1.4063 0 0.1432-6e-3 0.2995-0.019 0.4687-0.013 0.1563-0.039 0.3256-0.078 0.5078-0.065 0.3386-0.261 0.7357-0.586 1.1915-0.326 0.4557-0.71 0.9309-1.152 1.4257-0.43 0.4948-0.899 0.9961-1.407 1.5039-0.495 0.4948-0.957 0.9571-1.386 1.3868-0.417 0.4166-0.769 0.7812-1.055 1.0937-0.274 0.3125-0.41 0.5273-0.41 0.6445 0 0.1042 6e-3 0.1758 0.019 0.2149 0.013 0.039 0.072 0.0586 0.176 0.0586 0.703-0.2995 1.484-0.6576 2.344-1.0742 0.872-0.4297 1.738-0.8659 2.597-1.3086 0.86-0.4427 1.674-0.8724 2.442-1.2891 0.768-0.4297 1.419-0.8008 1.953-1.1133 0.117-0.0651 0.234-0.1172 0.352-0.1562 0.13-0.0521 0.247-0.0782 0.351-0.0782 0.234 0 0.43 0.0782 0.586 0.2344 0.156 0.1563 0.234 0.3646 0.234 0.625 0 0.2995-0.13 0.6445-0.39 1.0352-0.248 0.3776-0.671 0.7747-1.27 1.1914-0.455 0.2864-0.97 0.612-1.543 0.9765-0.56 0.3516-1.152 0.7227-1.777 1.1133-0.612 0.3776-1.237 0.7487-1.875 1.1133-0.625 0.3646-1.231 0.6901-1.816 0.9766-0.586 0.2864-1.14 0.5208-1.661 0.7031-0.507 0.1693-0.95 0.2539-1.328 0.2539-0.898 0-1.575-0.2148-2.031-0.6445-0.443-0.4297-0.664-0.9831-0.664-1.6602 0-0.1042 6e-3 -0.1823 0.019-0.2344 0.092-0.5729 0.261-1.1263 0.508-1.6601 0.248-0.5339 0.528-1.0417 0.84-1.5235 0.313-0.4817 0.638-0.9375 0.977-1.3671 0.338-0.4428 0.644-0.8529 0.918-1.2305 0.286-0.3906 0.52-0.7487 0.703-1.0742 0.182-0.3256 0.273-0.625 0.273-0.8985 0-0.0651-0.013-0.1302-0.039-0.1953s-0.084-0.0976-0.176-0.0976c-0.156 0-0.416 0.0586-0.781 0.1757-0.351 0.1172-0.729 0.2735-1.133 0.4688-0.403 0.1953-0.787 0.4232-1.152 0.6836-0.365 0.2474-0.625 0.5143-0.781 0.8008-0.209 0.3646-0.449 0.8268-0.723 1.3867-0.273 0.5599-0.56 1.1458-0.859 1.7578-0.287 0.612-0.567 1.2174-0.84 1.8164-0.274 0.599-0.508 1.1133-0.703 1.543-0.157 0.3776-0.365 0.7161-0.625 1.0156-0.248 0.2995-0.521 0.5534-0.821 0.7617-0.299 0.2084-0.605 0.3711-0.918 0.4883-0.312 0.1172-0.599 0.1758-0.859 0.1758-0.299 0-0.54-0.0781-0.723-0.2344-0.169-0.1562-0.254-0.4101-0.254-0.7617 0-0.1432 0.02-0.319 0.059-0.5274 0.052-0.2213 0.15-0.4622 0.293-0.7226 0.234-0.4427 0.469-0.9245 0.703-1.4453 0.248-0.5209 0.528-1.1133 0.84-1.7774 0.313-0.6771 0.671-1.4453 1.074-2.3047 0.417-0.8724 0.905-1.875 1.465-3.0078-0.182-0.1562-0.338-0.345-0.469-0.5664-0.117-0.2344-0.175-0.5208-0.175-0.8594 0-0.3124 0.065-0.5794 0.195-0.8007 0.13-0.2344 0.306-0.4232 0.527-0.5664 0.222-0.1433 0.475-0.2474 0.762-0.3125 0.299-0.0782 0.612-0.1172 0.937-0.1172 0.339 0 0.678 0.0325 1.016 0.0976 0.339 0.0521 0.638 0.1368 0.899 0.2539 0.273 0.1172 0.494 0.2605 0.664 0.4297 0.169 0.1693 0.253 0.3646 0.253 0.586 0 0.039-0.013 0.0911-0.039 0.1562s-0.058 0.1367-0.097 0.2149c-0.026 0.0781-0.052 0.1497-0.078 0.2148s-0.039 0.1172-0.039 0.1563c0 0.026 6e-3 0.039 0.019 0.039h0.02zm37.793-14.922c0.208 0.8984 0.416 1.8815 0.625 2.9492 0.208 1.0677 0.41 2.181 0.605 3.3399 0.208 1.1458 0.41 2.3177 0.606 3.5156 0.208 1.1849 0.41 2.3568 0.605 3.5156 0.208 1.1459 0.404 2.2591 0.586 3.3399 0.195 1.0677 0.391 2.0573 0.586 2.9687 1.315-2.5911 2.578-5.0456 3.789-7.3633 1.224-2.3177 2.363-4.3945 3.418-6.2304 1.055-1.849 2.012-3.418 2.871-4.7071 0.859-1.3021 1.602-2.233 2.227-2.7929 0.273-0.2605 0.56-0.4427 0.859-0.5469s0.592-0.1563 0.879-0.1563c0.417 0 0.768 0.1042 1.055 0.3125 0.299 0.2084 0.449 0.4753 0.449 0.8008 0 0.1953-0.033 0.3581-0.098 0.4883s-0.169 0.2734-0.312 0.4297c-0.534 0.612-1.035 1.1784-1.504 1.6992-0.469 0.5078-0.931 1.0482-1.387 1.6211-0.443 0.5599-0.892 1.1914-1.348 1.8945-0.442 0.7032-0.905 1.543-1.386 2.5196-0.586 1.0807-1.172 2.194-1.758 3.3398-0.586 1.1328-1.152 2.2656-1.699 3.3984-0.547 1.1198-1.075 2.2071-1.582 3.2618-0.495 1.0547-0.951 2.0312-1.368 2.9297-0.416 0.8854-0.794 1.6796-1.132 2.3828-0.339 0.6901-0.619 1.2304-0.84 1.6211-0.378 0.8072-0.814 1.4062-1.309 1.7968-0.482 0.3907-0.924 0.5925-1.328 0.6055h-0.137c-0.26-0.013-0.514-0.0651-0.761-0.1562-0.248-0.0912-0.476-0.2279-0.684-0.4102s-0.391-0.4102-0.547-0.6836c-0.143-0.2865-0.241-0.6185-0.293-0.9961-0.208-0.8203-0.397-1.6211-0.566-2.4023-0.156-0.7943-0.306-1.6016-0.449-2.4219-0.144-0.8333-0.293-1.6992-0.45-2.5977-0.143-0.9114-0.299-1.901-0.468-2.9687-0.17-1.0677-0.365-2.2331-0.586-3.4961-0.209-1.263-0.456-2.6628-0.743-4.1992-0.39 1.3021-0.865 2.7343-1.425 4.2968-0.56 1.5495-1.179 3.1185-1.856 4.7071-0.677 1.5755-1.406 3.1054-2.187 4.5898-0.782 1.4714-1.602 2.78-2.461 3.9258-0.86 1.1458-1.745 2.0638-2.657 2.7539-0.898 0.6901-1.803 1.0352-2.714 1.0352-0.157 0-0.339-0.0391-0.547-0.1172-0.209-0.0651-0.41-0.1693-0.606-0.3125-0.182-0.1302-0.338-0.293-0.468-0.4883-0.131-0.1953-0.196-0.4102-0.196-0.6445 0-0.1823 0.033-0.3451 0.098-0.4883 0.078-0.1563 0.182-0.3386 0.312-0.5469 0.17-0.2734 0.437-0.5078 0.801-0.7031 0.365-0.2084 0.781-0.4362 1.25-0.6836 0.482-0.2474 1.003-0.5339 1.563-0.8594 0.56-0.3385 1.119-0.7812 1.679-1.3281 0.313-0.2995 0.684-0.8333 1.114-1.6016 0.429-0.7812 0.892-1.6992 1.386-2.7539 0.508-1.0677 1.029-2.2331 1.563-3.4961 0.547-1.276 1.081-2.5586 1.601-3.8476 0.521-1.2891 1.016-2.5456 1.485-3.7696 0.469-1.2369 0.885-2.3437 1.25-3.3203 0.377-0.9896 0.683-1.8099 0.918-2.4609 0.234-0.6641 0.377-1.0677 0.429-1.2109 0.131-0.3907 0.339-0.6771 0.625-0.8594 0.3-0.1823 0.619-0.28 0.957-0.293-0.013 0-0.026 0.0065-0.039 0.0195h0.118c0.052-0.013 0.097-0.0195 0.136-0.0195 0.287 0 0.567 0.1432 0.84 0.4297 0.287 0.2734 0.488 0.7552 0.606 1.4453zm18.574 15.547c-0.612 0-1.205 0.1562-1.777 0.4687-0.56 0.2995-1.062 0.7032-1.504 1.211-0.43 0.4948-0.775 1.0612-1.036 1.6992-0.26 0.625-0.39 1.2695-0.39 1.9336 0 0.2474 0.019 0.5208 0.058 0.8203 0.04 0.2865 0.118 0.5599 0.235 0.8203 0.13 0.2474 0.312 0.4557 0.547 0.625 0.234 0.1693 0.547 0.2539 0.937 0.2539 0.599 0 1.179-0.1562 1.738-0.4687 0.573-0.3256 1.081-0.7422 1.524-1.25 0.443-0.5209 0.794-1.1068 1.055-1.7578 0.26-0.6511 0.39-1.3086 0.39-1.9727 0-0.2604-0.019-0.5273-0.058-0.8008-0.026-0.2864-0.105-0.5469-0.235-0.7812-0.117-0.2344-0.293-0.4232-0.527-0.5664-0.234-0.1563-0.553-0.2344-0.957-0.2344zm1.015-3.4375c0.495 0 1.023 0.0651 1.583 0.1953 0.572 0.1302 1.1 0.3516 1.582 0.6641 0.481 0.3125 0.878 0.7291 1.191 1.25 0.325 0.5078 0.488 1.1393 0.488 1.8945 0 0.3906-0.052 0.8398-0.156 1.3476-0.104 0.4948-0.26 1.0157-0.469 1.5625 0.13 0.1563 0.28 0.267 0.449 0.3321 0.17 0.0651 0.352 0.0976 0.547 0.0976 0.274 0 0.573-0.0781 0.899-0.2343 0.338-0.1563 0.683-0.3581 1.035-0.6055 0.351-0.2474 0.703-0.5274 1.055-0.8399 0.351-0.3125 0.683-0.625 0.996-0.9375 0.312-0.3125 0.592-0.6054 0.84-0.8789 0.26-0.2864 0.475-0.5273 0.644-0.7226 0.091-0.0912 0.202-0.1367 0.332-0.1367 0.182 0 0.345 0.0976 0.488 0.2929 0.144 0.1823 0.215 0.4427 0.215 0.7813 0 0.3385-0.104 0.7291-0.312 1.1719-0.196 0.4427-0.567 0.9049-1.114 1.3867-0.312 0.3385-0.67 0.7291-1.074 1.1719-0.403 0.4427-0.833 0.8593-1.289 1.25-0.456 0.3906-0.931 0.7226-1.426 0.996-0.494 0.2735-0.989 0.4102-1.484 0.4102-0.339 0-0.671-0.0521-0.996-0.1562-0.313-0.1042-0.632-0.2735-0.957-0.5079-0.469 0.7292-1.003 1.3933-1.602 1.9922-0.599 0.599-1.269 1.1133-2.011 1.543-0.73 0.4297-1.524 0.7617-2.383 0.9961-0.847 0.2474-1.751 0.3711-2.715 0.3711-0.365 0-0.788-0.0716-1.27-0.2149-0.481-0.1432-0.944-0.3776-1.386-0.7031-0.43-0.3385-0.795-0.7747-1.094-1.3086-0.3-0.5338-0.449-1.1849-0.449-1.9531 0-0.5208 0.084-1.1458 0.254-1.875 0.169-0.7292 0.423-1.4779 0.761-2.2461 0.352-0.7813 0.788-1.5495 1.309-2.3047 0.534-0.7682 1.165-1.4518 1.895-2.0508 0.729-0.6119 1.562-1.1002 2.5-1.4648 0.937-0.3776 1.979-0.5664 3.124-0.5664zm8.985 4.6484c0.404-0.8984 0.736-1.6211 0.996-2.168 0.26-0.5598 0.495-0.9895 0.703-1.289 0.221-0.3125 0.436-0.5208 0.645-0.625 0.221-0.1042 0.494-0.1563 0.82-0.1563 0.495 0 0.918 0.1628 1.269 0.4883 0.365 0.3125 0.547 0.7162 0.547 1.211 0 0.1171-0.019 0.2343-0.058 0.3515-0.026 0.1172-0.065 0.2344-0.117 0.3516l-3.321 7.8515c-0.052 0.1042-0.091 0.2214-0.117 0.3516-0.013 0.1172-0.019 0.2148-0.019 0.293 0 0.1692 0.032 0.2995 0.097 0.3906 0.078 0.0781 0.156 0.1172 0.235 0.1172 0.143 0 0.286-0.0326 0.429-0.0977 0.156-0.0651 0.332-0.1757 0.528-0.332 0.208-0.1693 0.455-0.3906 0.742-0.6641 0.299-0.2864 0.664-0.6445 1.094-1.0742 0.403-0.4297 0.82-0.944 1.25-1.543 0.429-0.6119 0.846-1.25 1.25-1.914 0.416-0.6771 0.8-1.3542 1.152-2.0313 0.351-0.6901 0.657-1.3281 0.918-1.914 0.195-0.3907 0.371-0.7031 0.527-0.9375 0.156-0.2474 0.306-0.4362 0.449-0.5664 0.157-0.1302 0.313-0.2149 0.469-0.2539 0.156-0.0521 0.339-0.0782 0.547-0.0782 0.794 0 1.191 0.3451 1.191 1.0352-0.026 0.1042-0.045 0.2213-0.058 0.3516 0 0.1302-0.033 0.2799-0.098 0.4492l-3.047 9.0039c0 0.3255 0.163 0.4883 0.489 0.4883 0.234-0.0261 0.54-0.1433 0.918-0.3516 0.39-0.2214 0.781-0.4948 1.171-0.8203 0.391-0.3386 0.756-0.7227 1.094-1.1524 0.339-0.4427 0.586-0.8984 0.742-1.3671 0.287-0.8594 0.573-1.7253 0.86-2.5977 0.299-0.8724 0.612-1.6602 0.937-2.3633 0.339-0.7161 0.697-1.3021 1.074-1.7578 0.391-0.4687 0.821-0.7227 1.29-0.7617 0.416 0 0.755 0.1367 1.015 0.4101 0.274 0.2605 0.41 0.6055 0.41 1.0352 0 0.5078-0.071 1.0547-0.215 1.6406-0.13 0.586-0.306 1.1719-0.527 1.7578-0.221 0.586-0.488 1.1524-0.801 1.6993-0.299 0.5468-0.612 1.0416-0.937 1.4843 0.091 0.2735 0.28 0.4102 0.566 0.4102 0.508 0 0.983-0.0391 1.426-0.1172 0.456-0.0781 0.892-0.1888 1.309-0.332 0.429-0.1563 0.852-0.3386 1.269-0.5469 0.43-0.2083 0.873-0.4492 1.328-0.7227 0.209-0.1432 0.417-0.2148 0.625-0.2148 0.261 0 0.495 0.0977 0.703 0.293 0.209 0.1953 0.313 0.4492 0.313 0.7617 0 0.2864-0.13 0.5794-0.391 0.8789-0.247 0.2995-0.579 0.5924-0.996 0.8789-0.416 0.2865-0.892 0.5534-1.426 0.8008-0.52 0.2474-1.054 0.4687-1.601 0.664-0.534 0.1823-1.055 0.3321-1.563 0.4493-0.494 0.1041-0.931 0.1562-1.308 0.1562-0.729 0-1.478-0.2083-2.246-0.625-0.912 1.0938-1.862 1.9271-2.852 2.5-0.976 0.5729-1.973 0.8594-2.988 0.8594-0.938 0-1.615-0.2409-2.031-0.7227-0.404-0.4948-0.606-1.2109-0.606-2.1484-0.976 0.9896-1.894 1.7187-2.754 2.1875-0.846 0.4557-1.719 0.6836-2.617 0.6836-0.573 0-1.055-0.0716-1.445-0.2149-0.378-0.1302-0.684-0.319-0.918-0.5664-0.235-0.2474-0.404-0.5338-0.508-0.8593-0.091-0.3386-0.137-0.7032-0.137-1.0938 0-0.638 0.091-1.3086 0.274-2.0117 0.182-0.7162 0.397-1.4063 0.644-2.0703 0.261-0.6641 0.514-1.2761 0.762-1.836 0.26-0.5729 0.469-1.0351 0.625-1.3867zm31.777 6.836c-0.052 0.4036-0.176 0.7877-0.371 1.1523s-0.436 0.6901-0.723 0.9766c-0.286 0.2734-0.612 0.4882-0.976 0.6445-0.365 0.1693-0.742 0.2539-1.133 0.2539-0.586 0-1.055-0.1888-1.406-0.5664-0.352-0.3906-0.527-0.8659-0.527-1.4258 0-0.4297 0.091-0.8398 0.273-1.2305 0.182-0.3906 0.423-0.7356 0.723-1.0351 0.312-0.3125 0.664-0.5599 1.054-0.7422 0.391-0.1823 0.795-0.2734 1.211-0.2734 0.586 0 1.048 0.1823 1.387 0.5468 0.338 0.3646 0.508 0.8269 0.508 1.3868v0.1562c0 0.0391-7e-3 0.0912-0.02 0.1563zm9.199-20.723c-0.716 1.3672-1.367 2.5977-1.953 3.6914-0.586 1.0807-1.159 2.1354-1.718 3.1641-0.56 1.0286-1.133 2.0898-1.719 3.1836-0.586 1.0807-1.237 2.3046-1.953 3.6718-0.196 0.3776-0.476 0.6641-0.84 0.8594-0.365 0.1823-0.703 0.2734-1.016 0.2734-0.26 0-0.475-0.052-0.644-0.1562-0.157-0.1172-0.235-0.293-0.235-0.5273 0-0.1563 0.033-0.306 0.098-0.4493 0.391-0.9114 0.755-1.7513 1.094-2.5195 0.338-0.7812 0.657-1.5299 0.957-2.2461 0.312-0.7161 0.612-1.4127 0.898-2.0898 0.287-0.6771 0.58-1.3672 0.879-2.0703 0.313-0.7162 0.638-1.4649 0.977-2.2461 0.338-0.7813 0.703-1.6276 1.093-2.5391 0.105-0.2344 0.248-0.4427 0.43-0.625 0.195-0.1823 0.417-0.332 0.664-0.4492 0.248-0.1302 0.508-0.2214 0.781-0.2735 0.274-0.0651 0.547-0.0976 0.821-0.0976 0.416 0 0.768 0.0781 1.054 0.2344 0.3 0.1562 0.45 0.4036 0.45 0.7422 0 0.1432-0.039 0.2994-0.118 0.4687z" fill="#fef7d2"/>
</svg>