<svg width="616" height="455" viewBox="0 0 616 455" fill="none" xmlns="http://www.w3.org/2000/svg">
<rect x="42.7285" width="530.543" height="360.52" rx="18" fill="#342727"/>
<path d="M616 363.191H0L21.8092 304.439H71.2139L93.0231 328.919L110.382 304.439H159.341L188.717 328.919L230.555 321.353L245.243 311.561H288.416L303.104 328.919H324.913L332.48 304.439H377.879L407.254 321.353L442.861 304.439H482.029L506.954 321.353L532.324 304.439H591.52L616 363.191Z" fill="#665077"/>
<rect x="415.04" y="395.169" width="17.4316" height="26.7728" rx="8.71581" fill="#323232"/>
<rect x="477.589" y="395.169" width="17.4316" height="26.7728" rx="8.71581" fill="#323232"/>
<path d="M428.508 360.635C427.996 358.962 416.716 357.567 414.153 361.193C411.846 364.818 415.947 368.444 422.1 367.886C428.252 367.328 429.021 362.308 428.508 360.635Z" fill="#80B8CA"/>
<path d="M426.735 361.305C426.352 360.065 417.948 359.031 416.038 361.719C414.319 364.407 417.375 367.095 421.959 366.681C426.543 366.268 427.117 362.546 426.735 361.305Z" fill="#E0EBEF"/>
<path d="M484.385 360.635C484.898 358.962 496.177 357.567 498.741 361.193C501.048 364.818 496.946 368.444 490.794 367.886C484.641 367.328 483.872 362.308 484.385 360.635Z" fill="#80B8CA"/>
<path d="M486.159 361.305C486.541 360.065 494.946 359.031 496.856 361.719C498.575 364.407 495.519 367.095 490.934 366.681C486.35 366.268 485.777 362.546 486.159 361.305Z" fill="#E0EBEF"/>
<path d="M428.105 342.111C429.342 337.232 433.734 333.815 438.768 333.815H475.394C480.428 333.815 484.82 337.232 486.057 342.111L494.622 375.888C496.384 382.84 491.131 389.592 483.959 389.592H430.203C423.031 389.592 417.778 382.84 419.54 375.888L428.105 342.111Z" fill="#80B8CA"/>
<path d="M433.725 348.243C434.963 343.365 439.354 339.951 444.386 339.951H469.263C474.295 339.951 478.686 343.365 479.925 348.243L485.387 369.749C487.152 376.701 481.898 383.456 474.725 383.456H438.924C431.751 383.456 426.497 376.701 428.263 369.749L433.725 348.243Z" fill="#E0EBEF"/>
<rect x="409.4" y="369.512" width="95.3612" height="34.0238" rx="9" fill="#80B8CA"/>
<rect x="403.248" y="397.4" width="107.153" height="7.25097" rx="3.62548" fill="#D3D9DF"/>
<rect x="407.35" y="375.648" width="12.3047" height="19.5218" rx="4" fill="#F5F4EC"/>
<path d="M407.35 380.667H408.964C410.621 380.667 411.964 382.011 411.964 383.667V386.592C411.964 388.249 410.621 389.592 408.964 389.592H407.35V380.667Z" fill="#F3B46B"/>
<rect width="12.3047" height="19.5218" rx="4" transform="matrix(-1 0 0 1 507.325 375.648)" fill="#F5F4EC"/>
<path d="M507.325 380.667H505.711C504.054 380.667 502.711 382.011 502.711 383.667V386.592C502.711 388.249 504.054 389.592 505.711 389.592H507.325V380.667Z" fill="#F3B46B"/>
<rect x="443.751" y="385.687" width="26.1474" height="10.5976" rx="3" fill="#D9D9D9"/>
<rect x="88.3965" y="420.804" width="21.4543" height="34.0745" rx="10.7272" fill="#323232"/>
<rect x="165.381" y="420.804" width="21.4543" height="34.0745" rx="10.7272" fill="#323232"/>
<path d="M104.974 376.851C104.343 374.721 90.4612 372.947 87.3061 377.561C84.4666 382.175 89.5147 386.789 97.0868 386.08C104.659 385.37 105.605 378.981 104.974 376.851Z" fill="#C95B4C"/>
<path d="M102.791 377.705C102.32 376.126 91.9763 374.81 89.6253 378.231C87.5095 381.652 91.271 385.072 96.9132 384.546C102.555 384.02 103.261 379.283 102.791 377.705Z" fill="#EEEFE0"/>
<path d="M173.744 376.851C174.375 374.721 188.258 372.947 191.413 377.561C194.252 382.175 189.204 386.789 181.632 386.08C174.06 385.37 173.113 378.981 173.744 376.851Z" fill="#C95B4C"/>
<path d="M175.928 377.705C176.398 376.126 186.742 374.81 189.093 378.231C191.209 381.652 187.448 385.072 181.806 384.546C176.163 384.02 175.458 379.283 175.928 377.705Z" fill="#EEEFE0"/>
<path d="M105.011 351.097C106.218 346.177 110.629 342.717 115.695 342.717H164.585C169.651 342.717 174.062 346.177 175.268 351.097L187.281 400.086C188.98 407.016 183.733 413.705 176.597 413.705H103.682C96.5466 413.705 91.2994 407.016 92.9989 400.086L105.011 351.097Z" fill="#C95B4C"/>
<path d="M111.929 358.902C113.137 353.984 117.547 350.526 122.611 350.526H157.038C162.103 350.526 166.513 353.984 167.721 358.902L175.917 392.273C177.619 399.204 172.372 405.897 165.234 405.897H114.415C107.278 405.897 102.03 399.204 103.733 392.273L111.929 358.902Z" fill="#EEEFE0"/>
<rect x="81.4551" y="388.149" width="117.368" height="43.303" rx="9" fill="#C95B4C"/>
<rect x="73.8838" y="423.644" width="131.881" height="9.22851" rx="4.61425" fill="#D3D9DF"/>
<rect x="78.9316" y="395.958" width="15.1442" height="24.846" rx="4" fill="#F5F4EC"/>
<path d="M78.9316 402.347H81.6107C83.2676 402.347 84.6107 403.69 84.6107 405.347V410.705C84.6107 412.362 83.2676 413.705 81.6107 413.705H78.9316V402.347Z" fill="#F3B46B"/>
<rect width="15.1442" height="24.846" rx="4" transform="matrix(-1 0 0 1 201.979 395.958)" fill="#F5F4EC"/>
<path d="M201.979 402.347H199.299C197.643 402.347 196.299 403.69 196.299 405.347V410.705C196.299 412.362 197.643 413.705 199.299 413.705H201.979V402.347Z" fill="#F3B46B"/>
<rect x="123.733" y="408.736" width="32.1815" height="13.4878" rx="3" fill="#D9D9D9"/>
</svg>
