<svg width="616" height="151" viewBox="0 0 616 151" fill="none" xmlns="http://www.w3.org/2000/svg">
<path d="M616 59.1908H0L21.8092 0.439331H71.2139L93.0231 24.9191L110.382 0.439331H159.341L188.717 24.9191L230.555 17.3526L245.243 7.56072H288.416L303.104 24.9191H324.913L332.48 0.439331H377.879L407.254 17.3526L442.861 0.439331H482.029L506.954 17.3526L532.324 0.439331H591.52L616 59.1908Z" fill="#665077"/>
<rect x="415.04" y="91.1694" width="17.4316" height="26.7728" rx="8.71581" fill="#323232"/>
<rect x="477.589" y="91.1694" width="17.4316" height="26.7728" rx="8.71581" fill="#323232"/>
<path d="M428.508 56.6348C427.996 54.9615 416.716 53.5671 414.153 57.1926C411.846 60.8181 415.947 64.4436 422.1 63.8858C428.252 63.328 429.021 58.3081 428.508 56.6348Z" fill="#80B8CA"/>
<path d="M426.735 57.3055C426.352 56.065 417.948 55.0312 416.038 57.719C414.319 60.4067 417.375 63.0945 421.959 62.681C426.543 62.2675 427.117 58.546 426.735 57.3055Z" fill="#E0EBEF"/>
<path d="M484.385 56.6348C484.898 54.9615 496.177 53.5671 498.741 57.1926C501.048 60.8181 496.946 64.4436 490.794 63.8858C484.641 63.328 483.872 58.3081 484.385 56.6348Z" fill="#80B8CA"/>
<path d="M486.159 57.3055C486.541 56.065 494.946 55.0312 496.856 57.719C498.575 60.4067 495.519 63.0945 490.934 62.681C486.35 62.2675 485.777 58.546 486.159 57.3055Z" fill="#E0EBEF"/>
<path d="M428.105 38.1114C429.342 33.232 433.734 29.8151 438.768 29.8151H475.394C480.428 29.8151 484.82 33.232 486.057 38.1114L494.622 71.888C496.384 78.8396 491.131 85.5917 483.959 85.5917H430.203C423.031 85.5917 417.778 78.8396 419.54 71.888L428.105 38.1114Z" fill="#80B8CA"/>
<path d="M433.725 44.2428C434.963 39.3654 439.354 35.9506 444.386 35.9506H469.263C474.295 35.9506 478.686 39.3654 479.925 44.2428L485.387 65.7486C487.152 72.7011 481.898 79.4564 474.725 79.4564H438.924C431.751 79.4564 426.497 72.7011 428.263 65.7486L433.725 44.2428Z" fill="#E0EBEF"/>
<rect x="409.4" y="65.5121" width="95.3612" height="34.0238" rx="9" fill="#80B8CA"/>
<rect x="403.248" y="93.4004" width="107.153" height="7.25097" rx="3.62548" fill="#D3D9DF"/>
<rect x="407.35" y="71.6476" width="12.3047" height="19.5218" rx="4" fill="#F5F4EC"/>
<path d="M407.35 76.6675H408.964C410.621 76.6675 411.964 78.0106 411.964 79.6675V82.5917C411.964 84.2486 410.621 85.5918 408.964 85.5918H407.35V76.6675Z" fill="#F3B46B"/>
<rect width="12.3047" height="19.5218" rx="4" transform="matrix(-1 0 0 1 507.325 71.6476)" fill="#F5F4EC"/>
<path d="M507.325 76.6675H505.711C504.054 76.6675 502.711 78.0106 502.711 79.6675V82.5917C502.711 84.2486 504.054 85.5918 505.711 85.5918H507.325V76.6675Z" fill="#F3B46B"/>
<rect x="443.751" y="81.6874" width="26.1474" height="10.5976" rx="3" fill="#D9D9D9"/>
<rect x="88.3965" y="116.804" width="21.4543" height="34.0745" rx="10.7272" fill="#323232"/>
<rect x="165.381" y="116.804" width="21.4543" height="34.0745" rx="10.7272" fill="#323232"/>
<path d="M104.974 72.8511C104.343 70.7214 90.4612 68.9467 87.3061 73.5609C84.4666 78.1752 89.5147 82.7895 97.0868 82.0796C104.659 81.3697 105.605 74.9807 104.974 72.8511Z" fill="#C95B4C"/>
<path d="M102.791 73.7046C102.32 72.1257 91.9763 70.81 89.6253 74.2308C87.5095 77.6516 91.271 81.0725 96.9132 80.5462C102.555 80.0199 103.261 75.2834 102.791 73.7046Z" fill="#EEEFE0"/>
<path d="M173.744 72.8511C174.375 70.7214 188.258 68.9467 191.413 73.5609C194.252 78.1752 189.204 82.7895 181.632 82.0796C174.06 81.3697 173.113 74.9807 173.744 72.8511Z" fill="#C95B4C"/>
<path d="M175.928 73.7046C176.398 72.1257 186.742 70.81 189.093 74.2308C191.209 77.6516 187.448 81.0725 181.806 80.5462C176.163 80.0199 175.458 75.2834 175.928 73.7046Z" fill="#EEEFE0"/>
<path d="M105.011 47.0971C106.218 42.1768 110.629 38.7168 115.695 38.7168H164.585C169.651 38.7168 174.062 42.1768 175.268 47.0971L187.281 96.0856C188.98 103.016 183.733 109.705 176.597 109.705H103.682C96.5466 109.705 91.2994 103.016 92.9989 96.0856L105.011 47.0971Z" fill="#C95B4C"/>
<path d="M111.929 54.902C113.137 49.9836 117.547 46.5256 122.611 46.5256H157.038C162.103 46.5256 166.513 49.9836 167.721 54.902L175.917 88.273C177.619 95.2045 172.372 101.897 165.234 101.897H114.415C107.278 101.897 102.03 95.2045 103.733 88.273L111.929 54.902Z" fill="#EEEFE0"/>
<rect x="81.4551" y="84.1494" width="117.368" height="43.303" rx="9" fill="#C95B4C"/>
<rect x="73.8838" y="119.644" width="131.881" height="9.22851" rx="4.61425" fill="#D3D9DF"/>
<rect x="78.9316" y="91.9581" width="15.1442" height="24.846" rx="4" fill="#F5F4EC"/>
<path d="M78.9316 98.3472H81.6107C83.2676 98.3472 84.6107 99.6903 84.6107 101.347V106.705C84.6107 108.362 83.2676 109.705 81.6107 109.705H78.9316V98.3472Z" fill="#F3B46B"/>
<rect width="15.1442" height="24.846" rx="4" transform="matrix(-1 0 0 1 201.979 91.9581)" fill="#F5F4EC"/>
<path d="M201.979 98.3472H199.299C197.643 98.3472 196.299 99.6903 196.299 101.347V106.705C196.299 108.362 197.643 109.705 199.299 109.705H201.979V98.3472Z" fill="#F3B46B"/>
<rect x="123.733" y="104.736" width="32.1815" height="13.4878" rx="3" fill="#D9D9D9"/>
</svg>
