<svg width="616" height="455" viewBox="0 0 616 455" fill="none" xmlns="http://www.w3.org/2000/svg">
<rect x="42.7285" width="530.543" height="360.52" rx="18" fill="#342727"/>
<g clip-path="url(#clip0_568_536)">
<rect width="489.595" height="312.451" transform="translate(63.2021 17.8035)" fill="#FFF4E4"/>
<rect x="63.2021" y="17.8035" width="489.595" height="312.451" fill="#E68080"/>
<rect width="550" height="351" transform="translate(63.2021 17.8035)" fill="#F6EBCC"/>
<rect x="63.2021" y="17.8035" width="550" height="351" fill="#E68080"/>
<rect x="63.2021" y="17.8035" width="550" height="351" fill="#FFF4E4"/>
<g filter="url(#filter0_d_568_536)">
<path d="M270.842 210.843C272.442 211.243 273.242 212.243 273.242 213.843V220.803H225.242V213.843C225.242 212.243 226.042 211.243 227.642 210.843C229.082 210.603 234.122 210.163 242.762 209.523V159.123C242.762 157.843 242.842 155.763 243.002 152.883L230.522 163.323C230.042 163.803 229.522 164.123 228.962 164.283C228.322 164.443 227.762 164.523 227.282 164.523C226.402 164.523 225.682 164.363 225.122 164.043C224.562 163.723 224.082 163.323 223.682 162.843L219.002 156.483L245.402 133.923H257.642V209.643C264.922 210.203 269.322 210.603 270.842 210.843ZM341.21 177.363C341.21 185.283 340.41 191.883 338.81 197.163C337.05 203.003 334.81 207.603 332.09 210.963C329.21 214.563 325.81 217.283 321.89 219.123C318.13 220.883 313.93 221.763 309.29 221.763C304.65 221.763 300.45 220.883 296.69 219.123C293.01 217.443 289.69 214.723 286.73 210.963C283.85 207.363 281.61 202.763 280.01 197.163C278.41 191.483 277.61 184.883 277.61 177.363C277.61 169.923 278.41 163.363 280.01 157.683C281.61 152.083 283.85 147.483 286.73 143.883C289.69 140.123 293.01 137.403 296.69 135.723C300.45 133.963 304.65 133.083 309.29 133.083C313.93 133.083 318.13 133.963 321.89 135.723C325.81 137.563 329.21 140.283 332.09 143.883C334.81 147.243 337.05 151.843 338.81 157.683C340.41 162.963 341.21 169.523 341.21 177.363ZM325.85 177.363C325.85 170.723 325.41 165.523 324.53 161.763C323.49 157.443 322.25 154.163 320.81 151.923C319.21 149.443 317.45 147.763 315.53 146.883C313.53 145.923 311.45 145.443 309.29 145.443C307.13 145.443 305.09 145.923 303.17 146.883C301.17 147.843 299.41 149.523 297.89 151.923C296.53 154.003 295.33 157.283 294.29 161.763C293.33 165.843 292.85 171.043 292.85 177.363C292.85 183.683 293.33 188.883 294.29 192.963C295.33 197.443 296.53 200.723 297.89 202.803C299.49 205.283 301.25 207.003 303.17 207.963C305.25 209.003 307.29 209.523 309.29 209.523C311.21 209.523 313.29 209.003 315.53 207.963C317.45 207.083 319.21 205.403 320.81 202.923C322.25 200.683 323.49 197.363 324.53 192.963C325.41 189.203 325.85 184.003 325.85 177.363Z" fill="#FF7040"/>
</g>
<path d="M242.378 250.651L234.458 269.995H232.202L234.794 263.659L229.49 250.651H231.914L236.042 261.307L240.122 250.651H242.378ZM256.574 256.723C256.574 257.139 256.55 257.579 256.502 258.043H245.99C246.07 259.339 246.51 260.355 247.31 261.091C248.126 261.811 249.11 262.171 250.262 262.171C251.206 262.171 251.99 261.955 252.614 261.523C253.254 261.075 253.702 260.483 253.958 259.747H256.31C255.958 261.011 255.254 262.043 254.198 262.843C253.142 263.627 251.83 264.019 250.262 264.019C249.014 264.019 247.894 263.739 246.902 263.179C245.926 262.619 245.158 261.827 244.598 260.803C244.038 259.763 243.758 258.563 243.758 257.203C243.758 255.843 244.03 254.651 244.574 253.627C245.118 252.603 245.878 251.819 246.854 251.275C247.846 250.715 248.982 250.435 250.262 250.435C251.51 250.435 252.614 250.707 253.574 251.251C254.534 251.795 255.27 252.547 255.782 253.507C256.31 254.451 256.574 255.523 256.574 256.723ZM254.318 256.267C254.318 255.435 254.134 254.723 253.766 254.131C253.398 253.523 252.894 253.067 252.254 252.763C251.63 252.443 250.934 252.283 250.166 252.283C249.062 252.283 248.118 252.635 247.334 253.339C246.566 254.043 246.126 255.019 246.014 256.267H254.318ZM258.64 257.179C258.64 255.835 258.912 254.659 259.456 253.651C260 252.627 260.744 251.835 261.688 251.275C262.648 250.715 263.712 250.435 264.88 250.435C266.032 250.435 267.032 250.683 267.88 251.179C268.728 251.675 269.36 252.299 269.776 253.051V250.651H271.984V263.803H269.776V261.355C269.344 262.123 268.696 262.763 267.832 263.275C266.984 263.771 265.992 264.019 264.856 264.019C263.688 264.019 262.632 263.731 261.688 263.155C260.744 262.579 260 261.771 259.456 260.731C258.912 259.691 258.64 258.507 258.64 257.179ZM269.776 257.203C269.776 256.211 269.576 255.347 269.176 254.611C268.776 253.875 268.232 253.315 267.544 252.931C266.872 252.531 266.128 252.331 265.312 252.331C264.496 252.331 263.752 252.523 263.08 252.907C262.408 253.291 261.872 253.851 261.472 254.587C261.072 255.323 260.872 256.187 260.872 257.179C260.872 258.187 261.072 259.067 261.472 259.819C261.872 260.555 262.408 261.123 263.08 261.523C263.752 261.907 264.496 262.099 265.312 262.099C266.128 262.099 266.872 261.907 267.544 261.523C268.232 261.123 268.776 260.555 269.176 259.819C269.576 259.067 269.776 258.195 269.776 257.203ZM277.859 252.787C278.243 252.035 278.787 251.451 279.491 251.035C280.211 250.619 281.083 250.411 282.107 250.411V252.667H281.531C279.083 252.667 277.859 253.995 277.859 256.651V263.803H275.675V250.651H277.859V252.787ZM289.284 264.019C288.276 264.019 287.372 263.851 286.572 263.515C285.772 263.163 285.14 262.683 284.676 262.075C284.212 261.451 283.956 260.739 283.908 259.939H286.164C286.228 260.595 286.532 261.131 287.076 261.547C287.636 261.963 288.364 262.171 289.26 262.171C290.092 262.171 290.748 261.987 291.228 261.619C291.708 261.251 291.948 260.787 291.948 260.227C291.948 259.651 291.692 259.227 291.18 258.955C290.668 258.667 289.876 258.387 288.804 258.115C287.828 257.859 287.028 257.603 286.404 257.347C285.796 257.075 285.268 256.683 284.82 256.171C284.388 255.643 284.172 254.955 284.172 254.107C284.172 253.435 284.372 252.819 284.772 252.259C285.172 251.699 285.74 251.259 286.476 250.939C287.212 250.603 288.052 250.435 288.996 250.435C290.452 250.435 291.628 250.803 292.524 251.539C293.42 252.275 293.9 253.283 293.964 254.563H291.78C291.732 253.875 291.452 253.323 290.94 252.907C290.444 252.491 289.772 252.283 288.924 252.283C288.14 252.283 287.516 252.451 287.052 252.787C286.588 253.123 286.356 253.563 286.356 254.107C286.356 254.539 286.492 254.899 286.764 255.187C287.052 255.459 287.404 255.683 287.82 255.859C288.252 256.019 288.844 256.203 289.596 256.411C290.54 256.667 291.308 256.923 291.9 257.179C292.492 257.419 292.996 257.787 293.412 258.283C293.844 258.779 294.068 259.427 294.084 260.227C294.084 260.947 293.884 261.595 293.484 262.171C293.084 262.747 292.516 263.203 291.78 263.539C291.06 263.859 290.228 264.019 289.284 264.019ZM309.302 264.019C308.07 264.019 306.95 263.739 305.942 263.179C304.95 262.619 304.166 261.827 303.59 260.803C303.03 259.763 302.75 258.563 302.75 257.203C302.75 255.859 303.038 254.675 303.614 253.651C304.206 252.611 305.006 251.819 306.014 251.275C307.022 250.715 308.15 250.435 309.398 250.435C310.646 250.435 311.774 250.715 312.782 251.275C313.79 251.819 314.582 252.603 315.158 253.627C315.75 254.651 316.046 255.843 316.046 257.203C316.046 258.563 315.742 259.763 315.134 260.803C314.542 261.827 313.734 262.619 312.71 263.179C311.686 263.739 310.55 264.019 309.302 264.019ZM309.302 262.099C310.086 262.099 310.822 261.915 311.51 261.547C312.198 261.179 312.75 260.627 313.166 259.891C313.598 259.155 313.814 258.259 313.814 257.203C313.814 256.147 313.606 255.251 313.19 254.515C312.774 253.779 312.23 253.235 311.558 252.883C310.886 252.515 310.158 252.331 309.374 252.331C308.574 252.331 307.838 252.515 307.166 252.883C306.51 253.235 305.982 253.779 305.582 254.515C305.182 255.251 304.982 256.147 304.982 257.203C304.982 258.275 305.174 259.179 305.558 259.915C305.958 260.651 306.486 261.203 307.142 261.571C307.798 261.923 308.518 262.099 309.302 262.099ZM324.269 252.451H321.509V263.803H319.325V252.451H317.621V250.651H319.325V249.715C319.325 248.243 319.701 247.171 320.453 246.499C321.221 245.811 322.445 245.467 324.125 245.467V247.291C323.165 247.291 322.485 247.483 322.085 247.867C321.701 248.235 321.509 248.851 321.509 249.715V250.651H324.269V252.451ZM341.59 255.187C342.198 255.283 342.75 255.531 343.246 255.931C343.758 256.331 344.158 256.827 344.446 257.419C344.75 258.011 344.902 258.643 344.902 259.315C344.902 260.163 344.686 260.931 344.254 261.619C343.822 262.291 343.19 262.827 342.358 263.227C341.542 263.611 340.574 263.803 339.454 263.803H333.214V247.075H339.214C340.35 247.075 341.318 247.267 342.118 247.651C342.918 248.019 343.518 248.523 343.918 249.163C344.318 249.803 344.518 250.523 344.518 251.323C344.518 252.315 344.246 253.139 343.702 253.795C343.174 254.435 342.47 254.899 341.59 255.187ZM335.398 254.299H339.07C340.094 254.299 340.886 254.059 341.446 253.579C342.006 253.099 342.286 252.435 342.286 251.587C342.286 250.739 342.006 250.075 341.446 249.595C340.886 249.115 340.078 248.875 339.022 248.875H335.398V254.299ZM339.262 262.003C340.35 262.003 341.198 261.747 341.806 261.235C342.414 260.723 342.718 260.011 342.718 259.099C342.718 258.171 342.398 257.443 341.758 256.915C341.118 256.371 340.262 256.099 339.19 256.099H335.398V262.003H339.262ZM349.061 248.515C348.645 248.515 348.293 248.371 348.005 248.083C347.717 247.795 347.573 247.443 347.573 247.027C347.573 246.611 347.717 246.259 348.005 245.971C348.293 245.683 348.645 245.539 349.061 245.539C349.461 245.539 349.797 245.683 350.069 245.971C350.357 246.259 350.501 246.611 350.501 247.027C350.501 247.443 350.357 247.795 350.069 248.083C349.797 248.371 349.461 248.515 349.061 248.515ZM350.117 250.651V263.803H347.933V250.651H350.117ZM356.503 252.451V260.203C356.503 260.843 356.639 261.299 356.911 261.571C357.183 261.827 357.655 261.955 358.327 261.955H359.935V263.803H357.967C356.751 263.803 355.839 263.523 355.231 262.963C354.623 262.403 354.319 261.483 354.319 260.203V252.451H352.615V250.651H354.319V247.339H356.503V250.651H359.935V252.451H356.503ZM361.765 257.203C361.765 255.843 362.037 254.659 362.581 253.651C363.125 252.627 363.877 251.835 364.837 251.275C365.813 250.715 366.925 250.435 368.173 250.435C369.789 250.435 371.117 250.827 372.157 251.611C373.213 252.395 373.909 253.483 374.245 254.875H371.893C371.669 254.075 371.229 253.443 370.573 252.979C369.933 252.515 369.133 252.283 368.173 252.283C366.925 252.283 365.917 252.715 365.149 253.579C364.381 254.427 363.997 255.635 363.997 257.203C363.997 258.787 364.381 260.011 365.149 260.875C365.917 261.739 366.925 262.171 368.173 262.171C369.133 262.171 369.933 261.947 370.573 261.499C371.213 261.051 371.653 260.411 371.893 259.579H374.245C373.893 260.923 373.189 262.003 372.133 262.819C371.077 263.619 369.757 264.019 368.173 264.019C366.925 264.019 365.813 263.739 364.837 263.179C363.877 262.619 363.125 261.827 362.581 260.803C362.037 259.779 361.765 258.579 361.765 257.203ZM376.344 257.179C376.344 255.835 376.616 254.659 377.16 253.651C377.704 252.627 378.448 251.835 379.392 251.275C380.352 250.715 381.416 250.435 382.584 250.435C383.736 250.435 384.736 250.683 385.584 251.179C386.432 251.675 387.064 252.299 387.48 253.051V250.651H389.688V263.803H387.48V261.355C387.048 262.123 386.4 262.763 385.536 263.275C384.688 263.771 383.696 264.019 382.56 264.019C381.392 264.019 380.336 263.731 379.392 263.155C378.448 262.579 377.704 261.771 377.16 260.731C376.616 259.691 376.344 258.507 376.344 257.179ZM387.48 257.203C387.48 256.211 387.28 255.347 386.88 254.611C386.48 253.875 385.936 253.315 385.248 252.931C384.576 252.531 383.832 252.331 383.016 252.331C382.2 252.331 381.456 252.523 380.784 252.907C380.112 253.291 379.576 253.851 379.176 254.587C378.776 255.323 378.576 256.187 378.576 257.179C378.576 258.187 378.776 259.067 379.176 259.819C379.576 260.555 380.112 261.123 380.784 261.523C381.456 261.907 382.2 262.099 383.016 262.099C383.832 262.099 384.576 261.907 385.248 261.523C385.936 261.123 386.48 260.555 386.88 259.819C387.28 259.067 387.48 258.195 387.48 257.203ZM409.194 250.411C410.218 250.411 411.13 250.627 411.93 251.059C412.73 251.475 413.362 252.107 413.826 252.955C414.29 253.803 414.522 254.835 414.522 256.051V263.803H412.362V256.363C412.362 255.051 412.034 254.051 411.378 253.363C410.738 252.659 409.866 252.307 408.762 252.307C407.626 252.307 406.722 252.675 406.05 253.411C405.378 254.131 405.042 255.179 405.042 256.555V263.803H402.882V256.363C402.882 255.051 402.554 254.051 401.898 253.363C401.258 252.659 400.386 252.307 399.282 252.307C398.146 252.307 397.242 252.675 396.57 253.411C395.898 254.131 395.562 255.179 395.562 256.555V263.803H393.378V250.651H395.562V252.547C395.994 251.859 396.57 251.331 397.29 250.963C398.026 250.595 398.834 250.411 399.714 250.411C400.818 250.411 401.794 250.659 402.642 251.155C403.49 251.651 404.122 252.379 404.538 253.339C404.906 252.411 405.514 251.691 406.362 251.179C407.21 250.667 408.154 250.411 409.194 250.411ZM420.289 253.075C420.721 252.323 421.361 251.699 422.209 251.203C423.073 250.691 424.073 250.435 425.209 250.435C426.377 250.435 427.433 250.715 428.377 251.275C429.337 251.835 430.089 252.627 430.633 253.651C431.177 254.659 431.449 255.835 431.449 257.179C431.449 258.507 431.177 259.691 430.633 260.731C430.089 261.771 429.337 262.579 428.377 263.155C427.433 263.731 426.377 264.019 425.209 264.019C424.089 264.019 423.097 263.771 422.233 263.275C421.385 262.763 420.737 262.131 420.289 261.379V270.043H418.105V250.651H420.289V253.075ZM429.217 257.179C429.217 256.187 429.017 255.323 428.617 254.587C428.217 253.851 427.673 253.291 426.985 252.907C426.313 252.523 425.569 252.331 424.753 252.331C423.953 252.331 423.209 252.531 422.521 252.931C421.849 253.315 421.305 253.883 420.889 254.635C420.489 255.371 420.289 256.227 420.289 257.203C420.289 258.195 420.489 259.067 420.889 259.819C421.305 260.555 421.849 261.123 422.521 261.523C423.209 261.907 423.953 262.099 424.753 262.099C425.569 262.099 426.313 261.907 426.985 261.523C427.673 261.123 428.217 260.555 428.617 259.819C429.017 259.067 429.217 258.187 429.217 257.179Z" fill="black" fill-opacity="0.89"/>
</g>
<path d="M616 363.191H0L21.8092 304.439H71.2139L93.0231 328.919L110.382 304.439H159.341L188.717 328.919L230.555 321.353L245.243 311.561H288.416L303.104 328.919H324.913L332.48 304.439H377.879L407.254 321.353L442.861 304.439H482.029L506.954 321.353L532.324 304.439H591.52L616 363.191Z" fill="#665077"/>
<rect x="415.04" y="395.169" width="17.4316" height="26.7728" rx="8.71581" fill="#323232"/>
<rect x="477.589" y="395.169" width="17.4316" height="26.7728" rx="8.71581" fill="#323232"/>
<path d="M428.508 360.635C427.996 358.962 416.716 357.567 414.153 361.193C411.846 364.818 415.947 368.444 422.1 367.886C428.252 367.328 429.021 362.308 428.508 360.635Z" fill="#80B8CA"/>
<path d="M426.735 361.305C426.352 360.065 417.948 359.031 416.038 361.719C414.319 364.407 417.375 367.095 421.959 366.681C426.543 366.268 427.117 362.546 426.735 361.305Z" fill="#E0EBEF"/>
<path d="M484.385 360.635C484.898 358.962 496.177 357.567 498.741 361.193C501.048 364.818 496.946 368.444 490.794 367.886C484.641 367.328 483.872 362.308 484.385 360.635Z" fill="#80B8CA"/>
<path d="M486.159 361.305C486.541 360.065 494.946 359.031 496.856 361.719C498.575 364.407 495.519 367.095 490.934 366.681C486.35 366.268 485.777 362.546 486.159 361.305Z" fill="#E0EBEF"/>
<path d="M428.105 342.111C429.342 337.232 433.734 333.815 438.768 333.815H475.394C480.428 333.815 484.82 337.232 486.057 342.111L494.622 375.888C496.384 382.84 491.131 389.592 483.959 389.592H430.203C423.031 389.592 417.778 382.84 419.54 375.888L428.105 342.111Z" fill="#80B8CA"/>
<path d="M433.725 348.243C434.963 343.365 439.354 339.951 444.386 339.951H469.263C474.295 339.951 478.686 343.365 479.925 348.243L485.387 369.749C487.152 376.701 481.898 383.456 474.725 383.456H438.924C431.751 383.456 426.497 376.701 428.263 369.749L433.725 348.243Z" fill="#E0EBEF"/>
<rect x="409.4" y="369.512" width="95.3612" height="34.0238" rx="9" fill="#80B8CA"/>
<rect x="403.248" y="397.4" width="107.153" height="7.25097" rx="3.62548" fill="#D3D9DF"/>
<rect x="407.35" y="375.648" width="12.3047" height="19.5218" rx="4" fill="#F5F4EC"/>
<path d="M407.35 380.667H408.964C410.621 380.667 411.964 382.011 411.964 383.667V386.592C411.964 388.249 410.621 389.592 408.964 389.592H407.35V380.667Z" fill="#F3B46B"/>
<rect width="12.3047" height="19.5218" rx="4" transform="matrix(-1 0 0 1 507.325 375.648)" fill="#F5F4EC"/>
<path d="M507.325 380.667H505.711C504.054 380.667 502.711 382.011 502.711 383.667V386.592C502.711 388.249 504.054 389.592 505.711 389.592H507.325V380.667Z" fill="#F3B46B"/>
<rect x="443.751" y="385.687" width="26.1474" height="10.5976" rx="3" fill="#D9D9D9"/>
<rect x="88.3965" y="420.804" width="21.4543" height="34.0745" rx="10.7272" fill="#323232"/>
<rect x="165.381" y="420.804" width="21.4543" height="34.0745" rx="10.7272" fill="#323232"/>
<path d="M104.974 376.851C104.343 374.721 90.4612 372.947 87.3061 377.561C84.4666 382.175 89.5147 386.789 97.0868 386.08C104.659 385.37 105.605 378.981 104.974 376.851Z" fill="#C95B4C"/>
<path d="M102.791 377.705C102.32 376.126 91.9763 374.81 89.6253 378.231C87.5095 381.652 91.271 385.072 96.9132 384.546C102.555 384.02 103.261 379.283 102.791 377.705Z" fill="#EEEFE0"/>
<path d="M173.744 376.851C174.375 374.721 188.258 372.947 191.413 377.561C194.252 382.175 189.204 386.789 181.632 386.08C174.06 385.37 173.113 378.981 173.744 376.851Z" fill="#C95B4C"/>
<path d="M175.928 377.705C176.398 376.126 186.742 374.81 189.093 378.231C191.209 381.652 187.448 385.072 181.806 384.546C176.163 384.02 175.458 379.283 175.928 377.705Z" fill="#EEEFE0"/>
<path d="M105.011 351.097C106.218 346.177 110.629 342.717 115.695 342.717H164.585C169.651 342.717 174.062 346.177 175.268 351.097L187.281 400.086C188.98 407.016 183.733 413.705 176.597 413.705H103.682C96.5466 413.705 91.2994 407.016 92.9989 400.086L105.011 351.097Z" fill="#C95B4C"/>
<path d="M111.929 358.902C113.137 353.984 117.547 350.526 122.611 350.526H157.038C162.103 350.526 166.513 353.984 167.721 358.902L175.917 392.273C177.619 399.204 172.372 405.897 165.234 405.897H114.415C107.278 405.897 102.03 399.204 103.733 392.273L111.929 358.902Z" fill="#EEEFE0"/>
<rect x="81.4551" y="388.149" width="117.368" height="43.303" rx="9" fill="#C95B4C"/>
<rect x="73.8838" y="423.644" width="131.881" height="9.22851" rx="4.61425" fill="#D3D9DF"/>
<rect x="78.9316" y="395.958" width="15.1442" height="24.846" rx="4" fill="#F5F4EC"/>
<path d="M78.9316 402.347H81.6107C83.2676 402.347 84.6107 403.69 84.6107 405.347V410.705C84.6107 412.362 83.2676 413.705 81.6107 413.705H78.9316V402.347Z" fill="#F3B46B"/>
<rect width="15.1442" height="24.846" rx="4" transform="matrix(-1 0 0 1 201.979 395.958)" fill="#F5F4EC"/>
<path d="M201.979 402.347H199.299C197.643 402.347 196.299 403.69 196.299 405.347V410.705C196.299 412.362 197.643 413.705 199.299 413.705H201.979V402.347Z" fill="#F3B46B"/>
<rect x="123.733" y="408.736" width="32.1815" height="13.4878" rx="3" fill="#D9D9D9"/>
<defs>
<filter id="filter0_d_568_536" x="215.002" y="133.083" width="130.208" height="96.6799" filterUnits="userSpaceOnUse" color-interpolation-filters="sRGB">
<feFlood flood-opacity="0" result="BackgroundImageFix"/>
<feColorMatrix in="SourceAlpha" type="matrix" values="0 0 0 0 0 0 0 0 0 0 0 0 0 0 0 0 0 0 127 0" result="hardAlpha"/>
<feOffset dy="4"/>
<feGaussianBlur stdDeviation="2"/>
<feComposite in2="hardAlpha" operator="out"/>
<feColorMatrix type="matrix" values="0 0 0 0 0 0 0 0 0 0 0 0 0 0 0 0 0 0 0.25 0"/>
<feBlend mode="normal" in2="BackgroundImageFix" result="effect1_dropShadow_568_536"/>
<feBlend mode="normal" in="SourceGraphic" in2="effect1_dropShadow_568_536" result="shape"/>
</filter>
<clipPath id="clip0_568_536">
<rect width="489.595" height="312.451" fill="white" transform="translate(63.2021 17.8035)"/>
</clipPath>
</defs>
</svg>

