<svg width="550" height="385" viewBox="0 0 550 385" fill="none" xmlns="http://www.w3.org/2000/svg">
<rect width="550" height="385" fill="#FFF4E4"/>
<g filter="url(#filter0_d_1899_1636)">
<path d="M265.417 182.04C267.017 182.44 267.817 183.44 267.817 185.04V192H219.817V185.04C219.817 183.44 220.617 182.44 222.217 182.04C223.657 181.8 228.697 181.36 237.337 180.72V130.32C237.337 129.04 237.417 126.96 237.577 124.08L225.097 134.52C224.617 135 224.097 135.32 223.537 135.48C222.897 135.64 222.337 135.72 221.857 135.72C220.977 135.72 220.257 135.56 219.697 135.24C219.137 134.92 218.657 134.52 218.257 134.04L213.577 127.68L239.977 105.12H252.217V180.84C259.497 181.4 263.897 181.8 265.417 182.04ZM335.785 148.56C335.785 156.48 334.985 163.08 333.385 168.36C331.625 174.2 329.385 178.8 326.665 182.16C323.785 185.76 320.385 188.48 316.465 190.32C312.705 192.08 308.505 192.96 303.865 192.96C299.225 192.96 295.025 192.08 291.265 190.32C287.585 188.64 284.265 185.92 281.305 182.16C278.425 178.56 276.185 173.96 274.585 168.36C272.985 162.68 272.185 156.08 272.185 148.56C272.185 141.12 272.985 134.56 274.585 128.88C276.185 123.28 278.425 118.68 281.305 115.08C284.265 111.32 287.585 108.6 291.265 106.92C295.025 105.16 299.225 104.28 303.865 104.28C308.505 104.28 312.705 105.16 316.465 106.92C320.385 108.76 323.785 111.48 326.665 115.08C329.385 118.44 331.625 123.04 333.385 128.88C334.985 134.16 335.785 140.72 335.785 148.56ZM320.425 148.56C320.425 141.92 319.985 136.72 319.105 132.96C318.065 128.64 316.825 125.36 315.385 123.12C313.785 120.64 312.025 118.96 310.105 118.08C308.105 117.12 306.025 116.64 303.865 116.64C301.705 116.64 299.665 117.12 297.745 118.08C295.745 119.04 293.985 120.72 292.465 123.12C291.105 125.2 289.905 128.48 288.865 132.96C287.905 137.04 287.425 142.24 287.425 148.56C287.425 154.88 287.905 160.08 288.865 164.16C289.905 168.64 291.105 171.92 292.465 174C294.065 176.48 295.825 178.2 297.745 179.16C299.825 180.2 301.865 180.72 303.865 180.72C305.785 180.72 307.865 180.2 310.105 179.16C312.025 178.28 313.785 176.6 315.385 174.12C316.825 171.88 318.065 168.56 319.105 164.16C319.985 160.4 320.425 155.2 320.425 148.56Z" fill="#FF7040"/>
</g>
<path d="M186.379 236.848L178.459 256.192H176.203L178.795 249.856L173.491 236.848H175.915L180.043 247.504L184.123 236.848H186.379ZM200.575 242.92C200.575 243.336 200.551 243.776 200.503 244.24H189.991C190.071 245.536 190.511 246.552 191.311 247.288C192.127 248.008 193.111 248.368 194.263 248.368C195.207 248.368 195.991 248.152 196.615 247.72C197.255 247.272 197.703 246.68 197.959 245.944H200.311C199.959 247.208 199.255 248.24 198.199 249.04C197.143 249.824 195.831 250.216 194.263 250.216C193.015 250.216 191.895 249.936 190.903 249.376C189.927 248.816 189.159 248.024 188.599 247C188.039 245.96 187.759 244.76 187.759 243.4C187.759 242.04 188.031 240.848 188.575 239.824C189.119 238.8 189.879 238.016 190.855 237.472C191.847 236.912 192.983 236.632 194.263 236.632C195.511 236.632 196.615 236.904 197.575 237.448C198.535 237.992 199.271 238.744 199.783 239.704C200.311 240.648 200.575 241.72 200.575 242.92ZM198.319 242.464C198.319 241.632 198.135 240.92 197.767 240.328C197.399 239.72 196.895 239.264 196.255 238.96C195.631 238.64 194.935 238.48 194.167 238.48C193.063 238.48 192.119 238.832 191.335 239.536C190.567 240.24 190.127 241.216 190.015 242.464H198.319ZM202.642 243.376C202.642 242.032 202.914 240.856 203.458 239.848C204.002 238.824 204.746 238.032 205.69 237.472C206.65 236.912 207.714 236.632 208.882 236.632C210.034 236.632 211.034 236.88 211.882 237.376C212.73 237.872 213.362 238.496 213.778 239.248V236.848H215.986V250H213.778V247.552C213.346 248.32 212.698 248.96 211.834 249.472C210.986 249.968 209.994 250.216 208.858 250.216C207.69 250.216 206.634 249.928 205.69 249.352C204.746 248.776 204.002 247.968 203.458 246.928C202.914 245.888 202.642 244.704 202.642 243.376ZM213.778 243.4C213.778 242.408 213.578 241.544 213.178 240.808C212.778 240.072 212.234 239.512 211.546 239.128C210.874 238.728 210.13 238.528 209.314 238.528C208.498 238.528 207.754 238.72 207.082 239.104C206.41 239.488 205.874 240.048 205.474 240.784C205.074 241.52 204.874 242.384 204.874 243.376C204.874 244.384 205.074 245.264 205.474 246.016C205.874 246.752 206.41 247.32 207.082 247.72C207.754 248.104 208.498 248.296 209.314 248.296C210.13 248.296 210.874 248.104 211.546 247.72C212.234 247.32 212.778 246.752 213.178 246.016C213.578 245.264 213.778 244.392 213.778 243.4ZM221.86 238.984C222.244 238.232 222.788 237.648 223.492 237.232C224.212 236.816 225.084 236.608 226.108 236.608V238.864H225.532C223.084 238.864 221.86 240.192 221.86 242.848V250H219.676V236.848H221.86V238.984ZM233.285 250.216C232.277 250.216 231.373 250.048 230.573 249.712C229.773 249.36 229.141 248.88 228.677 248.272C228.213 247.648 227.957 246.936 227.909 246.136H230.165C230.229 246.792 230.533 247.328 231.077 247.744C231.637 248.16 232.365 248.368 233.261 248.368C234.093 248.368 234.749 248.184 235.229 247.816C235.709 247.448 235.949 246.984 235.949 246.424C235.949 245.848 235.693 245.424 235.181 245.152C234.669 244.864 233.877 244.584 232.805 244.312C231.829 244.056 231.029 243.8 230.405 243.544C229.797 243.272 229.269 242.88 228.821 242.368C228.389 241.84 228.173 241.152 228.173 240.304C228.173 239.632 228.373 239.016 228.773 238.456C229.173 237.896 229.741 237.456 230.477 237.136C231.213 236.8 232.053 236.632 232.997 236.632C234.453 236.632 235.629 237 236.525 237.736C237.421 238.472 237.901 239.48 237.965 240.76H235.781C235.733 240.072 235.453 239.52 234.941 239.104C234.445 238.688 233.773 238.48 232.925 238.48C232.141 238.48 231.517 238.648 231.053 238.984C230.589 239.32 230.357 239.76 230.357 240.304C230.357 240.736 230.493 241.096 230.765 241.384C231.053 241.656 231.405 241.88 231.821 242.056C232.253 242.216 232.845 242.4 233.597 242.608C234.541 242.864 235.309 243.12 235.901 243.376C236.493 243.616 236.997 243.984 237.413 244.48C237.845 244.976 238.069 245.624 238.085 246.424C238.085 247.144 237.885 247.792 237.485 248.368C237.085 248.944 236.517 249.4 235.781 249.736C235.061 250.056 234.229 250.216 233.285 250.216ZM253.303 250.216C252.071 250.216 250.951 249.936 249.943 249.376C248.951 248.816 248.167 248.024 247.591 247C247.031 245.96 246.751 244.76 246.751 243.4C246.751 242.056 247.039 240.872 247.615 239.848C248.207 238.808 249.007 238.016 250.015 237.472C251.023 236.912 252.151 236.632 253.399 236.632C254.647 236.632 255.775 236.912 256.783 237.472C257.791 238.016 258.583 238.8 259.159 239.824C259.751 240.848 260.047 242.04 260.047 243.4C260.047 244.76 259.743 245.96 259.135 247C258.543 248.024 257.735 248.816 256.711 249.376C255.687 249.936 254.551 250.216 253.303 250.216ZM253.303 248.296C254.087 248.296 254.823 248.112 255.511 247.744C256.199 247.376 256.751 246.824 257.167 246.088C257.599 245.352 257.815 244.456 257.815 243.4C257.815 242.344 257.607 241.448 257.191 240.712C256.775 239.976 256.231 239.432 255.559 239.08C254.887 238.712 254.159 238.528 253.375 238.528C252.575 238.528 251.839 238.712 251.167 239.08C250.511 239.432 249.983 239.976 249.583 240.712C249.183 241.448 248.983 242.344 248.983 243.4C248.983 244.472 249.175 245.376 249.559 246.112C249.959 246.848 250.487 247.4 251.143 247.768C251.799 248.12 252.519 248.296 253.303 248.296ZM268.27 238.648H265.51V250H263.326V238.648H261.622V236.848H263.326V235.912C263.326 234.44 263.702 233.368 264.454 232.696C265.222 232.008 266.446 231.664 268.126 231.664V233.488C267.166 233.488 266.486 233.68 266.086 234.064C265.702 234.432 265.51 235.048 265.51 235.912V236.848H268.27V238.648ZM285.591 241.384C286.199 241.48 286.751 241.728 287.247 242.128C287.759 242.528 288.159 243.024 288.447 243.616C288.751 244.208 288.903 244.84 288.903 245.512C288.903 246.36 288.687 247.128 288.255 247.816C287.823 248.488 287.191 249.024 286.359 249.424C285.543 249.808 284.575 250 283.455 250H277.215V233.272H283.215C284.351 233.272 285.319 233.464 286.119 233.848C286.919 234.216 287.519 234.72 287.919 235.36C288.319 236 288.519 236.72 288.519 237.52C288.519 238.512 288.247 239.336 287.703 239.992C287.175 240.632 286.471 241.096 285.591 241.384ZM279.399 240.496H283.071C284.095 240.496 284.887 240.256 285.447 239.776C286.007 239.296 286.287 238.632 286.287 237.784C286.287 236.936 286.007 236.272 285.447 235.792C284.887 235.312 284.079 235.072 283.023 235.072H279.399V240.496ZM283.263 248.2C284.351 248.2 285.199 247.944 285.807 247.432C286.415 246.92 286.719 246.208 286.719 245.296C286.719 244.368 286.399 243.64 285.759 243.112C285.119 242.568 284.263 242.296 283.191 242.296H279.399V248.2H283.263ZM293.062 234.712C292.646 234.712 292.294 234.568 292.006 234.28C291.718 233.992 291.574 233.64 291.574 233.224C291.574 232.808 291.718 232.456 292.006 232.168C292.294 231.88 292.646 231.736 293.062 231.736C293.462 231.736 293.798 231.88 294.07 232.168C294.358 232.456 294.502 232.808 294.502 233.224C294.502 233.64 294.358 233.992 294.07 234.28C293.798 234.568 293.462 234.712 293.062 234.712ZM294.118 236.848V250H291.934V236.848H294.118ZM300.504 238.648V246.4C300.504 247.04 300.64 247.496 300.912 247.768C301.184 248.024 301.656 248.152 302.328 248.152H303.936V250H301.968C300.752 250 299.84 249.72 299.232 249.16C298.624 248.6 298.32 247.68 298.32 246.4V238.648H296.616V236.848H298.32V233.536H300.504V236.848H303.936V238.648H300.504ZM305.767 243.4C305.767 242.04 306.039 240.856 306.583 239.848C307.127 238.824 307.879 238.032 308.839 237.472C309.815 236.912 310.927 236.632 312.175 236.632C313.791 236.632 315.119 237.024 316.159 237.808C317.215 238.592 317.911 239.68 318.247 241.072H315.895C315.671 240.272 315.231 239.64 314.575 239.176C313.935 238.712 313.135 238.48 312.175 238.48C310.927 238.48 309.919 238.912 309.151 239.776C308.383 240.624 307.999 241.832 307.999 243.4C307.999 244.984 308.383 246.208 309.151 247.072C309.919 247.936 310.927 248.368 312.175 248.368C313.135 248.368 313.935 248.144 314.575 247.696C315.215 247.248 315.655 246.608 315.895 245.776H318.247C317.895 247.12 317.191 248.2 316.135 249.016C315.079 249.816 313.759 250.216 312.175 250.216C310.927 250.216 309.815 249.936 308.839 249.376C307.879 248.816 307.127 248.024 306.583 247C306.039 245.976 305.767 244.776 305.767 243.4ZM320.345 243.376C320.345 242.032 320.617 240.856 321.161 239.848C321.705 238.824 322.449 238.032 323.393 237.472C324.353 236.912 325.417 236.632 326.585 236.632C327.737 236.632 328.737 236.88 329.585 237.376C330.433 237.872 331.065 238.496 331.481 239.248V236.848H333.689V250H331.481V247.552C331.049 248.32 330.401 248.96 329.537 249.472C328.689 249.968 327.697 250.216 326.561 250.216C325.393 250.216 324.337 249.928 323.393 249.352C322.449 248.776 321.705 247.968 321.161 246.928C320.617 245.888 320.345 244.704 320.345 243.376ZM331.481 243.4C331.481 242.408 331.281 241.544 330.881 240.808C330.481 240.072 329.937 239.512 329.249 239.128C328.577 238.728 327.833 238.528 327.017 238.528C326.201 238.528 325.457 238.72 324.785 239.104C324.113 239.488 323.577 240.048 323.177 240.784C322.777 241.52 322.577 242.384 322.577 243.376C322.577 244.384 322.777 245.264 323.177 246.016C323.577 246.752 324.113 247.32 324.785 247.72C325.457 248.104 326.201 248.296 327.017 248.296C327.833 248.296 328.577 248.104 329.249 247.72C329.937 247.32 330.481 246.752 330.881 246.016C331.281 245.264 331.481 244.392 331.481 243.4ZM353.195 236.608C354.219 236.608 355.131 236.824 355.931 237.256C356.731 237.672 357.363 238.304 357.827 239.152C358.291 240 358.523 241.032 358.523 242.248V250H356.363V242.56C356.363 241.248 356.035 240.248 355.379 239.56C354.739 238.856 353.867 238.504 352.763 238.504C351.627 238.504 350.723 238.872 350.051 239.608C349.379 240.328 349.043 241.376 349.043 242.752V250H346.883V242.56C346.883 241.248 346.555 240.248 345.899 239.56C345.259 238.856 344.387 238.504 343.283 238.504C342.147 238.504 341.243 238.872 340.571 239.608C339.899 240.328 339.563 241.376 339.563 242.752V250H337.379V236.848H339.563V238.744C339.995 238.056 340.571 237.528 341.291 237.16C342.027 236.792 342.835 236.608 343.715 236.608C344.819 236.608 345.795 236.856 346.643 237.352C347.491 237.848 348.123 238.576 348.539 239.536C348.907 238.608 349.515 237.888 350.363 237.376C351.211 236.864 352.155 236.608 353.195 236.608ZM364.29 239.272C364.722 238.52 365.362 237.896 366.21 237.4C367.074 236.888 368.074 236.632 369.21 236.632C370.378 236.632 371.434 236.912 372.378 237.472C373.338 238.032 374.09 238.824 374.634 239.848C375.178 240.856 375.45 242.032 375.45 243.376C375.45 244.704 375.178 245.888 374.634 246.928C374.09 247.968 373.338 248.776 372.378 249.352C371.434 249.928 370.378 250.216 369.21 250.216C368.09 250.216 367.098 249.968 366.234 249.472C365.386 248.96 364.738 248.328 364.29 247.576V256.24H362.106V236.848H364.29V239.272ZM373.218 243.376C373.218 242.384 373.018 241.52 372.618 240.784C372.218 240.048 371.674 239.488 370.986 239.104C370.314 238.72 369.57 238.528 368.754 238.528C367.954 238.528 367.21 238.728 366.522 239.128C365.85 239.512 365.306 240.08 364.89 240.832C364.49 241.568 364.29 242.424 364.29 243.4C364.29 244.392 364.49 245.264 364.89 246.016C365.306 246.752 365.85 247.32 366.522 247.72C367.21 248.104 367.954 248.296 368.754 248.296C369.57 248.296 370.314 248.104 370.986 247.72C371.674 247.32 372.218 246.752 372.618 246.016C373.018 245.264 373.218 244.384 373.218 243.376Z" fill="black" fill-opacity="0.89"/>
<defs>
<filter id="filter0_d_1899_1636" x="209.577" y="104.28" width="130.208" height="96.6802" filterUnits="userSpaceOnUse" color-interpolation-filters="sRGB">
<feFlood flood-opacity="0" result="BackgroundImageFix"/>
<feColorMatrix in="SourceAlpha" type="matrix" values="0 0 0 0 0 0 0 0 0 0 0 0 0 0 0 0 0 0 127 0" result="hardAlpha"/>
<feOffset dy="4"/>
<feGaussianBlur stdDeviation="2"/>
<feComposite in2="hardAlpha" operator="out"/>
<feColorMatrix type="matrix" values="0 0 0 0 0 0 0 0 0 0 0 0 0 0 0 0 0 0 0.25 0"/>
<feBlend mode="normal" in2="BackgroundImageFix" result="effect1_dropShadow_1899_1636"/>
<feBlend mode="normal" in="SourceGraphic" in2="effect1_dropShadow_1899_1636" result="shape"/>
</filter>
</defs>
</svg>
