<svg width="550" height="385" viewBox="0 0 550 385" fill="none" xmlns="http://www.w3.org/2000/svg">
<rect width="550" height="385" fill="#A18D8D"/>
<g filter="url(#filter0_d_1899_1638)">
<path d="M178.04 192V187.08C178.04 186.2 178.24 185.16 178.64 183.96C179.12 182.84 179.8 181.84 180.68 180.96L206.96 154.56L209.12 152.4C211.6 149.68 212.88 148.28 212.96 148.2C214.64 146.12 216.08 144.08 217.28 142.08C218.56 139.92 219.48 137.88 220.04 135.96C220.6 134.04 220.88 131.88 220.88 129.48C220.88 127.24 220.6 125.4 220.04 123.96C219.48 122.52 218.6 121.2 217.4 120C216.28 118.88 214.96 118.08 213.44 117.6C211.6 117.04 209.88 116.76 208.28 116.76C204.76 116.76 201.84 117.68 199.52 119.52C197.28 121.28 195.68 123.68 194.72 126.72C194.24 128.24 193.56 129.32 192.68 129.96C191.8 130.68 190.68 131.04 189.32 131.04C189 131.04 188.36 130.96 187.4 130.8L179.6 129.48C180.16 125.32 181.32 121.64 183.08 118.44C184.76 115.32 186.88 112.72 189.44 110.64C191.84 108.56 194.8 106.96 198.32 105.84C201.52 104.8 205.12 104.28 209.12 104.28C213.12 104.28 216.8 104.88 220.16 106.08C223.28 107.2 226.08 108.88 228.56 111.12C230.88 113.2 232.72 115.8 234.08 118.92C235.44 122.04 236.12 125.4 236.12 129C236.12 132.12 235.64 135.08 234.68 137.88C233.72 140.6 232.48 143.2 230.96 145.68C229.36 148.32 227.52 150.72 225.44 152.88L218.72 159.96L199.16 180C200.28 179.68 202.16 179.24 204.8 178.68C207.2 178.36 208.96 178.2 210.08 178.2H229.28C229.52 174.84 229.68 173.04 229.76 172.8C230.16 171.36 231.08 170.64 232.52 170.64H238.88V192H178.04ZM307.039 148.56C307.039 156.48 306.239 163.08 304.639 168.36C302.879 174.2 300.639 178.8 297.919 182.16C295.039 185.76 291.639 188.48 287.719 190.32C283.959 192.08 279.759 192.96 275.119 192.96C270.479 192.96 266.279 192.08 262.519 190.32C258.839 188.64 255.519 185.92 252.559 182.16C249.679 178.56 247.439 173.96 245.839 168.36C244.239 162.68 243.439 156.08 243.439 148.56C243.439 141.12 244.239 134.56 245.839 128.88C247.439 123.28 249.679 118.68 252.559 115.08C255.519 111.32 258.839 108.6 262.519 106.92C266.279 105.16 270.479 104.28 275.119 104.28C279.759 104.28 283.959 105.16 287.719 106.92C291.639 108.76 295.039 111.48 297.919 115.08C300.639 118.44 302.879 123.04 304.639 128.88C306.239 134.16 307.039 140.72 307.039 148.56ZM291.679 148.56C291.679 141.92 291.239 136.72 290.359 132.96C289.319 128.64 288.079 125.36 286.639 123.12C285.039 120.64 283.279 118.96 281.359 118.08C279.359 117.12 277.279 116.64 275.119 116.64C272.959 116.64 270.919 117.12 268.999 118.08C266.999 119.04 265.239 120.72 263.719 123.12C262.359 125.2 261.159 128.48 260.119 132.96C259.159 137.04 258.679 142.24 258.679 148.56C258.679 154.88 259.159 160.08 260.119 164.16C261.159 168.64 262.359 171.92 263.719 174C265.319 176.48 267.079 178.2 268.999 179.16C271.079 180.2 273.119 180.72 275.119 180.72C277.039 180.72 279.119 180.2 281.359 179.16C283.279 178.28 285.039 176.6 286.639 174.12C288.079 171.88 289.319 168.56 290.359 164.16C291.239 160.4 291.679 155.2 291.679 148.56ZM370.437 146.16V157.2H347.157V181.92H335.157V157.2H311.877V146.16H335.157V121.68H347.157V146.16H370.437Z" fill="#FF7040"/>
</g>
<path d="M160.504 250.216C159.496 250.216 158.592 250.048 157.792 249.712C156.992 249.36 156.36 248.88 155.896 248.272C155.432 247.648 155.176 246.936 155.128 246.136H157.384C157.448 246.792 157.752 247.328 158.296 247.744C158.856 248.16 159.584 248.368 160.48 248.368C161.312 248.368 161.968 248.184 162.448 247.816C162.928 247.448 163.168 246.984 163.168 246.424C163.168 245.848 162.912 245.424 162.4 245.152C161.888 244.864 161.096 244.584 160.024 244.312C159.048 244.056 158.248 243.8 157.624 243.544C157.016 243.272 156.488 242.88 156.04 242.368C155.608 241.84 155.392 241.152 155.392 240.304C155.392 239.632 155.592 239.016 155.992 238.456C156.392 237.896 156.96 237.456 157.696 237.136C158.432 236.8 159.272 236.632 160.216 236.632C161.672 236.632 162.848 237 163.744 237.736C164.64 238.472 165.12 239.48 165.184 240.76H163C162.952 240.072 162.672 239.52 162.16 239.104C161.664 238.688 160.992 238.48 160.144 238.48C159.36 238.48 158.736 238.648 158.272 238.984C157.808 239.32 157.576 239.76 157.576 240.304C157.576 240.736 157.712 241.096 157.984 241.384C158.272 241.656 158.624 241.88 159.04 242.056C159.472 242.216 160.064 242.4 160.816 242.608C161.76 242.864 162.528 243.12 163.12 243.376C163.712 243.616 164.216 243.984 164.632 244.48C165.064 244.976 165.288 245.624 165.304 246.424C165.304 247.144 165.104 247.792 164.704 248.368C164.304 248.944 163.736 249.4 163 249.736C162.28 250.056 161.448 250.216 160.504 250.216ZM170.571 239.272C171.003 238.52 171.643 237.896 172.491 237.4C173.355 236.888 174.355 236.632 175.491 236.632C176.659 236.632 177.715 236.912 178.659 237.472C179.619 238.032 180.371 238.824 180.915 239.848C181.459 240.856 181.731 242.032 181.731 243.376C181.731 244.704 181.459 245.888 180.915 246.928C180.371 247.968 179.619 248.776 178.659 249.352C177.715 249.928 176.659 250.216 175.491 250.216C174.371 250.216 173.379 249.968 172.515 249.472C171.667 248.96 171.019 248.328 170.571 247.576V256.24H168.387V236.848H170.571V239.272ZM179.499 243.376C179.499 242.384 179.299 241.52 178.899 240.784C178.499 240.048 177.955 239.488 177.267 239.104C176.595 238.72 175.851 238.528 175.035 238.528C174.235 238.528 173.491 238.728 172.803 239.128C172.131 239.512 171.587 240.08 171.171 240.832C170.771 241.568 170.571 242.424 170.571 243.4C170.571 244.392 170.771 245.264 171.171 246.016C171.587 246.752 172.131 247.32 172.803 247.72C173.491 248.104 174.235 248.296 175.035 248.296C175.851 248.296 176.595 248.104 177.267 247.72C177.955 247.32 178.499 246.752 178.899 246.016C179.299 245.264 179.499 244.384 179.499 243.376ZM190.342 250.216C189.11 250.216 187.99 249.936 186.982 249.376C185.99 248.816 185.206 248.024 184.63 247C184.07 245.96 183.79 244.76 183.79 243.4C183.79 242.056 184.078 240.872 184.654 239.848C185.246 238.808 186.046 238.016 187.054 237.472C188.062 236.912 189.19 236.632 190.438 236.632C191.686 236.632 192.814 236.912 193.822 237.472C194.83 238.016 195.622 238.8 196.198 239.824C196.79 240.848 197.086 242.04 197.086 243.4C197.086 244.76 196.782 245.96 196.174 247C195.582 248.024 194.774 248.816 193.75 249.376C192.726 249.936 191.59 250.216 190.342 250.216ZM190.342 248.296C191.126 248.296 191.862 248.112 192.55 247.744C193.238 247.376 193.79 246.824 194.206 246.088C194.638 245.352 194.854 244.456 194.854 243.4C194.854 242.344 194.646 241.448 194.23 240.712C193.814 239.976 193.27 239.432 192.598 239.08C191.926 238.712 191.198 238.528 190.414 238.528C189.614 238.528 188.878 238.712 188.206 239.08C187.55 239.432 187.022 239.976 186.622 240.712C186.222 241.448 186.022 242.344 186.022 243.4C186.022 244.472 186.214 245.376 186.598 246.112C186.998 246.848 187.526 247.4 188.182 247.768C188.838 248.12 189.558 248.296 190.342 248.296ZM206.365 236.608C207.965 236.608 209.261 237.096 210.253 238.072C211.245 239.032 211.741 240.424 211.741 242.248V250H209.581V242.56C209.581 241.248 209.253 240.248 208.597 239.56C207.941 238.856 207.045 238.504 205.909 238.504C204.757 238.504 203.837 238.864 203.149 239.584C202.477 240.304 202.141 241.352 202.141 242.728V250H199.957V236.848H202.141V238.72C202.573 238.048 203.157 237.528 203.893 237.16C204.645 236.792 205.469 236.608 206.365 236.608ZM219.965 250.216C218.957 250.216 218.053 250.048 217.253 249.712C216.453 249.36 215.821 248.88 215.357 248.272C214.893 247.648 214.637 246.936 214.589 246.136H216.845C216.909 246.792 217.213 247.328 217.757 247.744C218.317 248.16 219.045 248.368 219.941 248.368C220.773 248.368 221.429 248.184 221.909 247.816C222.389 247.448 222.629 246.984 222.629 246.424C222.629 245.848 222.373 245.424 221.861 245.152C221.349 244.864 220.557 244.584 219.485 244.312C218.509 244.056 217.709 243.8 217.085 243.544C216.477 243.272 215.949 242.88 215.501 242.368C215.069 241.84 214.853 241.152 214.853 240.304C214.853 239.632 215.053 239.016 215.453 238.456C215.853 237.896 216.421 237.456 217.157 237.136C217.893 236.8 218.733 236.632 219.677 236.632C221.133 236.632 222.309 237 223.205 237.736C224.101 238.472 224.581 239.48 224.645 240.76H222.461C222.413 240.072 222.133 239.52 221.621 239.104C221.125 238.688 220.453 238.48 219.605 238.48C218.821 238.48 218.197 238.648 217.733 238.984C217.269 239.32 217.037 239.76 217.037 240.304C217.037 240.736 217.173 241.096 217.445 241.384C217.733 241.656 218.085 241.88 218.501 242.056C218.933 242.216 219.525 242.4 220.277 242.608C221.221 242.864 221.989 243.12 222.581 243.376C223.173 243.616 223.677 243.984 224.093 244.48C224.525 244.976 224.749 245.624 224.765 246.424C224.765 247.144 224.565 247.792 224.165 248.368C223.765 248.944 223.197 249.4 222.461 249.736C221.741 250.056 220.909 250.216 219.965 250.216ZM233.584 250.216C232.352 250.216 231.232 249.936 230.224 249.376C229.232 248.816 228.448 248.024 227.872 247C227.312 245.96 227.032 244.76 227.032 243.4C227.032 242.056 227.32 240.872 227.896 239.848C228.488 238.808 229.288 238.016 230.296 237.472C231.304 236.912 232.432 236.632 233.68 236.632C234.928 236.632 236.056 236.912 237.064 237.472C238.072 238.016 238.864 238.8 239.44 239.824C240.032 240.848 240.328 242.04 240.328 243.4C240.328 244.76 240.024 245.96 239.416 247C238.824 248.024 238.016 248.816 236.992 249.376C235.968 249.936 234.832 250.216 233.584 250.216ZM233.584 248.296C234.368 248.296 235.104 248.112 235.792 247.744C236.48 247.376 237.032 246.824 237.448 246.088C237.88 245.352 238.096 244.456 238.096 243.4C238.096 242.344 237.888 241.448 237.472 240.712C237.056 239.976 236.512 239.432 235.84 239.08C235.168 238.712 234.44 238.528 233.656 238.528C232.856 238.528 232.12 238.712 231.448 239.08C230.792 239.432 230.264 239.976 229.864 240.712C229.464 241.448 229.264 242.344 229.264 243.4C229.264 244.472 229.456 245.376 229.84 246.112C230.24 246.848 230.768 247.4 231.424 247.768C232.08 248.12 232.8 248.296 233.584 248.296ZM245.384 238.984C245.768 238.232 246.312 237.648 247.016 237.232C247.736 236.816 248.608 236.608 249.632 236.608V238.864H249.056C246.608 238.864 245.384 240.192 245.384 242.848V250H243.2V236.848H245.384V238.984ZM256.809 250.216C255.801 250.216 254.897 250.048 254.097 249.712C253.297 249.36 252.665 248.88 252.201 248.272C251.737 247.648 251.481 246.936 251.433 246.136H253.689C253.753 246.792 254.057 247.328 254.601 247.744C255.161 248.16 255.889 248.368 256.785 248.368C257.617 248.368 258.273 248.184 258.753 247.816C259.233 247.448 259.473 246.984 259.473 246.424C259.473 245.848 259.217 245.424 258.705 245.152C258.193 244.864 257.401 244.584 256.329 244.312C255.353 244.056 254.553 243.8 253.929 243.544C253.321 243.272 252.793 242.88 252.345 242.368C251.913 241.84 251.697 241.152 251.697 240.304C251.697 239.632 251.897 239.016 252.297 238.456C252.697 237.896 253.265 237.456 254.001 237.136C254.737 236.8 255.577 236.632 256.521 236.632C257.977 236.632 259.153 237 260.049 237.736C260.945 238.472 261.425 239.48 261.489 240.76H259.305C259.257 240.072 258.977 239.52 258.465 239.104C257.969 238.688 257.297 238.48 256.449 238.48C255.665 238.48 255.041 238.648 254.577 238.984C254.113 239.32 253.881 239.76 253.881 240.304C253.881 240.736 254.017 241.096 254.289 241.384C254.577 241.656 254.929 241.88 255.345 242.056C255.777 242.216 256.369 242.4 257.121 242.608C258.065 242.864 258.833 243.12 259.425 243.376C260.017 243.616 260.521 243.984 260.937 244.48C261.369 244.976 261.593 245.624 261.609 246.424C261.609 247.144 261.409 247.792 261.009 248.368C260.609 248.944 260.041 249.4 259.305 249.736C258.585 250.056 257.753 250.216 256.809 250.216ZM283.09 242.92C283.09 243.336 283.066 243.776 283.018 244.24H272.506C272.586 245.536 273.026 246.552 273.826 247.288C274.642 248.008 275.626 248.368 276.778 248.368C277.722 248.368 278.506 248.152 279.13 247.72C279.77 247.272 280.218 246.68 280.474 245.944H282.826C282.474 247.208 281.77 248.24 280.714 249.04C279.658 249.824 278.346 250.216 276.778 250.216C275.53 250.216 274.41 249.936 273.418 249.376C272.442 248.816 271.674 248.024 271.114 247C270.554 245.96 270.274 244.76 270.274 243.4C270.274 242.04 270.546 240.848 271.09 239.824C271.634 238.8 272.394 238.016 273.37 237.472C274.362 236.912 275.498 236.632 276.778 236.632C278.026 236.632 279.13 236.904 280.09 237.448C281.05 237.992 281.786 238.744 282.298 239.704C282.826 240.648 283.09 241.72 283.09 242.92ZM280.834 242.464C280.834 241.632 280.65 240.92 280.282 240.328C279.914 239.72 279.41 239.264 278.77 238.96C278.146 238.64 277.45 238.48 276.682 238.48C275.578 238.48 274.634 238.832 273.85 239.536C273.082 240.24 272.642 241.216 272.53 242.464H280.834ZM285.157 243.376C285.157 242.032 285.429 240.856 285.973 239.848C286.517 238.824 287.261 238.032 288.205 237.472C289.165 236.912 290.229 236.632 291.397 236.632C292.549 236.632 293.549 236.88 294.397 237.376C295.245 237.872 295.877 238.496 296.293 239.248V236.848H298.501V250H296.293V247.552C295.861 248.32 295.213 248.96 294.349 249.472C293.501 249.968 292.509 250.216 291.373 250.216C290.205 250.216 289.149 249.928 288.205 249.352C287.261 248.776 286.517 247.968 285.973 246.928C285.429 245.888 285.157 244.704 285.157 243.376ZM296.293 243.4C296.293 242.408 296.093 241.544 295.693 240.808C295.293 240.072 294.749 239.512 294.061 239.128C293.389 238.728 292.645 238.528 291.829 238.528C291.013 238.528 290.269 238.72 289.597 239.104C288.925 239.488 288.389 240.048 287.989 240.784C287.589 241.52 287.389 242.384 287.389 243.376C287.389 244.384 287.589 245.264 287.989 246.016C288.389 246.752 288.925 247.32 289.597 247.72C290.269 248.104 291.013 248.296 291.829 248.296C292.645 248.296 293.389 248.104 294.061 247.72C294.749 247.32 295.293 246.752 295.693 246.016C296.093 245.264 296.293 244.392 296.293 243.4ZM301.376 243.4C301.376 242.04 301.648 240.856 302.192 239.848C302.736 238.824 303.488 238.032 304.448 237.472C305.424 236.912 306.536 236.632 307.784 236.632C309.4 236.632 310.728 237.024 311.768 237.808C312.824 238.592 313.52 239.68 313.856 241.072H311.504C311.28 240.272 310.84 239.64 310.184 239.176C309.544 238.712 308.744 238.48 307.784 238.48C306.536 238.48 305.528 238.912 304.76 239.776C303.992 240.624 303.608 241.832 303.608 243.4C303.608 244.984 303.992 246.208 304.76 247.072C305.528 247.936 306.536 248.368 307.784 248.368C308.744 248.368 309.544 248.144 310.184 247.696C310.824 247.248 311.264 246.608 311.504 245.776H313.856C313.504 247.12 312.8 248.2 311.744 249.016C310.688 249.816 309.368 250.216 307.784 250.216C306.536 250.216 305.424 249.936 304.448 249.376C303.488 248.816 302.736 248.024 302.192 247C301.648 245.976 301.376 244.776 301.376 243.4ZM323.298 236.608C324.29 236.608 325.186 236.824 325.986 237.256C326.786 237.672 327.41 238.304 327.858 239.152C328.322 240 328.554 241.032 328.554 242.248V250H326.394V242.56C326.394 241.248 326.066 240.248 325.41 239.56C324.754 238.856 323.858 238.504 322.722 238.504C321.57 238.504 320.65 238.864 319.962 239.584C319.29 240.304 318.954 241.352 318.954 242.728V250H316.77V232.24H318.954V238.72C319.386 238.048 319.978 237.528 320.73 237.16C321.498 236.792 322.354 236.608 323.298 236.608ZM349.848 236.848L341.928 256.192H339.672L342.264 249.856L336.96 236.848H339.384L343.512 247.504L347.592 236.848H349.848ZM364.043 242.92C364.043 243.336 364.019 243.776 363.971 244.24H353.459C353.539 245.536 353.979 246.552 354.779 247.288C355.595 248.008 356.579 248.368 357.731 248.368C358.675 248.368 359.459 248.152 360.083 247.72C360.723 247.272 361.171 246.68 361.427 245.944H363.779C363.427 247.208 362.723 248.24 361.667 249.04C360.611 249.824 359.299 250.216 357.731 250.216C356.483 250.216 355.363 249.936 354.371 249.376C353.395 248.816 352.627 248.024 352.067 247C351.507 245.96 351.227 244.76 351.227 243.4C351.227 242.04 351.499 240.848 352.043 239.824C352.587 238.8 353.347 238.016 354.323 237.472C355.315 236.912 356.451 236.632 357.731 236.632C358.979 236.632 360.083 236.904 361.043 237.448C362.003 237.992 362.739 238.744 363.251 239.704C363.779 240.648 364.043 241.72 364.043 242.92ZM361.787 242.464C361.787 241.632 361.603 240.92 361.235 240.328C360.867 239.72 360.363 239.264 359.723 238.96C359.099 238.64 358.403 238.48 357.635 238.48C356.531 238.48 355.587 238.832 354.803 239.536C354.035 240.24 353.595 241.216 353.483 242.464H361.787ZM366.11 243.376C366.11 242.032 366.382 240.856 366.926 239.848C367.47 238.824 368.214 238.032 369.158 237.472C370.118 236.912 371.182 236.632 372.35 236.632C373.502 236.632 374.502 236.88 375.35 237.376C376.198 237.872 376.83 238.496 377.246 239.248V236.848H379.454V250H377.246V247.552C376.814 248.32 376.166 248.96 375.302 249.472C374.454 249.968 373.462 250.216 372.326 250.216C371.158 250.216 370.102 249.928 369.158 249.352C368.214 248.776 367.47 247.968 366.926 246.928C366.382 245.888 366.11 244.704 366.11 243.376ZM377.246 243.4C377.246 242.408 377.046 241.544 376.646 240.808C376.246 240.072 375.702 239.512 375.014 239.128C374.342 238.728 373.598 238.528 372.782 238.528C371.966 238.528 371.222 238.72 370.55 239.104C369.878 239.488 369.342 240.048 368.942 240.784C368.542 241.52 368.342 242.384 368.342 243.376C368.342 244.384 368.542 245.264 368.942 246.016C369.342 246.752 369.878 247.32 370.55 247.72C371.222 248.104 371.966 248.296 372.782 248.296C373.598 248.296 374.342 248.104 375.014 247.72C375.702 247.32 376.246 246.752 376.646 246.016C377.046 245.264 377.246 244.392 377.246 243.4ZM385.329 238.984C385.713 238.232 386.257 237.648 386.961 237.232C387.681 236.816 388.553 236.608 389.577 236.608V238.864H389.001C386.553 238.864 385.329 240.192 385.329 242.848V250H383.145V236.848H385.329V238.984Z" fill="black" fill-opacity="0.89"/>
<defs>
<filter id="filter0_d_1899_1638" x="174.04" y="104.28" width="200.396" height="96.6802" filterUnits="userSpaceOnUse" color-interpolation-filters="sRGB">
<feFlood flood-opacity="0" result="BackgroundImageFix"/>
<feColorMatrix in="SourceAlpha" type="matrix" values="0 0 0 0 0 0 0 0 0 0 0 0 0 0 0 0 0 0 127 0" result="hardAlpha"/>
<feOffset dy="4"/>
<feGaussianBlur stdDeviation="2"/>
<feComposite in2="hardAlpha" operator="out"/>
<feColorMatrix type="matrix" values="0 0 0 0 0 0 0 0 0 0 0 0 0 0 0 0 0 0 0.25 0"/>
<feBlend mode="normal" in2="BackgroundImageFix" result="effect1_dropShadow_1899_1638"/>
<feBlend mode="normal" in="SourceGraphic" in2="effect1_dropShadow_1899_1638" result="shape"/>
</filter>
</defs>
</svg>
